<?xml version="1.0" encoding="UTF-8" standalone="no"?>
<!-- Created with Inkscape (http://www.inkscape.org/) -->

<svg
   xmlns:dc="http://purl.org/dc/elements/1.1/"
   xmlns:cc="http://creativecommons.org/ns#"
   xmlns:rdf="http://www.w3.org/1999/02/22-rdf-syntax-ns#"
   xmlns:svg="http://www.w3.org/2000/svg"
   xmlns="http://www.w3.org/2000/svg"
   xmlns:sodipodi="http://sodipodi.sourceforge.net/DTD/sodipodi-0.dtd"
   xmlns:inkscape="http://www.inkscape.org/namespaces/inkscape"
   width="40.723751"
   height="39.718582"
   id="svg3545"
   version="1.1"
   inkscape:version="0.48.2 r9819"
   sodipodi:docname="drawing_github.svg">
  <defs
     id="defs3547" />
  <sodipodi:namedview
     id="base"
     pagecolor="#ffffff"
     bordercolor="#666666"
     borderopacity="1.0"
     inkscape:pageopacity="0.0"
     inkscape:pageshadow="2"
     inkscape:zoom="4.2719688"
     inkscape:cx="23.521795"
     inkscape:cy="22.011221"
     inkscape:document-units="px"
     inkscape:current-layer="layer1"
     showgrid="false"
     inkscape:window-width="674"
     inkscape:window-height="447"
     inkscape:window-x="44"
     inkscape:window-y="46"
     inkscape:window-maximized="0"
     fit-margin-top="0"
     fit-margin-left="0"
     fit-margin-right="0"
     fit-margin-bottom="0" />
  <metadata
     id="metadata3550">
    <rdf:RDF>
      <cc:Work
         rdf:about="">
        <dc:format>image/svg+xml</dc:format>
        <dc:type
           rdf:resource="http://purl.org/dc/dcmitype/StillImage" />
        <dc:title />
      </cc:Work>
    </rdf:RDF>
  </metadata>
  <g
     inkscape:label="Layer 1"
     inkscape:groupmode="layer"
     id="layer1"
     transform="translate(-48.209554,-226.78861)">
    <g
       transform="matrix(1.25,0,0,-1.25,68.569554,226.78861)"
       id="g3005">
      <path
         id="path3007"
         style="fill:#fcfcfc;fill-opacity:1;fill-rule:evenodd;stroke:none"
         d="m 0,0 c -8.995,0 -16.288,-7.293 -16.288,-16.29 0,-7.197 4.667,-13.302 11.14,-15.457 0.815,-0.149 1.112,0.354 1.112,0.786 0,0.386 -0.014,1.411 -0.022,2.77 -4.531,-0.984 -5.487,2.184 -5.487,2.184 -0.741,1.881 -1.809,2.382 -1.809,2.382 -1.479,1.011 0.112,0.991 0.112,0.991 1.635,-0.116 2.495,-1.679 2.495,-1.679 1.453,-2.489 3.813,-1.77 4.741,-1.354 0.148,1.053 0.568,1.771 1.034,2.178 -3.617,0.411 -7.42,1.809 -7.42,8.051 0,1.778 0.635,3.232 1.677,4.371 -0.168,0.412 -0.727,2.068 0.159,4.311 0,0 1.368,0.438 4.48,-1.67 1.299,0.361 2.693,0.542 4.078,0.548 1.383,-0.006 2.777,-0.187 4.078,-0.548 3.11,2.108 4.475,1.67 4.475,1.67 0.889,-2.243 0.33,-3.899 0.162,-4.311 1.044,-1.139 1.675,-2.593 1.675,-4.371 0,-6.258 -3.809,-7.635 -7.438,-8.038 0.585,-0.503 1.106,-1.497 1.106,-3.017 0,-2.177 -0.02,-3.934 -0.02,-4.468 0,-0.436 0.293,-0.943 1.12,-0.784 6.468,2.159 11.131,8.26 11.131,15.455 C 16.291,-7.293 8.997,0 0,0"
         inkscape:connector-curvature="0" />
    </g>
  </g>
</svg>
