<?xml version="1.0" encoding="UTF-8" standalone="no"?>
<!-- Created with Inkscape (http://www.inkscape.org/) -->

<svg
   xmlns:dc="http://purl.org/dc/elements/1.1/"
   xmlns:cc="http://creativecommons.org/ns#"
   xmlns:rdf="http://www.w3.org/1999/02/22-rdf-syntax-ns#"
   xmlns:svg="http://www.w3.org/2000/svg"
   xmlns="http://www.w3.org/2000/svg"
   xmlns:sodipodi="http://sodipodi.sourceforge.net/DTD/sodipodi-0.dtd"
   xmlns:inkscape="http://www.inkscape.org/namespaces/inkscape"
   width="430"
   height="34"
   id="svg2"
   version="1.1"
   inkscape:version="0.48.3.1 r9886"
   sodipodi:docname="adh-en.svg">
  <defs
     id="defs4" />
  <sodipodi:namedview
     id="base"
     pagecolor="#ffffff"
     bordercolor="#666666"
     borderopacity="1.0"
     inkscape:pageopacity="0.0"
     inkscape:pageshadow="2"
     inkscape:zoom="2.0276047"
     inkscape:cx="271.72434"
     inkscape:cy="31.308417"
     inkscape:document-units="px"
     inkscape:current-layer="layer1"
     showgrid="false"
     showguides="true"
     inkscape:guide-bbox="true"
     inkscape:window-width="1631"
     inkscape:window-height="1026"
     inkscape:window-x="49"
     inkscape:window-y="24"
     inkscape:window-maximized="1">
    <sodipodi:guide
       orientation="0,1"
       position="305.51801,28.182549"
       id="guide3372" />
    <sodipodi:guide
       orientation="0,1"
       position="305.80136,4.9041558"
       id="guide3374" />
  </sodipodi:namedview>
  <metadata
     id="metadata7">
    <rdf:RDF>
      <cc:Work
         rdf:about="">
        <dc:format>image/svg+xml</dc:format>
        <dc:type
           rdf:resource="http://purl.org/dc/dcmitype/StillImage" />
        <dc:title />
      </cc:Work>
    </rdf:RDF>
  </metadata>
  <g
     inkscape:label="Layer 1"
     inkscape:groupmode="layer"
     id="layer1"
     transform="translate(0,-1018.3622)">
    <path
       inkscape:connector-curvature="0"
       id="path3055"
       style="font-size:31.46346474px;font-style:normal;font-variant:normal;font-weight:bold;font-stretch:normal;line-height:125%;letter-spacing:0px;word-spacing:0px;fill:#000000;fill-opacity:1;stroke:none;font-family:Ubuntu;-inkscape-font-specification:Ubuntu Bold"
       d="m 55.18709,1046.0844 c -0.176522,-0.5776 -0.377102,-1.1713 -0.601739,-1.7812 -0.208614,-0.6097 -0.417217,-2.0665 -0.625808,-2.6763 l -6.498779,0 c -0.208607,0.6098 -0.425233,2.0666 -0.649877,2.6763 -0.208607,0.6099 -0.401164,1.2036 -0.577669,1.7812 l -3.899268,0 c 1.916952,-6.9907 3.979941,-13.9813 6.643197,-20.972 l 3.586362,0 c 2.322107,6.3999 4.828167,15.6027 5.579883,18.1249 l 12.999424,-0.089 -0.01455,2.9331 -11.921558,0 -4.019615,0 m -6.859822,-7.4421 4.741702,0 c -0.812699,-4.2057 -0.926799,-5.068 -2.382886,-9.8639 -1.423692,4.7588 -1.889751,7.6769 -2.358816,9.8639 z"
       sodipodi:nodetypes="cccccccccccccccccc" />
    <path
       inkscape:connector-curvature="0"
       id="path3057"
       style="font-size:31.46346474px;font-style:normal;font-variant:normal;font-weight:bold;font-stretch:normal;line-height:125%;letter-spacing:0px;word-spacing:0px;fill:#000000;fill-opacity:1;stroke:none;font-family:Ubuntu;-inkscape-font-specification:Ubuntu Bold"
       d="m 70.555171,1032.3093 c -0.320937,-0.08 -0.698026,-0.1604 -1.131269,-0.2407 -0.433259,-0.096 -0.898603,-0.1444 -1.396034,-0.1444 -0.224655,0 -0.497443,0.024 -0.818364,0.072 -0.304887,0.032 -0.53756,0.072 -0.698017,0.1203 l 0,9.676 -3.586363,0 0,-11.9867 c 0.641852,-0.2246 1.396031,-0.4332 2.262537,-0.6257 0.882545,-0.2087 1.861373,-0.313 2.936486,-0.313 0.192549,0 0.425221,0.016 0.698017,0.048 0.27278,0.016 0.545568,0.049 0.818364,0.096 0.27278,0.032 0.545568,0.08 0.818365,0.1445 0.272779,0.049 0.505451,0.1123 0.698017,0.1926 l -0.601739,2.9605" />
    <path
       inkscape:connector-curvature="0"
       id="path3059"
       style="font-size:31.46346474px;font-style:normal;font-variant:normal;font-weight:bold;font-stretch:normal;line-height:125%;letter-spacing:0px;word-spacing:0px;fill:#000000;fill-opacity:1;stroke:none;font-family:Ubuntu;-inkscape-font-specification:Ubuntu Bold"
       d="m 74.042671,1035.4624 c -10e-7,-0.9146 0.144416,-1.7732 0.433252,-2.5755 0.304879,-0.8183 0.73813,-1.5243 1.299755,-2.1181 0.561619,-0.6097 1.24359,-1.0911 2.045913,-1.4442 0.802312,-0.353 1.716954,-0.5295 2.743928,-0.5295 0.673939,0 1.291724,0.064 1.853356,0.1926 0.561612,0.1124 1.107189,0.2807 1.636729,0.5055 l -0.746156,2.8642 c -0.336984,-0.1284 -0.70605,-0.2406 -1.1072,-0.337 -0.401168,-0.096 -0.850466,-0.1444 -1.347895,-0.1444 -1.059067,0 -1.853361,0.3291 -2.382885,0.987 -0.513488,0.6578 -0.770231,1.5243 -0.770225,2.5993 -6e-6,1.1394 0.24069,2.022 0.722086,2.6477 0.497432,0.6259 1.355911,0.9387 2.575442,0.9387 0.433244,0 0.898588,-0.041 1.396034,-0.1203 0.497427,-0.08 0.954748,-0.2086 1.371964,-0.3851 l 0.50546,2.9365 c -0.417215,0.1765 -0.938721,0.329 -1.56452,0.4573 -0.625818,0.1284 -1.315811,0.1925 -2.069981,0.1925 -1.155346,0 -2.150219,-0.1684 -2.984624,-0.5054 -0.834416,-0.353 -1.524409,-0.8264 -2.069981,-1.4201 -0.529533,-0.5938 -0.922669,-1.2917 -1.179409,-2.0941 -0.240696,-0.8182 -0.361044,-1.7009 -0.361043,-2.6476" />
    <path
       inkscape:connector-curvature="0"
       id="path3061"
       style="font-size:31.46346474px;font-style:normal;font-variant:normal;font-weight:bold;font-stretch:normal;line-height:125%;letter-spacing:0px;word-spacing:0px;fill:#000000;fill-opacity:1;stroke:none;font-family:Ubuntu;-inkscape-font-specification:Ubuntu Bold"
       d="m 88.479187,1041.7927 0,-18.1003 3.586363,-0.5776 0,6.0654 c 0.240689,-0.08 0.545571,-0.1524 0.914644,-0.2166 0.385106,-0.08 0.754172,-0.1203 1.107199,-0.1203 1.026958,0 1.877413,0.1444 2.551369,0.4332 0.689985,0.2728 1.235565,0.6659 1.636731,1.1794 0.417195,0.5135 0.706032,1.1233 0.866502,1.8292 0.176499,0.7062 0.264753,1.4924 0.264771,2.359 l 0,7.1486 -3.586365,0 0,-6.7154 c -9e-6,-1.1553 -0.152451,-1.9737 -0.457326,-2.4551 -0.288837,-0.4814 -0.834417,-0.7222 -1.636726,-0.7222 -0.320933,0 -0.625815,0.032 -0.914643,0.096 -0.272794,0.048 -0.521512,0.1043 -0.746156,0.1684 l 0,9.6279 -3.586363,0" />
    <path
       inkscape:connector-curvature="0"
       id="path3063"
       style="font-size:31.46346474px;font-style:normal;font-variant:normal;font-weight:bold;font-stretch:normal;line-height:125%;letter-spacing:0px;word-spacing:0px;fill:#000000;fill-opacity:1;stroke:none;font-family:Ubuntu;-inkscape-font-specification:Ubuntu Bold"
       d="m 108.06282,1041.7927 -3.58636,0 0,-12.6606 3.58636,0 0,12.6606 m 0.33697,-16.3192 c 0,0.6579 -0.21663,1.1795 -0.64987,1.5646 -0.41721,0.3691 -0.91465,0.5535 -1.49232,0.5535 -0.57766,0 -1.08313,-0.1844 -1.51638,-0.5535 -0.41721,-0.3851 -0.62581,-0.9067 -0.62581,-1.5646 0,-0.6579 0.2086,-1.1713 0.62581,-1.5404 0.43325,-0.3851 0.93872,-0.5777 1.51638,-0.5777 0.57767,0 1.07511,0.1926 1.49232,0.5777 0.43324,0.3691 0.64987,0.8825 0.64987,1.5404" />
    <path
       inkscape:connector-curvature="0"
       id="path3066"
       style="font-size:31.46346474px;font-style:normal;font-variant:normal;font-weight:bold;font-stretch:normal;line-height:125%;letter-spacing:0px;word-spacing:0px;fill:#000000;fill-opacity:1;stroke:none;font-family:Ubuntu;-inkscape-font-specification:Ubuntu Bold"
       d="m 113.11371,1025.9789 3.58637,-0.5776 0,3.7308 4.30845,0 0,2.9847 -4.30845,0 0,4.4528 c 0,0.7542 0.12836,1.3559 0.38512,1.8052 0.27278,0.4493 0.81033,0.6739 1.61265,0.6739 0.38511,0 0.77824,-0.032 1.17941,-0.096 0.4172,-0.08 0.79428,-0.1845 1.13127,-0.3128 l 0.50546,2.7921 c -0.43326,0.1765 -0.91465,0.3289 -1.44417,0.4573 -0.52954,0.1284 -1.17942,0.1926 -1.94963,0.1926 -0.97884,0 -1.78918,-0.1285 -2.43103,-0.3852 -0.64186,-0.2727 -1.15535,-0.6419 -1.54046,-1.1072 -0.38511,-0.4813 -0.6579,-1.0591 -0.81836,-1.733 -0.14442,-0.674 -0.21663,-1.4202 -0.21663,-2.2385 l 0,-10.6388" />
    <path
       inkscape:connector-curvature="0"
       id="path3068"
       style="font-size:31.46346474px;font-style:normal;font-variant:normal;font-weight:bold;font-stretch:normal;line-height:125%;letter-spacing:0px;word-spacing:0px;fill:#000000;fill-opacity:1;stroke:none;font-family:Ubuntu;-inkscape-font-specification:Ubuntu Bold"
       d="m 124.63368,1035.5587 c 0,-1.1233 0.16849,-2.1021 0.50546,-2.9365 0.35302,-0.8505 0.81034,-1.5565 1.37195,-2.1181 0.56163,-0.5616 1.20348,-0.9868 1.92557,-1.2757 0.73813,-0.2889 1.49231,-0.4333 2.26255,-0.4333 1.79718,0 3.21728,0.5536 4.2603,1.6608 1.043,1.0913 1.56452,2.7039 1.56453,4.838 -1e-5,0.2087 -0.008,0.4413 -0.0241,0.698 -0.016,0.2407 -0.0321,0.4574 -0.0482,0.6499 l -8.13552,0 c 0.0803,0.7382 0.42522,1.3238 1.03499,1.7571 0.60976,0.4332 1.42813,0.6498 2.4551,0.6498 0.65789,0 1.29975,-0.056 1.92556,-0.1684 0.64186,-0.1284 1.16335,-0.2808 1.56453,-0.4573 l 0.48139,2.9124 c -0.19257,0.096 -0.44932,0.1925 -0.77023,0.2888 -0.32094,0.096 -0.68198,0.1765 -1.08313,0.2407 -0.38512,0.08 -0.80233,0.1444 -1.25161,0.1925 -0.44931,0.049 -0.89861,0.072 -1.3479,0.072 -1.1393,0 -2.13417,-0.1684 -2.98462,-0.5054 -0.83442,-0.337 -1.53243,-0.7942 -2.09405,-1.372 -0.54558,-0.5937 -0.95477,-1.2917 -1.22755,-2.0941 -0.25674,-0.8022 -0.38512,-1.6688 -0.38512,-2.5995 m 8.42435,-1.3719 c -0.016,-0.3049 -0.0722,-0.6018 -0.16849,-0.8906 -0.0803,-0.2888 -0.21663,-0.5455 -0.40919,-0.7702 -0.17651,-0.2247 -0.40918,-0.4092 -0.69801,-0.5537 -0.27279,-0.1443 -0.61779,-0.2165 -1.03499,-0.2166 -0.40117,10e-5 -0.74616,0.072 -1.03498,0.2166 -0.28885,0.1285 -0.52955,0.305 -0.7221,0.5296 -0.19256,0.2247 -0.345,0.4894 -0.45731,0.7943 -0.0963,0.2888 -0.16851,0.5857 -0.21664,0.8906 l 4.74171,0" />
    <path
       inkscape:connector-curvature="0"
       id="path3070"
       style="font-size:31.46346474px;font-style:normal;font-variant:normal;font-weight:bold;font-stretch:normal;line-height:125%;letter-spacing:0px;word-spacing:0px;fill:#000000;fill-opacity:1;stroke:none;font-family:Ubuntu;-inkscape-font-specification:Ubuntu Bold"
       d="m 140.48992,1035.4624 c 0,-0.9146 0.14442,-1.7732 0.43325,-2.5755 0.30489,-0.8183 0.73814,-1.5243 1.29976,-2.1181 0.56161,-0.6097 1.24359,-1.0911 2.04591,-1.4442 0.80232,-0.353 1.71696,-0.5295 2.74393,-0.5295 0.67394,0 1.29173,0.064 1.85336,0.1926 0.56161,0.1124 1.10718,0.2807 1.63672,0.5055 l -0.74615,2.8642 c -0.33699,-0.1284 -0.70605,-0.2406 -1.10721,-0.337 -0.40116,-0.096 -0.85046,-0.1444 -1.34788,-0.1444 -1.05907,0 -1.85336,0.3291 -2.38289,0.987 -0.51349,0.6578 -0.77024,1.5243 -0.77023,2.5993 -1e-5,1.1394 0.24069,2.022 0.72209,2.6477 0.49743,0.6259 1.35591,0.9387 2.57544,0.9387 0.43324,0 0.89859,-0.041 1.39604,-0.1203 0.49742,-0.08 0.95474,-0.2086 1.37196,-0.3851 l 0.50545,2.9365 c -0.41721,0.1765 -0.93871,0.329 -1.56451,0.4573 -0.62582,0.1284 -1.31581,0.1925 -2.06998,0.1925 -1.15535,0 -2.15022,-0.1684 -2.98463,-0.5054 -0.83441,-0.353 -1.5244,-0.8264 -2.06998,-1.4201 -0.52953,-0.5938 -0.92266,-1.2917 -1.1794,-2.0941 -0.2407,-0.8182 -0.36105,-1.7009 -0.36105,-2.6476" />
    <path
       inkscape:connector-curvature="0"
       id="path3072"
       style="font-size:31.46346474px;font-style:normal;font-variant:normal;font-weight:bold;font-stretch:normal;line-height:125%;letter-spacing:0px;word-spacing:0px;fill:#000000;fill-opacity:1;stroke:none;font-family:Ubuntu;-inkscape-font-specification:Ubuntu Bold"
       d="m 154.80609,1025.9789 3.58636,-0.5776 0,3.7308 4.30845,0 0,2.9847 -4.30845,0 0,4.4528 c -1e-5,0.7542 0.12837,1.3559 0.38512,1.8052 0.27277,0.4493 0.81033,0.6739 1.61266,0.6739 0.3851,0 0.77824,-0.032 1.1794,-0.096 0.4172,-0.08 0.79429,-0.1845 1.13127,-0.3128 l 0.50546,2.7921 c -0.43326,0.1765 -0.91465,0.3289 -1.44416,0.4573 -0.52955,0.1284 -1.17942,0.1926 -1.94964,0.1926 -0.97884,0 -1.78918,-0.1285 -2.43102,-0.3852 -0.64187,-0.2727 -1.15534,-0.6419 -1.54046,-1.1072 -0.38511,-0.4813 -0.6579,-1.0591 -0.81836,-1.733 -0.14443,-0.674 -0.21663,-1.4202 -0.21663,-2.2385 l 0,-10.6388" />
    <path
       inkscape:connector-curvature="0"
       id="path3074"
       style="font-size:31.46346474px;font-style:normal;font-variant:normal;font-weight:bold;font-stretch:normal;line-height:125%;letter-spacing:0px;word-spacing:0px;fill:#000000;fill-opacity:1;stroke:none;font-family:Ubuntu;-inkscape-font-specification:Ubuntu Bold"
       d="m 179.28009,1042.7836 c 0.17651,0.016 0.54354,0.032 0.7682,0.048 0.24068,0 0.52149,0 0.84243,0 1.87742,0 3.01575,-0.4733 3.91436,-1.4201 0.91462,-0.9468 1.62451,-3.7113 1.62164,-6.171 -0.003,-2.4597 -0.68294,-4.8729 -1.54944,-5.7715 -0.86651,-0.8986 -1.98879,-1.3478 -3.86621,-1.3478 -0.25675,0 -0.52151,0.01 -0.7943,0.023 -0.27279,0 -0.69599,0.016 -0.93668,0.049 l 0,14.59 m 9.93174,-1.5163 c -0.44931,1.0751 -1.06342,1.9656 -1.89782,2.6717 -0.81837,0.706 -1.54386,1.18 -2.73127,1.5331 -1.18744,0.3531 -2.40832,0.585 -3.88458,0.585 -0.67395,0 -1.62668,-0.032 -2.52527,-0.096 -0.8986,-0.049 -1.78115,-0.1605 -2.64765,-0.337 l 0,-20.2946 c 0.8665,-0.1604 1.7651,-0.2648 2.69579,-0.3128 0.94672,-0.064 1.92352,-0.096 2.59748,-0.096 1.42812,0 2.60888,0.216 3.76423,0.5369 1.17137,0.3209 1.89685,0.771 2.73127,1.4609 0.8344,0.69 1.44851,1.5726 1.89782,2.6477 0.44928,1.0752 1.10672,2.5495 1.09008,5.6751 -0.0166,3.1257 -0.6408,4.9516 -1.09008,6.0267 z"
       sodipodi:nodetypes="ccsczcscccccssccccsccczc" />
    <path
       inkscape:connector-curvature="0"
       id="path3076"
       style="font-size:31.46346474px;font-style:normal;font-variant:normal;font-weight:bold;font-stretch:normal;line-height:125%;letter-spacing:0px;word-spacing:0px;fill:#000000;fill-opacity:1;stroke:none;font-family:Ubuntu;-inkscape-font-specification:Ubuntu Bold"
       d="m 193.90157,1035.5587 c 0,-1.1233 0.16849,-2.1021 0.50547,-2.9365 0.35302,-0.8505 0.81033,-1.5565 1.37196,-2.1181 0.56163,-0.5616 1.20347,-0.9868 1.92557,-1.2757 0.73812,-0.2889 1.49231,-0.4333 2.26254,-0.4333 1.79718,0 3.21728,0.5536 4.26031,1.6608 1.043,1.0913 1.5645,2.7039 1.56452,4.838 -2e-5,0.2087 -0.008,0.4413 -0.0241,0.698 -0.016,0.2407 -0.0321,0.4574 -0.0481,0.6499 l -8.13551,0 c 0.0802,0.7382 0.42522,1.3238 1.03499,1.7571 0.60976,0.4332 1.42812,0.6498 2.45509,0.6498 0.6579,0 1.29974,-0.056 1.92556,-0.1684 0.64185,-0.1284 1.16336,-0.2808 1.56452,-0.4573 l 0.4814,2.9124 c -0.19257,0.096 -0.44931,0.1925 -0.77022,0.2888 -0.32094,0.096 -0.68199,0.1765 -1.08314,0.2407 -0.38513,0.08 -0.80232,0.1444 -1.25162,0.1925 -0.4493,0.049 -0.89859,0.072 -1.34788,0.072 -1.1393,0 -2.13418,-0.1684 -2.98463,-0.5054 -0.83441,-0.337 -1.53244,-0.7942 -2.09405,-1.372 -0.54559,-0.5937 -0.95477,-1.2917 -1.22755,-2.0941 -0.25674,-0.8022 -0.38512,-1.6688 -0.38512,-2.5995 m 8.42435,-1.3719 c -0.0161,-0.3049 -0.0722,-0.6018 -0.16849,-0.8906 -0.0803,-0.2888 -0.21664,-0.5455 -0.40918,-0.7702 -0.17652,-0.2247 -0.4092,-0.4092 -0.69802,-0.5537 -0.27279,-0.1443 -0.61779,-0.2165 -1.035,-0.2166 -0.40116,10e-5 -0.74615,0.072 -1.03498,0.2166 -0.28883,0.1285 -0.52954,0.305 -0.72209,0.5296 -0.19255,0.2247 -0.34499,0.4894 -0.45731,0.7943 -0.0963,0.2888 -0.16849,0.5857 -0.21663,0.8906 l 4.7417,0" />
    <path
       inkscape:connector-curvature="0"
       id="path3078"
       style="font-size:31.46346474px;font-style:normal;font-variant:normal;font-weight:bold;font-stretch:normal;line-height:125%;letter-spacing:0px;word-spacing:0px;fill:#000000;fill-opacity:1;stroke:none;font-family:Ubuntu;-inkscape-font-specification:Ubuntu Bold"
       d="m 213.99406,1039.2172 c 0.65789,0 1.12325,-0.064 1.39604,-0.1925 0.27278,-0.1284 0.40918,-0.3771 0.40918,-0.7462 0,-0.2888 -0.17651,-0.5375 -0.52954,-0.7461 -0.35301,-0.2247 -0.89057,-0.4734 -1.61265,-0.7462 -0.56163,-0.2086 -1.07511,-0.4252 -1.54045,-0.6499 -0.4493,-0.2246 -0.83442,-0.4893 -1.15534,-0.7943 -0.32092,-0.3208 -0.56965,-0.6979 -0.74616,-1.1312 -0.17651,-0.4333 -0.26476,-0.9547 -0.26476,-1.5646 0,-1.1873 0.44127,-2.1261 1.32382,-2.8161 0.88255,-0.69 2.09405,-1.035 3.63451,-1.035 0.77021,0 1.50834,0.072 2.21439,0.2167 0.70603,0.1283 1.26765,0.2728 1.68488,0.4332 l -0.62582,2.7921 c -0.41721,-0.1444 -0.87453,-0.2728 -1.37196,-0.3851 -0.48139,-0.1123 -1.02697,-0.1685 -1.63673,-0.1685 -1.12325,0 -1.68487,0.3129 -1.68486,0.9387 -1e-5,0.1444 0.0241,0.2728 0.0722,0.385 0.0481,0.1124 0.1444,0.2248 0.28882,0.3371 0.14442,0.096 0.33697,0.2086 0.57768,0.3369 0.25673,0.1124 0.57766,0.2408 0.96278,0.3851 0.78627,0.2889 1.43614,0.5778 1.94963,0.8666 0.51347,0.2728 0.91463,0.5777 1.20349,0.9145 0.30486,0.3211 0.51346,0.6821 0.6258,1.0833 0.12836,0.4011 0.19255,0.8665 0.19255,1.396 0,1.2516 -0.47337,2.1983 -1.42009,2.8402 -0.9307,0.6419 -2.25453,0.9627 -3.97148,0.9627 -1.12325,0 -2.06197,-0.096 -2.81614,-0.2888 -0.73814,-0.1926 -1.25162,-0.353 -1.54045,-0.4813 l 0.60174,-2.9125 c 0.60976,0.2407 1.23556,0.4333 1.87742,0.5777 0.64186,0.1284 1.27568,0.1925 1.9015,0.1925" />
    <path
       inkscape:connector-curvature="0"
       id="path3080"
       style="font-size:31.46346474px;font-style:normal;font-variant:normal;font-weight:bold;font-stretch:normal;line-height:125%;letter-spacing:0px;word-spacing:0px;fill:#000000;fill-opacity:1;stroke:none;font-family:Ubuntu;-inkscape-font-specification:Ubuntu Bold"
       d="m 227.40461,1041.7927 -3.58636,0 0,-12.6606 3.58636,0 0,12.6606 m 0.33697,-16.3192 c 0,0.6579 -0.21663,1.1795 -0.64988,1.5646 -0.4172,0.3691 -0.91464,0.5535 -1.49231,0.5535 -0.57767,0 -1.08313,-0.1844 -1.51638,-0.5535 -0.4172,-0.3851 -0.62581,-0.9067 -0.62581,-1.5646 0,-0.6579 0.20861,-1.1713 0.62581,-1.5404 0.43325,-0.3851 0.93871,-0.5777 1.51638,-0.5777 0.57767,0 1.07511,0.1926 1.49231,0.5777 0.43325,0.3691 0.64988,0.8825 0.64988,1.5404" />
    <path
       inkscape:connector-curvature="0"
       id="path3082"
       style="font-size:31.46346474px;font-style:normal;font-variant:normal;font-weight:bold;font-stretch:normal;line-height:125%;letter-spacing:0px;word-spacing:0px;fill:#000000;fill-opacity:1;stroke:none;font-family:Ubuntu;-inkscape-font-specification:Ubuntu Bold"
       d="m 235.63268,1035.0532 c 0,2.0058 0.81034,3.0087 2.43103,3.0087 0.36906,0 0.71405,-0.048 1.03499,-0.1444 0.32092,-0.096 0.59371,-0.2086 0.81837,-0.337 l 0,-5.7285 c -0.17653,-0.032 -0.38513,-0.056 -0.62581,-0.072 -0.24071,-0.032 -0.52152,-0.049 -0.84244,-0.049 -0.94674,0 -1.65278,0.3129 -2.11811,0.9388 -0.46536,0.6257 -0.69803,1.42 -0.69803,2.3827 m 7.87075,5.151 c -1e-5,2.07 -0.52955,3.6024 -1.58859,4.5972 -1.04303,1.011 -2.63964,1.2663 -4.83799,1.2663 l -13.28018,0 -0.002,-2.925 13.28165,0 c 1.02695,0 1.77311,-0.082 2.19031,-0.5315 0.43324,-0.4493 0.64987,-1.027 0.64989,-1.7331 l 0,-0.4573 c -0.38513,0.1765 -0.78629,0.3129 -1.20349,0.4092 -0.40117,0.08 -0.84244,0.1204 -1.32382,0.1204 -1.74906,0 -3.08892,-0.5136 -4.01961,-1.5405 -0.9307,-1.0431 -1.39604,-2.4952 -1.39604,-4.3567 0,-0.9306 0.14441,-1.7731 0.43325,-2.5272 0.28883,-0.7702 0.70604,-1.4281 1.25162,-1.9737 0.56162,-0.5456 1.24359,-0.9627 2.04591,-1.2516 0.80231,-0.3048 1.70894,-0.4573 2.71986,-0.4573 0.43324,0 0.87451,0.023 1.32382,0.072 0.46534,0.032 0.92266,0.08 1.37197,0.1444 0.44928,0.064 0.87452,0.1443 1.27569,0.2407 0.41718,0.08 0.78626,0.1684 1.1072,0.2647 l 0,10.6387"
       sodipodi:nodetypes="csccccsccccccccccccscscccsccccc" />
    <path
       inkscape:connector-curvature="0"
       id="path3085"
       style="font-size:31.46346474px;font-style:normal;font-variant:normal;font-weight:bold;font-stretch:normal;line-height:125%;letter-spacing:0px;word-spacing:0px;fill:#000000;fill-opacity:1;stroke:none;font-family:Ubuntu;-inkscape-font-specification:Ubuntu Bold"
       d="m 248.66715,1029.5654 c 0.60976,-0.1765 1.39603,-0.337 2.35882,-0.4815 0.96277,-0.1603 1.97369,-0.2406 3.03276,-0.2406 1.07509,0 1.96567,0.1444 2.67172,0.4332 0.72208,0.2728 1.29171,0.666 1.70893,1.1794 0.41719,0.5135 0.71405,1.1233 0.89057,1.8293 0.1765,0.7061 0.26476,1.4923 0.26477,2.3589 l 0,7.1486 -3.58636,0 0,-6.7154 c -10e-6,-1.1553 -0.15245,-1.9737 -0.45732,-2.4551 -0.30489,-0.4814 -0.87455,-0.7222 -1.70894,-0.7222 -0.25675,0 -0.52954,0.016 -0.81837,0.049 -0.28884,0.016 -0.54558,0.04 -0.77022,0.072 l 0,9.7723 -3.58636,0 0,-12.2273" />
    <path
       inkscape:connector-curvature="0"
       id="path3087"
       style="font-size:31.46346474px;font-style:normal;font-variant:normal;font-weight:bold;font-stretch:normal;line-height:125%;letter-spacing:0px;word-spacing:0px;fill:#000000;fill-opacity:1;stroke:none;font-family:Ubuntu;-inkscape-font-specification:Ubuntu Bold"
       d="m 264.06268,1035.5587 c 0,-1.1233 0.16848,-2.1021 0.50547,-2.9365 0.35302,-0.8505 0.81033,-1.5565 1.37195,-2.1181 0.56163,-0.5616 1.20348,-0.9868 1.92557,-1.2757 0.73813,-0.2889 1.49231,-0.4333 2.26255,-0.4333 1.79718,0 3.21728,0.5536 4.2603,1.6608 1.043,1.0913 1.56451,2.7039 1.56451,4.838 0,0.2087 -0.008,0.4413 -0.0241,0.698 -0.016,0.2407 -0.0321,0.4574 -0.0481,0.6499 l -8.1355,0 c 0.0802,0.7382 0.42522,1.3238 1.03499,1.7571 0.60976,0.4332 1.42812,0.6498 2.45509,0.6498 0.65789,0 1.29976,-0.056 1.92557,-0.1684 0.64184,-0.1284 1.16335,-0.2808 1.56452,-0.4573 l 0.4814,2.9124 c -0.19258,0.096 -0.44932,0.1925 -0.77023,0.2888 -0.32094,0.096 -0.68198,0.1765 -1.08313,0.2407 -0.38512,0.08 -0.80233,0.1444 -1.25162,0.1925 -0.4493,0.049 -0.8986,0.072 -1.34789,0.072 -1.1393,0 -2.13417,-0.1684 -2.98463,-0.5054 -0.83441,-0.337 -1.53243,-0.7942 -2.09405,-1.372 -0.54557,-0.5937 -0.95476,-1.2917 -1.22754,-2.0941 -0.25674,-0.8022 -0.38512,-1.6688 -0.38512,-2.5995 m 8.42434,-1.3719 c -0.0161,-0.3049 -0.0722,-0.6018 -0.16849,-0.8906 -0.0802,-0.2888 -0.21663,-0.5455 -0.40917,-0.7702 -0.17652,-0.2247 -0.4092,-0.4092 -0.69802,-0.5537 -0.27279,-0.1443 -0.61779,-0.2165 -1.03499,-0.2166 -0.40117,10e-5 -0.74616,0.072 -1.035,0.2166 -0.28883,0.1285 -0.52953,0.305 -0.72207,0.5296 -0.19258,0.2247 -0.34501,0.4894 -0.45733,0.7943 -0.0963,0.2888 -0.1685,0.5857 -0.21663,0.8906 l 4.7417,0" />
    <path
       inkscape:connector-curvature="0"
       id="path3089"
       style="font-size:31.46346474px;font-style:normal;font-variant:normal;font-weight:bold;font-stretch:normal;line-height:125%;letter-spacing:0px;word-spacing:0px;fill:#000000;fill-opacity:1;stroke:none;font-family:Ubuntu;-inkscape-font-specification:Ubuntu Bold"
       d="m 288.15072,1032.3093 c -0.32094,-0.08 -0.69804,-0.1604 -1.13128,-0.2407 -0.43326,-0.096 -0.8986,-0.1444 -1.39603,-0.1444 -0.22466,0 -0.49744,0.024 -0.81836,0.072 -0.30489,0.032 -0.53756,0.072 -0.69803,0.1203 l 0,9.676 -3.58636,0 0,-11.9867 c 0.64186,-0.2246 1.39603,-0.4332 2.26255,-0.6257 0.88254,-0.2087 1.86137,-0.313 2.93648,-0.313 0.19255,0 0.42522,0.016 0.69801,0.048 0.27278,0.016 0.54558,0.049 0.81837,0.096 0.27278,0.032 0.54556,0.08 0.81836,0.1445 0.27278,0.049 0.50545,0.1123 0.69803,0.1926 l -0.60174,2.9605" />
    <path
       inkscape:connector-curvature="0"
       id="path3091"
       style="font-size:31.46346474px;font-style:normal;font-variant:normal;font-weight:bold;font-stretch:normal;line-height:125%;letter-spacing:0px;word-spacing:0px;fill:#000000;fill-opacity:1;stroke:none;font-family:Ubuntu;-inkscape-font-specification:Ubuntu Bold"
       d="m 310.3591,1025.1124 3.75485,0 0,18.0304 16.13514,0 -0.002,2.925 -16.1334,0 -3.75485,0 0,-8.8651 -6.30622,0 0,8.8651 -3.75485,0 0,-20.9554 3.75485,0 0,8.8649 6.30622,0 0,-8.8649"
       sodipodi:nodetypes="cccccccccccccccc" />
    <path
       inkscape:connector-curvature="0"
       id="path3093"
       style="font-size:31.46346474px;font-style:normal;font-variant:normal;font-weight:bold;font-stretch:normal;line-height:125%;letter-spacing:0px;word-spacing:0px;fill:#000000;fill-opacity:1;stroke:none;font-family:Ubuntu;-inkscape-font-specification:Ubuntu Bold"
       d="m 330.34064,1041.3595 c -0.60977,0.1765 -1.39604,0.337 -2.35881,0.4813 -0.9628,0.1605 -1.97371,0.2408 -3.03276,0.2408 -1.07512,0 -1.97371,-0.1445 -2.6958,-0.4334 -0.70604,-0.2887 -1.26766,-0.6899 -1.68486,-1.2034 -0.41721,-0.5295 -0.71407,-1.1554 -0.89058,-1.8775 -0.17651,-0.722 -0.26476,-1.5163 -0.26476,-2.3828 l 0,-7.0524 3.58637,0 0,6.6191 c -10e-6,1.1554 0.15243,1.9898 0.45731,2.5033 0.30488,0.5134 0.87452,0.7702 1.70894,0.7702 0.25673,0 0.52952,-0.01 0.81837,-0.023 0.28882,-0.032 0.54556,-0.064 0.77022,-0.096 l 0,-9.7723 3.58636,0 0,12.2274" />
    <path
       inkscape:connector-curvature="0"
       id="path3095"
       style="font-size:31.46346474px;font-style:normal;font-variant:normal;font-weight:bold;font-stretch:normal;line-height:125%;letter-spacing:0px;word-spacing:0px;fill:#000000;fill-opacity:1;stroke:none;font-family:Ubuntu;-inkscape-font-specification:Ubuntu Bold"
       d="m 342.48679,1035.0773 c 0,-1.1553 -0.15245,-1.9737 -0.45731,-2.4551 -0.28886,-0.4814 -0.79432,-0.7222 -1.51639,-0.7222 -0.22465,0 -0.45733,0.016 -0.69802,0.049 -0.2407,0.016 -0.47337,0.04 -0.69801,0.072 l 0,9.7723 -3.58637,0 0,-12.2273 c 0.30488,-0.08 0.6579,-0.1605 1.05906,-0.2407 0.41721,-0.096 0.85046,-0.1765 1.29975,-0.2407 0.46535,-0.08 0.93871,-0.1364 1.42011,-0.1685 0.48139,-0.049 0.95476,-0.072 1.42011,-0.072 0.91463,0 1.65276,0.1204 2.2144,0.361 0.57766,0.2248 1.05102,0.4975 1.42009,0.8184 0.51348,-0.369 1.09917,-0.6579 1.75708,-0.8665 0.67394,-0.2086 1.29173,-0.3129 1.85336,-0.3129 1.01091,0 1.83729,0.1445 2.47917,0.4333 0.65788,0.2728 1.17938,0.6659 1.56451,1.1794 0.3851,0.5135 0.64986,1.1232 0.7943,1.8292 0.1444,0.7061 0.2166,1.4924 0.21663,2.3589 l 0,7.1486 -3.58637,0 0,-6.7154 c -10e-6,-1.1553 -0.15246,-1.9737 -0.45731,-2.4551 -0.28886,-0.4814 -0.79432,-0.7221 -1.51639,-0.7221 -0.19257,0 -0.46536,0.049 -0.81837,0.1444 -0.33698,0.096 -0.61779,0.2167 -0.84243,0.3611 0.11231,0.369 0.18452,0.7622 0.21663,1.1795 0.032,0.4011 0.0482,0.8343 0.0482,1.2997 l 0,6.9079 -3.58637,0 0,-6.7154" />
    <path
       inkscape:connector-curvature="0"
       id="path3097"
       style="font-size:31.46346474px;font-style:normal;font-variant:normal;font-weight:bold;font-stretch:normal;line-height:125%;letter-spacing:0px;word-spacing:0px;fill:#000000;fill-opacity:1;stroke:none;font-family:Ubuntu;-inkscape-font-specification:Ubuntu Bold"
       d="m 362.90046,1039.2894 c 0.35301,0 0.68998,-0.01 1.01092,-0.023 0.32092,-0.016 0.57766,-0.04 0.77022,-0.072 l 0,-2.7199 c -0.14443,-0.032 -0.36105,-0.064 -0.64988,-0.096 -0.28883,-0.032 -0.5536,-0.049 -0.79429,-0.049 -0.33698,0 -0.6579,0.024 -0.96278,0.072 -0.28884,0.032 -0.54559,0.1043 -0.77023,0.2167 -0.22465,0.1123 -0.40116,0.2647 -0.52953,0.4573 -0.12837,0.1925 -0.19255,0.4332 -0.19255,0.7221 0,0.5616 0.18452,0.9547 0.5536,1.1794 0.38511,0.2086 0.90661,0.3129 1.56452,0.3129 m -0.28884,-10.4944 c 1.05906,10e-5 1.94161,0.1204 2.64766,0.3611 0.70602,0.2407 1.26765,0.5857 1.68486,1.035 0.43324,0.4494 0.73813,0.9949 0.91464,1.6367 0.1765,0.6419 0.26476,1.356 0.26477,2.1422 l 0,7.4617 c -0.51349,0.1122 -1.22756,0.2406 -2.14219,0.385 -0.91465,0.1604 -2.02185,0.2407 -3.32161,0.2407 -0.81836,0 -1.56452,-0.072 -2.23846,-0.2167 -0.6579,-0.1444 -1.22754,-0.377 -1.70894,-0.6979 -0.48139,-0.337 -0.85046,-0.7703 -1.10719,-1.2998 -0.25675,-0.5295 -0.38511,-1.1794 -0.38511,-1.9497 0,-0.738 0.14441,-1.3639 0.43324,-1.8773 0.30488,-0.5135 0.70604,-0.9227 1.20349,-1.2276 0.49743,-0.3049 1.06707,-0.5216 1.70893,-0.6499 0.64185,-0.1444 1.30778,-0.2166 1.99777,-0.2166 0.46535,0 0.87452,0.023 1.22756,0.072 0.36905,0.032 0.66591,0.08 0.89056,0.1443 l 0,-0.3369 c 0,-0.6097 -0.18454,-1.0992 -0.55359,-1.4682 -0.36908,-0.3691 -1.01094,-0.5536 -1.92557,-0.5536 -0.60976,0 -1.21151,0.048 -1.80521,0.1444 -0.59372,0.08 -1.1072,0.2006 -1.54045,0.361 l -0.45733,-2.8883 c 0.2086,-0.064 0.46535,-0.1284 0.77022,-0.1926 0.32093,-0.08 0.66593,-0.1444 1.03499,-0.1925 0.36907,-0.064 0.75418,-0.1123 1.15535,-0.1445 0.4172,-0.048 0.8344,-0.072 1.25161,-0.072" />
    <path
       inkscape:connector-curvature="0"
       id="path3099"
       style="font-size:31.46346474px;font-style:normal;font-variant:normal;font-weight:bold;font-stretch:normal;line-height:125%;letter-spacing:0px;word-spacing:0px;fill:#000000;fill-opacity:1;stroke:none;font-family:Ubuntu;-inkscape-font-specification:Ubuntu Bold"
       d="m 373.16653,1029.5654 c 0.60976,-0.1765 1.39604,-0.337 2.35882,-0.4815 0.96278,-0.1603 1.9737,-0.2406 3.03277,-0.2406 1.0751,0 1.96566,0.1444 2.67171,0.4332 0.72208,0.2728 1.29173,0.666 1.70895,1.1794 0.41718,0.5135 0.71405,1.1233 0.89057,1.8293 0.1765,0.7061 0.26475,1.4923 0.26477,2.3589 l 0,7.1486 -3.58637,0 0,-6.7154 c -10e-6,-1.1553 -0.15245,-1.9737 -0.45732,-2.4551 -0.30489,-0.4814 -0.87453,-0.7222 -1.70893,-0.7222 -0.25675,0 -0.52954,0.016 -0.81837,0.049 -0.28885,0.016 -0.54558,0.04 -0.77023,0.072 l 0,9.7723 -3.58637,0 0,-12.2273" />
    <path
       inkscape:connector-curvature="0"
       id="path3101"
       style="font-size:31.46346474px;font-style:normal;font-variant:normal;font-weight:bold;font-stretch:normal;line-height:125%;letter-spacing:0px;word-spacing:0px;fill:#000000;fill-opacity:1;stroke:none;font-family:Ubuntu;-inkscape-font-specification:Ubuntu Bold"
       d="m 392.67797,1039.8912 c -1e-5,0.7221 -0.23267,1.2757 -0.69802,1.6608 -0.44929,0.369 -0.96278,0.5536 -1.54045,0.5536 -0.57767,0 -1.09918,-0.1846 -1.56452,-0.5536 -0.4493,-0.3851 -0.67395,-0.9387 -0.67395,-1.6608 0,-0.7221 0.22465,-1.2677 0.67395,-1.6367 0.46534,-0.3851 0.98685,-0.5777 1.56452,-0.5777 0.57767,0 1.09116,0.1926 1.54045,0.5777 0.46535,0.369 0.69801,0.9146 0.69802,1.6367" />
    <path
       inkscape:connector-curvature="0"
       id="path3103"
       style="font-size:31.46346474px;font-style:normal;font-variant:normal;font-weight:bold;font-stretch:normal;line-height:125%;letter-spacing:0px;word-spacing:0px;fill:#000000;fill-opacity:1;stroke:none;font-family:Ubuntu;-inkscape-font-specification:Ubuntu Bold"
       d="m 398.60133,1039.8912 c -1e-5,0.7221 -0.23268,1.2757 -0.69802,1.6608 -0.4493,0.369 -0.96278,0.5536 -1.54045,0.5536 -0.57768,0 -1.09918,-0.1846 -1.56453,-0.5536 -0.4493,-0.3851 -0.67394,-0.9387 -0.67394,-1.6608 0,-0.7221 0.22464,-1.2677 0.67394,-1.6367 0.46536,-0.3851 0.98685,-0.5777 1.56453,-0.5777 0.57767,0 1.09115,0.1926 1.54045,0.5777 0.46534,0.369 0.69801,0.9146 0.69802,1.6367" />
    <path
       inkscape:connector-curvature="0"
       id="path3105"
       style="font-size:31.46346474px;font-style:normal;font-variant:normal;font-weight:bold;font-stretch:normal;line-height:125%;letter-spacing:0px;word-spacing:0px;fill:#000000;fill-opacity:1;stroke:none;font-family:Ubuntu;-inkscape-font-specification:Ubuntu Bold"
       d="m 404.5247,1039.8912 c 0,0.7221 -0.23266,1.2757 -0.69801,1.6608 -0.4493,0.369 -0.96278,0.5536 -1.54045,0.5536 -0.57767,0 -1.09918,-0.1846 -1.56451,-0.5536 -0.44931,-0.3851 -0.67396,-0.9387 -0.67396,-1.6608 0,-0.7221 0.22465,-1.2677 0.67396,-1.6367 0.46533,-0.3851 0.98684,-0.5777 1.56451,-0.5777 0.57767,0 1.09115,0.1926 1.54045,0.5777 0.46534,0.369 0.69801,0.9146 0.69801,1.6367" />
  </g>
</svg>
