<?xml version="1.0" encoding="UTF-8" standalone="no"?>
<!-- Created with Inkscape (http://www.inkscape.org/) -->

<svg
   xmlns:dc="http://purl.org/dc/elements/1.1/"
   xmlns:cc="http://creativecommons.org/ns#"
   xmlns:rdf="http://www.w3.org/1999/02/22-rdf-syntax-ns#"
   xmlns:svg="http://www.w3.org/2000/svg"
   xmlns="http://www.w3.org/2000/svg"
   xmlns:sodipodi="http://sodipodi.sourceforge.net/DTD/sodipodi-0.dtd"
   xmlns:inkscape="http://www.inkscape.org/namespaces/inkscape"
   width="430"
   height="34"
   id="svg2"
   version="1.1"
   inkscape:version="0.48.3.1 r9886"
   sodipodi:docname="adh.svg">
  <defs
     id="defs4" />
  <sodipodi:namedview
     id="base"
     pagecolor="#ffffff"
     bordercolor="#666666"
     borderopacity="1.0"
     inkscape:pageopacity="0.0"
     inkscape:pageshadow="2"
     inkscape:zoom="1.88027"
     inkscape:cx="323.58552"
     inkscape:cy="97.909466"
     inkscape:document-units="px"
     inkscape:current-layer="layer1"
     showgrid="false"
     showguides="true"
     inkscape:guide-bbox="true"
     inkscape:window-width="1631"
     inkscape:window-height="1002"
     inkscape:window-x="49"
     inkscape:window-y="24"
     inkscape:window-maximized="1">
    <sodipodi:guide
       orientation="0,1"
       position="29.351563,14.667969"
       id="guide3057" />
  </sodipodi:namedview>
  <metadata
     id="metadata7">
    <rdf:RDF>
      <cc:Work
         rdf:about="">
        <dc:format>image/svg+xml</dc:format>
        <dc:type
           rdf:resource="http://purl.org/dc/dcmitype/StillImage" />
        <dc:title></dc:title>
      </cc:Work>
    </rdf:RDF>
  </metadata>
  <g
     inkscape:label="Layer 1"
     inkscape:groupmode="layer"
     id="layer1"
     transform="translate(0,-1018.3622)">
    <path
       inkscape:connector-curvature="0"
       id="path3819"
       style="font-size:30px;font-style:normal;font-variant:normal;font-weight:bold;font-stretch:normal;text-align:start;line-height:125%;letter-spacing:0px;word-spacing:0px;writing-mode:lr-tb;text-anchor:start;fill:#ffffff;fill-opacity:1;stroke:none;font-family:Ubuntu;-inkscape-font-specification:Ubuntu Bold"
       d="m 29.374257,1039.4603 c -0.152372,-0.5564 -0.325503,-1.1281 -0.519392,-1.7154 -0.180078,-0.5872 -0.360131,-1.1744 -0.540176,-1.7616 l -5.609496,0 c -0.180062,0.5872 -0.367045,1.1744 -0.560951,1.7616 -0.180062,0.5873 -0.34627,1.1591 -0.498618,1.7154 l -3.365694,0 c 0.540167,-1.7308 1.052645,-3.5124 1.537409,-4.9806 0.484773,-1.468 0.955693,-3.2416 1.412768,-4.5398 0.470912,-1.298 0.927979,-2.8241 1.37121,-3.9831 0.45706,-1.1746 0.927979,-2.5522 1.412761,-3.665 l 3.09561,0 c 0.470912,1.1128 0.934909,2.4904 1.391985,3.665 0.45705,1.159 0.914126,2.6851 1.371209,3.9831 0.470904,1.2981 0.948755,3.0718 1.433535,4.5398 0.484756,1.4682 0.997226,3.2498 1.537418,4.9806 l -3.469578,0 m -3.885095,-13.5291 c -0.06922,0.2318 -0.173139,0.6378 -0.311633,1.0396 -0.138512,0.4018 -0.297798,1.2558 -0.477851,1.7812 -0.180062,0.5255 -0.380898,1.4174 -0.6025,2.051 -0.207767,0.6335 -0.422448,1.6104 -0.644051,2.3059 l 4.092853,0 c -0.221619,-0.6955 -0.4363,-1.6724 -0.64405,-2.3059 -0.207767,-0.6336 -0.408603,-1.5255 -0.602501,-2.051 -0.180069,-0.5253 -0.339348,-1.3794 -0.47785,-1.7812 -0.138511,-0.4018 -0.249317,-0.8078 -0.332417,-1.0396"
       sodipodi:nodetypes="cccccccsccccccccccccccccccc" />
    <path
       inkscape:connector-curvature="0"
       id="path3821"
       style="font-size:30px;font-style:normal;font-variant:normal;font-weight:bold;font-stretch:normal;text-align:start;line-height:125%;letter-spacing:0px;word-spacing:0px;writing-mode:lr-tb;text-anchor:start;fill:#ffffff;fill-opacity:1;stroke:none;font-family:Ubuntu;-inkscape-font-specification:Ubuntu Bold"
       d="m 43.461212,1028.9489 c 0,-0.9557 -0.214688,-1.7175 -0.64405,-2.2853 -0.429378,-0.5818 -1.066506,-0.8726 -1.911385,-0.8727 -0.277006,10e-5 -0.533245,0.014 -0.768709,0.042 -0.235456,0.014 -0.429362,0.035 -0.581726,0.063 l 0,5.5888 c 0.193914,0.1246 0.443223,0.2285 0.747934,0.3116 0.318565,0.083 0.637128,0.1247 0.955693,0.1247 1.468154,0 2.202243,-0.9903 2.202243,-2.971 m 3.157937,-0.083 c 0,0.845 -0.103883,1.6137 -0.311634,2.3061 -0.207766,0.6925 -0.512478,1.2881 -0.914143,1.7868 -0.401672,0.4986 -0.900297,0.8864 -1.495859,1.1634 -0.595587,0.277 -1.281187,0.4155 -2.056819,0.4155 -0.429378,0 -0.831034,-0.042 -1.205001,-0.1246 -0.373967,-0.083 -0.734081,-0.2008 -1.080351,-0.3532 l 0,2.6522 35.076526,0 -0.27069,2.7484 -41.854797,0 -1.223468,-2.7466 5.176851,0 0,-12.9381 c 0.277006,-0.083 0.59557,-0.1593 0.955693,-0.2285 0.360114,-0.083 0.734081,-0.1524 1.121892,-0.2077 0.401673,-0.055 0.803338,-0.097 1.205001,-0.1248 0.415526,-0.042 0.810268,-0.063 1.184227,-0.063 0.900289,0 1.703618,0.1385 2.410011,0.4154 0.706367,0.2633 1.301945,0.6442 1.786726,1.1428 0.484765,0.4848 0.851801,1.0803 1.101118,1.7866 0.263161,0.7064 0.394742,1.496 0.394742,2.3685"
       sodipodi:nodetypes="cccccccccccsssccccccccccccccccc" />
    <path
       inkscape:connector-curvature="0"
       id="path3823"
       style="font-size:30px;font-style:normal;font-variant:normal;font-weight:bold;font-stretch:normal;text-align:start;line-height:125%;letter-spacing:0px;word-spacing:0px;writing-mode:lr-tb;text-anchor:start;fill:#ffffff;fill-opacity:1;stroke:none;font-family:Ubuntu;-inkscape-font-specification:Ubuntu Bold"
       d="m 55.300484,1026.7259 2.160694,-3.3242 3.199486,0 -3.739661,5.2563 c 0.831034,1.0388 1.58589,2.0499 2.264577,3.0332 0.678669,0.9835 1.218845,1.863 1.620518,2.6386 l -3.324145,0 c -0.110814,-0.2078 -0.249317,-0.4639 -0.415517,-0.7687 -0.166217,-0.3185 -0.3532,-0.6441 -0.56095,-0.9764 -0.207767,-0.3463 -0.429379,-0.6857 -0.664827,-1.0181 -0.221619,-0.3462 -0.44323,-0.6579 -0.664833,-0.9349 -0.207767,0.2632 -0.422448,0.5541 -0.644051,0.8726 -0.207758,0.3186 -0.408595,0.644 -0.602501,0.9765 -0.193904,0.3185 -0.387819,0.637 -0.581725,0.9556 -0.180061,0.3186 -0.339338,0.6165 -0.47785,0.8934 l -3.157937,0 c 0.166209,-0.3462 0.394743,-0.7549 0.68561,-1.2258 0.290858,-0.4709 0.6025,-0.9557 0.934917,-1.4543 0.346261,-0.5124 0.706375,-1.018 1.080342,-1.5167 0.373967,-0.5124 0.741013,-0.9902 1.101126,-1.4334 -0.623275,-0.8726 -1.246559,-1.7521 -1.869834,-2.6386 -0.623276,-0.9003 -1.239629,-1.7868 -1.849052,-2.6593 l 3.344919,0 2.160694,3.3242" />
    <path
       inkscape:connector-curvature="0"
       id="path3825"
       style="font-size:30px;font-style:normal;font-variant:normal;font-weight:bold;font-stretch:normal;text-align:start;line-height:125%;letter-spacing:0px;word-spacing:0px;writing-mode:lr-tb;text-anchor:start;fill:#ffffff;fill-opacity:1;stroke:none;font-family:Ubuntu;-inkscape-font-specification:Ubuntu Bold"
       d="m 74.394112,1023.4017 0,10.9281 -3.116387,0 c 0,-0.6925 0.0067,-1.3781 0.02074,-2.0567 0.01383,-0.6926 0.02774,-1.3298 0.04157,-1.9114 0.01383,-0.5818 0.02765,-1.0873 0.04156,-1.5167 0.02774,-0.4432 0.04156,-0.7687 0.04156,-0.9765 -0.401672,0.5679 -0.803336,1.1426 -1.205001,1.7245 -0.401672,0.5816 -0.789492,1.1564 -1.163451,1.7244 -0.360122,0.554 -0.706384,1.0872 -1.038792,1.5996 -0.318574,0.5125 -0.60251,0.9835 -0.851818,1.4128 l -2.721635,0 0,-10.9281 3.095602,0 c -9e-6,0.6925 -0.0067,1.3573 -0.02075,1.9945 -8e-6,0.6233 -0.0067,1.1911 -0.02074,1.7036 -0.01383,0.5125 -0.02774,0.9626 -0.04156,1.3505 -0.01383,0.3739 -0.02075,0.6647 -0.02075,0.8725 0.831026,-1.2188 1.592813,-2.313 2.285344,-3.2826 0.706376,-0.9695 1.391985,-1.849 2.056819,-2.6385 l 2.61776,0" />
    <path
       inkscape:connector-curvature="0"
       id="path3827"
       style="font-size:30px;font-style:normal;font-variant:normal;font-weight:bold;font-stretch:normal;text-align:start;line-height:125%;letter-spacing:0px;word-spacing:0px;writing-mode:lr-tb;text-anchor:start;fill:#ffffff;fill-opacity:1;stroke:none;font-family:Ubuntu;-inkscape-font-specification:Ubuntu Bold"
       d="m 88.30318,1025.9363 -3.490353,0 0,8.3935 -3.095611,0 0,-8.3935 -3.490346,0 0,-2.5346 10.07631,0 0,2.5346" />
    <path
       inkscape:connector-curvature="0"
       id="path3829"
       style="font-size:30px;font-style:normal;font-variant:normal;font-weight:bold;font-stretch:normal;text-align:start;line-height:125%;letter-spacing:0px;word-spacing:0px;writing-mode:lr-tb;text-anchor:start;fill:#ffffff;fill-opacity:1;stroke:none;font-family:Ubuntu;-inkscape-font-specification:Ubuntu Bold"
       d="m 91.621728,1028.9489 c -8e-6,-0.9695 0.145425,-1.8145 0.436301,-2.5347 0.304703,-0.7341 0.699444,-1.3435 1.184217,-1.8282 0.484772,-0.4849 1.038793,-0.8519 1.662068,-1.1012 0.637128,-0.2493 1.28811,-0.3739 1.952944,-0.374 1.551254,10e-5 2.77703,0.4779 3.677332,1.4336 0.90028,0.9418 1.35042,2.3338 1.35044,4.1759 -2e-5,0.1801 -0.007,0.3809 -0.0207,0.6025 -0.0138,0.2077 -0.0277,0.3947 -0.0416,0.5609 l -7.022248,0 c 0.06922,0.6372 0.367037,1.1427 0.893368,1.5167 0.526314,0.374 1.232698,0.5609 2.119143,0.5609 0.567857,0 1.121885,-0.048 1.662061,-0.1454 0.554016,-0.1108 1.004166,-0.2423 1.350436,-0.3946 l 0.41552,2.5138 c -0.16621,0.083 -0.38782,0.1663 -0.66483,0.2493 -0.27702,0.083 -0.588657,0.1524 -0.934918,0.2077 -0.332417,0.07 -0.692531,0.1247 -1.080342,0.1662 -0.387828,0.042 -0.77564,0.063 -1.163451,0.063 -0.983399,0 -1.84213,-0.1455 -2.576212,-0.4363 -0.720236,-0.291 -1.322737,-0.6856 -1.807501,-1.1843 -0.470928,-0.5124 -0.824112,-1.1149 -1.059576,-1.8075 -0.221611,-0.6925 -0.332417,-1.4405 -0.332409,-2.2438 m 7.271566,-1.1842 c -0.01383,-0.2632 -0.06231,-0.5194 -0.145434,-0.7687 -0.06922,-0.2493 -0.186992,-0.4709 -0.353192,-0.6649 -0.152364,-0.1939 -0.3532,-0.3532 -0.6025,-0.4778 -0.235465,-0.1247 -0.533254,-0.187 -0.89336,-0.187 -0.34627,0 -0.644059,0.063 -0.893368,0.187 -0.249316,0.1108 -0.457075,0.2632 -0.623284,0.4571 -0.1662,0.1939 -0.29778,0.4224 -0.394742,0.6856 -0.08313,0.2493 -0.145425,0.5055 -0.186975,0.7687 l 4.092855,0" />
    <path
       inkscape:connector-curvature="0"
       id="path3831"
       style="font-size:30px;font-style:normal;font-variant:normal;font-weight:bold;font-stretch:normal;text-align:start;line-height:125%;letter-spacing:0px;word-spacing:0px;writing-mode:lr-tb;text-anchor:start;fill:#ffffff;fill-opacity:1;stroke:none;font-family:Ubuntu;-inkscape-font-specification:Ubuntu Bold"
       d="m 109.32954,1027.2245 c 0.30471,-0.2909 0.62327,-0.6095 0.95569,-0.9557 0.34626,-0.3463 0.67868,-0.6857 0.99725,-1.018 0.31856,-0.3463 0.62327,-0.6788 0.91413,-0.9973 0.29086,-0.3186 0.54709,-0.6025 0.76872,-0.8518 l 3.76043,0 c -0.27702,0.2909 -0.6233,0.6509 -1.0388,1.0803 -0.40167,0.4294 -0.83105,0.8795 -1.2881,1.3504 -0.45709,0.4571 -0.92107,0.9142 -1.39199,1.3712 -0.45707,0.4571 -0.89337,0.8658 -1.30887,1.2258 0.4155,0.3186 0.85872,0.7134 1.32964,1.1843 0.47091,0.4709 0.92798,0.9764 1.37122,1.5166 0.45705,0.5403 0.88643,1.0874 1.2881,1.6413 0.4155,0.554 0.76869,1.0735 1.05958,1.5582 l -3.53191,0 c -0.24932,-0.374 -0.53326,-0.7618 -0.85181,-1.1635 -0.31857,-0.4155 -0.65098,-0.8171 -0.99724,-1.205 -0.34627,-0.4017 -0.69946,-0.7755 -1.05957,-1.1219 -0.34628,-0.3462 -0.67176,-0.6439 -0.97647,-0.8932 l 0,4.3836 -3.09561,0 0,-10.9281 3.09561,0 0,3.8228" />
    <path
       inkscape:connector-curvature="0"
       id="path3833"
       style="font-size:30px;font-style:normal;font-variant:normal;font-weight:bold;font-stretch:normal;text-align:start;line-height:125%;letter-spacing:0px;word-spacing:0px;writing-mode:lr-tb;text-anchor:start;fill:#ffffff;fill-opacity:1;stroke:none;font-family:Ubuntu;-inkscape-font-specification:Ubuntu Bold"
       d="m 129.8106,1025.9363 -3.49034,0 0,8.3935 -3.09562,0 0,-8.3935 -3.49035,0 0,-2.5346 10.07631,0 0,2.5346" />
    <path
       inkscape:connector-curvature="0"
       id="path3835"
       style="font-size:30px;font-style:normal;font-variant:normal;font-weight:bold;font-stretch:normal;text-align:start;line-height:125%;letter-spacing:0px;word-spacing:0px;writing-mode:lr-tb;text-anchor:start;fill:#ffffff;fill-opacity:1;stroke:none;font-family:Ubuntu;-inkscape-font-specification:Ubuntu Bold"
       d="m 143.8703,1028.845 c -2e-5,0.8587 -0.12466,1.6482 -0.37397,2.3685 -0.24933,0.7064 -0.60944,1.3157 -1.08034,1.8283 -0.47094,0.4986 -1.03881,0.8863 -1.70363,1.1634 -0.65099,0.277 -1.38506,0.4155 -2.20224,0.4155 -0.80334,0 -1.53743,-0.1385 -2.20225,-0.4155 -0.65099,-0.2771 -1.21194,-0.6648 -1.68285,-1.1634 -0.47093,-0.5126 -0.83796,-1.1219 -1.10113,-1.8283 -0.26316,-0.7203 -0.39473,-1.5098 -0.39473,-2.3685 0,-0.8587 0.13157,-1.6414 0.39473,-2.3478 0.27702,-0.7063 0.65098,-1.3087 1.12191,-1.8074 0.48476,-0.4986 1.05263,-0.8865 1.70363,-1.1634 0.66481,-0.2771 1.38504,-0.4155 2.16069,-0.4156 0.78947,10e-5 1.5097,0.1385 2.1607,0.4156 0.6648,0.2769 1.23268,0.6648 1.70361,1.1634 0.47091,0.4987 0.83795,1.1012 1.10113,1.8074 0.26314,0.7064 0.39472,1.4891 0.39474,2.3478 m -3.15794,0 c -1e-5,-0.9557 -0.19391,-1.7036 -0.58172,-2.2439 -0.37398,-0.5539 -0.91415,-0.8309 -1.62052,-0.8309 -0.70639,0 -1.2535,0.277 -1.6413,0.8309 -0.38783,0.5403 -0.58174,1.2882 -0.58173,2.2439 -1e-5,0.9557 0.1939,1.7175 0.58173,2.2853 0.3878,0.5541 0.93491,0.831 1.6413,0.831 0.70637,0 1.24654,-0.2769 1.62052,-0.831 0.38781,-0.5678 0.58171,-1.3296 0.58172,-2.2853" />
    <path
       inkscape:connector-curvature="0"
       id="path3837"
       style="font-size:30px;font-style:normal;font-variant:normal;font-weight:bold;font-stretch:normal;text-align:start;line-height:125%;letter-spacing:0px;word-spacing:0px;writing-mode:lr-tb;text-anchor:start;fill:#ffffff;fill-opacity:1;stroke:none;font-family:Ubuntu;-inkscape-font-specification:Ubuntu Bold"
       d="m 155.22977,1028.9489 c 0,-0.9557 -0.21469,-1.7175 -0.64406,-2.2853 -0.42937,-0.5818 -1.0665,-0.8726 -1.91138,-0.8727 -0.27701,10e-5 -0.53325,0.014 -0.7687,0.042 -0.23547,0.014 -0.42937,0.035 -0.58173,0.063 l 0,5.5888 c 0.19391,0.1246 0.44321,0.2285 0.74792,0.3116 0.31857,0.083 0.63713,0.1247 0.9557,0.1247 1.46816,0 2.20225,-0.9903 2.20225,-2.971 m 3.15794,-0.083 c -1e-5,0.845 -0.10389,1.6137 -0.31164,2.3061 -0.20777,0.6925 -0.51248,1.2881 -0.91415,1.7868 -0.40167,0.4986 -0.90028,0.8864 -1.49586,1.1634 -0.59558,0.277 -1.28118,0.4155 -2.05681,0.4155 -0.42938,0 -0.83104,-0.042 -1.20501,-0.1246 -0.37397,-0.083 -0.73408,-0.2008 -1.08034,-0.3532 l 0,5.3489 -3.04041,0 -0.0553,-2.687 0,-12.9457 c 0.27702,-0.083 0.59558,-0.1593 0.9557,-0.2286 0.36011,-0.083 0.73408,-0.1523 1.12189,-0.2077 0.40168,-0.055 0.80334,-0.097 1.20501,-0.1246 0.41552,-0.042 0.81026,-0.063 1.18422,-0.063 0.90029,0 1.70362,0.1386 2.41001,0.4155 0.70637,0.2631 1.30194,0.6441 1.78673,1.1427 0.48476,0.4847 0.8518,1.0803 1.10112,1.7867 0.26315,0.7064 0.39474,1.4959 0.39474,2.3685"
       sodipodi:nodetypes="cccccccccccssscccccccccccccc" />
    <path
       inkscape:connector-curvature="0"
       id="path3839"
       style="font-size:30px;font-style:normal;font-variant:normal;font-weight:bold;font-stretch:normal;text-align:start;line-height:125%;letter-spacing:0px;word-spacing:0px;writing-mode:lr-tb;text-anchor:start;fill:#ffffff;fill-opacity:1;stroke:none;font-family:Ubuntu;-inkscape-font-specification:Ubuntu Bold"
       d="m 163.25451,1036.1699 c 0.0276,0.3324 0.0416,0.5679 0.0416,0.7064 0.0138,0.1385 0.0208,0.2562 0.0208,0.3532 0,0.4154 -0.0416,0.8587 -0.12466,1.3296 -0.0692,0.4571 -0.17313,0.9211 -0.31163,1.392 -0.13852,0.471 -0.31164,0.9419 -0.5194,1.4127 -0.20776,0.471 -0.44322,0.9212 -0.70638,1.3505 l -2.43079,-0.6025 c 0.31857,-0.9142 0.54018,-1.7729 0.66484,-2.5762 0.12465,-0.8033 0.18699,-1.4682 0.18699,-1.9945 0,-0.083 -0.007,-0.187 -0.0208,-0.3116 0,-0.1385 -0.007,-0.2771 -0.0208,-0.4156 0,-0.1385 -0.007,-0.2701 -0.0208,-0.3946 0,-0.1248 0,-0.2078 0,-0.2494 l 3.24104,0" />
    <path
       inkscape:connector-curvature="0"
       id="path3841"
       style="font-size:30px;font-style:normal;font-variant:normal;font-weight:bold;font-stretch:normal;text-align:start;line-height:125%;letter-spacing:0px;word-spacing:0px;writing-mode:lr-tb;text-anchor:start;fill:#ffffff;fill-opacity:1;stroke:none;font-family:Ubuntu;-inkscape-font-specification:Ubuntu Bold"
       d="m 175.04393,1036.662 2.21962,0 c 0.51246,-0.8864 1.43476,-3.432 1.72563,-4.3044 0.29084,-0.8727 0.50553,-1.7591 0.64405,-2.6595 0.15235,-0.9002 0.24238,-1.8282 0.27008,-2.7839 0.0416,-0.9557 0.0623,-1.9599 0.0623,-3.0125 l 0,-1.6677 9.51536,0 0,14.428 16.57763,0 -0.35707,2.7424 -27.54124,0 0,3.8436 -2.81704,0 -0.29936,-6.586 m 7.97577,-11.6855 c -0.0277,0.7479 -0.0762,2.6233 -0.14543,3.4127 -0.0692,0.7896 -0.17314,1.5722 -0.31164,2.3478 -0.13851,0.7618 -0.32549,1.5097 -0.56095,2.2437 -0.22162,0.7203 -1.02618,3.0581 -1.37243,3.6813 l 5.69382,0 0,-11.6855 -3.30337,0"
       sodipodi:nodetypes="cccccsccccccccccccccccc" />
    <path
       inkscape:connector-curvature="0"
       id="path3843"
       style="font-size:30px;font-style:normal;font-variant:normal;font-weight:bold;font-stretch:normal;text-align:start;line-height:125%;letter-spacing:0px;word-spacing:0px;writing-mode:lr-tb;text-anchor:start;fill:#ffffff;fill-opacity:1;stroke:none;font-family:Ubuntu;-inkscape-font-specification:Ubuntu Bold"
       d="m 205.73105,1023.3389 0,10.9281 -3.11638,0 c -2e-5,-0.6926 0.007,-1.3781 0.0208,-2.0568 0.0138,-0.6925 0.0277,-1.3297 0.0416,-1.9114 0.0138,-0.5818 0.0277,-1.0872 0.0416,-1.5167 0.0277,-0.4431 0.0416,-0.7687 0.0416,-0.9765 -0.40168,0.568 -0.80335,1.1428 -1.205,1.7245 -0.40167,0.5818 -0.7895,1.1566 -1.16347,1.7244 -0.36011,0.554 -0.70637,1.0873 -1.03879,1.5997 -0.31856,0.5125 -0.6025,0.9834 -0.8518,1.4128 l -2.72164,0 0,-10.9281 3.09561,0 c 0,0.6926 -0.007,1.3574 -0.0208,1.9944 0,0.6234 -0.007,1.1912 -0.0208,1.7037 -0.0138,0.5125 -0.0276,0.9626 -0.0416,1.3505 -0.0138,0.3738 -0.0208,0.6648 -0.0208,0.8725 0.83104,-1.2189 1.59282,-2.313 2.28536,-3.2825 0.70636,-0.9697 1.39197,-1.8491 2.05681,-2.6386 l 2.61776,0" />
    <path
       inkscape:connector-curvature="0"
       id="path3845"
       style="font-size:30px;font-style:normal;font-variant:normal;font-weight:bold;font-stretch:normal;text-align:start;line-height:125%;letter-spacing:0px;word-spacing:0px;writing-mode:lr-tb;text-anchor:start;fill:#ffffff;fill-opacity:1;stroke:none;font-family:Ubuntu;-inkscape-font-specification:Ubuntu Bold"
       d="m 210.0832,1023.6921 c 0.48476,-0.1801 1.04572,-0.3255 1.68283,-0.4363 0.63713,-0.1108 1.32967,-0.1662 2.0776,-0.1662 0.56787,0 1.1219,0.056 1.66207,0.1662 0.54017,0.097 1.01802,0.2701 1.43354,0.5194 0.42937,0.2354 0.7687,0.554 1.01802,0.9556 0.26315,0.3879 0.39474,0.8795 0.39475,1.4752 -1e-5,0.5401 -0.12467,1.0041 -0.37397,1.3919 -0.24932,0.374 -0.60252,0.6857 -1.05957,0.935 0.60942,0.2631 1.05956,0.6094 1.35043,1.0387 0.29086,0.4294 0.43629,0.9765 0.4363,1.6414 -1e-5,0.6232 -0.1316,1.1495 -0.39475,1.579 -0.26316,0.4154 -0.61636,0.7548 -1.05957,1.0179 -0.44323,0.2632 -0.94878,0.4502 -1.51664,0.561 -0.56787,0.1246 -1.15653,0.187 -1.76595,0.187 -0.36011,0 -0.73408,-0.021 -1.1219,-0.063 -0.38782,-0.027 -0.76871,-0.075 -1.14267,-0.1454 -0.36012,-0.055 -0.70638,-0.1316 -1.0388,-0.2286 -0.33242,-0.097 -0.6302,-0.2008 -0.89337,-0.3116 l 0.56095,-2.4101 c 0.29087,0.1109 0.73409,0.2425 1.32966,0.3948 0.60943,0.1523 1.29503,0.2286 2.05681,0.2286 1.24656,0 1.86983,-0.3463 1.86984,-1.0388 -1e-5,-0.2354 -0.0485,-0.4225 -0.14543,-0.561 -0.0969,-0.1524 -0.22855,-0.2701 -0.39475,-0.3532 -0.15236,-0.083 -0.3324,-0.1384 -0.54017,-0.1662 -0.20776,-0.027 -0.41552,-0.042 -0.62328,-0.042 l -2.43078,0 0,-2.2023 2.45155,0 c 0.49864,0 0.84489,-0.097 1.0388,-0.2908 0.20776,-0.2078 0.31163,-0.4432 0.31164,-0.7064 -1e-5,-0.2631 -0.11773,-0.4986 -0.35318,-0.7064 -0.22162,-0.2216 -0.63713,-0.3324 -1.24656,-0.3324 -0.60942,0 -1.18423,0.055 -1.72441,0.1662 -0.54016,0.1108 -0.97646,0.2147 -1.30887,0.3116 l -0.54017,-2.41" />
    <path
       inkscape:connector-curvature="0"
       id="path3847"
       style="font-size:30px;font-style:normal;font-variant:normal;font-weight:bold;font-stretch:normal;text-align:start;line-height:125%;letter-spacing:0px;word-spacing:0px;writing-mode:lr-tb;text-anchor:start;fill:#ffffff;fill-opacity:1;stroke:none;font-family:Ubuntu;-inkscape-font-specification:Ubuntu Bold"
       d="m 227.00477,1032.1063 c 0.3047,0 0.59556,-0.01 0.87259,-0.021 0.277,-0.014 0.49861,-0.035 0.66482,-0.063 l 0,-2.3476 c -0.12466,-0.028 -0.31165,-0.055 -0.56095,-0.083 -0.24931,-0.028 -0.47785,-0.042 -0.6856,-0.042 -0.29087,0 -0.56789,0.021 -0.83104,0.063 -0.24931,0.027 -0.47092,0.09 -0.66483,0.187 -0.1939,0.097 -0.34626,0.2285 -0.45706,0.3947 -0.11081,0.1662 -0.16621,0.374 -0.16621,0.6233 0,0.4847 0.15928,0.8241 0.47784,1.018 0.33242,0.18 0.78256,0.2701 1.35044,0.2701 m -0.24931,-9.0583 c 0.91413,0 1.67591,0.1038 2.28534,0.3116 0.60942,0.2078 1.0942,0.5056 1.45432,0.8934 0.37396,0.3878 0.63712,0.8587 0.78949,1.4127 0.15234,0.5541 0.22852,1.1704 0.22852,1.8491 l 0,6.4406 c -0.44321,0.097 -1.05957,0.2077 -1.84904,0.3324 -0.7895,0.1384 -1.74519,0.2076 -2.86708,0.2076 -0.70638,0 -1.35044,-0.063 -1.93216,-0.1869 -0.56788,-0.1246 -1.05957,-0.3255 -1.47509,-0.6025 -0.41552,-0.2908 -0.73408,-0.6648 -0.95569,-1.1219 -0.22161,-0.457 -0.33242,-1.0181 -0.33242,-1.6828 0,-0.6371 0.12466,-1.1773 0.37397,-1.6205 0.26316,-0.4432 0.60942,-0.7964 1.03879,-1.0596 0.42937,-0.2632 0.92106,-0.4502 1.4751,-0.561 0.55401,-0.1246 1.12882,-0.187 1.7244,-0.187 0.40165,0 0.75484,0.021 1.05956,0.063 0.31856,0.027 0.5748,0.07 0.76871,0.1247 l 0,-0.2909 c -1e-5,-0.5263 -0.15929,-0.9487 -0.47784,-1.2674 -0.31857,-0.3185 -0.8726,-0.4777 -1.66207,-0.4777 -0.52632,0 -1.04573,0.042 -1.55819,0.1245 -0.51248,0.07 -0.9557,0.1733 -1.32967,0.3117 l -0.39474,-2.4931 c 0.18006,-0.056 0.40167,-0.1108 0.66483,-0.1662 0.27701,-0.07 0.5748,-0.1247 0.89337,-0.1663 0.31856,-0.055 0.65097,-0.097 0.99724,-0.1245 0.36011,-0.042 0.72024,-0.063 1.08035,-0.063" />
    <path
       inkscape:connector-curvature="0"
       id="path3849"
       style="font-size:30px;font-style:normal;font-variant:normal;font-weight:bold;font-stretch:normal;text-align:start;line-height:125%;letter-spacing:0px;word-spacing:0px;writing-mode:lr-tb;text-anchor:start;fill:#ffffff;fill-opacity:1;stroke:none;font-family:Ubuntu;-inkscape-font-specification:Ubuntu Bold"
       d="m 246.22403,1023.3389 0,10.9281 -3.11639,0 c -1e-5,-0.6926 0.007,-1.3781 0.0208,-2.0568 0.0138,-0.6925 0.0277,-1.3297 0.0416,-1.9114 0.0138,-0.5818 0.0277,-1.0872 0.0416,-1.5167 0.0277,-0.4431 0.0416,-0.7687 0.0416,-0.9765 -0.40167,0.568 -0.80333,1.1428 -1.205,1.7245 -0.40167,0.5818 -0.78949,1.1566 -1.16345,1.7244 -0.36011,0.554 -0.70638,1.0873 -1.03879,1.5997 -0.31857,0.5125 -0.60251,0.9834 -0.85181,1.4128 l -2.72165,0 0,-10.9281 3.09562,0 c 0,0.6926 -0.007,1.3574 -0.0208,1.9944 0,0.6234 -0.007,1.1912 -0.0208,1.7037 -0.0138,0.5125 -0.0277,0.9626 -0.0416,1.3505 -0.0138,0.3738 -0.0208,0.6648 -0.0208,0.8725 0.83103,-1.2189 1.59281,-2.313 2.28535,-3.2825 0.70636,-0.9697 1.39197,-1.8491 2.0568,-2.6386 l 2.61778,0"
       sodipodi:nodetypes="ccccsccsccccccccccccc" />
    <path
       inkscape:connector-curvature="0"
       id="path3851"
       style="font-size:30px;font-style:normal;font-variant:normal;font-weight:bold;font-stretch:normal;text-align:start;line-height:125%;letter-spacing:0px;word-spacing:0px;writing-mode:lr-tb;text-anchor:start;fill:#ffffff;fill-opacity:1;stroke:none;font-family:Ubuntu;-inkscape-font-specification:Ubuntu Bold"
       d="m 260.50705,1034.267 -3.0956,0 0,-4.3214 -3.22027,0 0,4.3214 -3.09561,0 0,-10.9281 3.09561,0 0,4.072 3.22027,0 0,-4.072 3.0956,0 0,10.9281" />
    <path
       inkscape:connector-curvature="0"
       id="path3853"
       style="font-size:30px;font-style:normal;font-variant:normal;font-weight:bold;font-stretch:normal;text-align:start;line-height:125%;letter-spacing:0px;word-spacing:0px;writing-mode:lr-tb;text-anchor:start;fill:#ffffff;fill-opacity:1;stroke:none;font-family:Ubuntu;-inkscape-font-specification:Ubuntu Bold"
       d="m 264.87186,1028.8861 c 0,-0.9696 0.14544,-1.8145 0.4363,-2.5348 0.30471,-0.734 0.69945,-1.3435 1.18422,-1.8283 0.48478,-0.4847 1.0388,-0.8517 1.66208,-1.1011 0.63713,-0.2492 1.28809,-0.3739 1.95293,-0.3739 1.55126,0 2.77704,0.4779 3.67734,1.4335 0.90028,0.9419 1.35042,2.334 1.35043,4.176 -10e-6,0.1801 -0.007,0.381 -0.0208,0.6026 -0.0138,0.2076 -0.0277,0.3947 -0.0415,0.5608 l -7.02226,0 c 0.0692,0.6372 0.36705,1.1428 0.89337,1.5167 0.52632,0.3739 1.2327,0.5609 2.11915,0.5609 0.56786,0 1.12188,-0.048 1.66206,-0.1454 0.55402,-0.1108 1.00417,-0.2424 1.35044,-0.3948 l 0.41551,2.5139 c -0.16621,0.083 -0.38781,0.1662 -0.66482,0.2494 -0.27702,0.083 -0.58867,0.1523 -0.93492,0.2077 -0.33243,0.07 -0.69254,0.1247 -1.08035,0.1662 -0.38782,0.042 -0.77563,0.063 -1.16345,0.063 -0.9834,0 -1.84213,-0.1454 -2.57621,-0.4362 -0.72023,-0.2908 -1.32273,-0.6856 -1.80751,-1.1843 -0.47092,-0.5124 -0.82411,-1.1149 -1.05956,-1.8074 -0.22161,-0.6926 -0.33242,-1.4405 -0.33242,-2.2438 m 7.27157,-1.1842 c -0.0138,-0.2632 -0.0623,-0.5194 -0.14544,-0.7688 -0.0692,-0.2493 -0.18698,-0.4709 -0.35318,-0.6648 -0.15236,-0.1938 -0.3532,-0.3532 -0.60251,-0.4778 -0.23546,-0.1247 -0.53325,-0.187 -0.89335,-0.187 -0.34628,0 -0.64407,0.063 -0.89337,0.187 -0.24931,0.1108 -0.45707,0.2631 -0.62328,0.457 -0.16621,0.194 -0.29778,0.4225 -0.39475,0.6856 -0.0831,0.2494 -0.14543,0.5056 -0.18698,0.7688 l 4.09286,0" />
    <path
       inkscape:connector-curvature="0"
       id="path3855"
       style="font-size:30px;font-style:normal;font-variant:normal;font-weight:bold;font-stretch:normal;text-align:start;line-height:125%;letter-spacing:0px;word-spacing:0px;writing-mode:lr-tb;text-anchor:start;fill:#ffffff;fill-opacity:1;stroke:none;font-family:Ubuntu;-inkscape-font-specification:Ubuntu Bold"
       d="m 286.48555,1028.8861 c -10e-6,-0.9557 -0.21469,-1.7175 -0.64406,-2.2855 -0.42938,-0.5816 -1.0665,-0.8725 -1.91138,-0.8725 -0.27702,0 -0.53325,0.014 -0.76871,0.042 -0.23546,0.014 -0.42937,0.035 -0.58173,0.063 l 0,5.5887 c 0.19392,0.1247 0.44322,0.2286 0.74793,0.3117 0.31857,0.083 0.63713,0.1246 0.9557,0.1246 1.46816,0 2.20224,-0.9902 2.20225,-2.9709 m 3.15793,-0.083 c -1e-5,0.8448 -0.10388,1.6136 -0.31163,2.3061 -0.20777,0.6926 -0.51248,1.2881 -0.91415,1.7866 -0.40167,0.4988 -0.90029,0.8866 -1.49587,1.1635 -0.59557,0.2771 -1.28118,0.4156 -2.0568,0.4156 -0.42938,0 -0.83104,-0.042 -1.20501,-0.1246 -0.37397,-0.083 -0.73408,-0.2009 -1.08035,-0.3532 l 0,5.1606 -3.09561,0 0,-15.4447 c 0.27702,-0.083 0.59558,-0.1593 0.95569,-0.2286 0.36012,-0.083 0.73409,-0.1523 1.1219,-0.2077 0.40167,-0.055 0.80334,-0.097 1.205,-0.1247 0.41552,-0.042 0.81027,-0.063 1.18423,-0.063 0.90028,0 1.70362,0.1385 2.41001,0.4155 0.70637,0.2631 1.30195,0.6441 1.78673,1.1427 0.48476,0.4847 0.8518,1.0803 1.10111,1.7867 0.26316,0.7064 0.39474,1.4959 0.39475,2.3685"
       sodipodi:nodetypes="ccsccccscccccsccccccccscccc" />
    <path
       inkscape:connector-curvature="0"
       id="path3857"
       style="font-size:30px;font-style:normal;font-variant:normal;font-weight:bold;font-stretch:normal;text-align:start;line-height:125%;letter-spacing:0px;word-spacing:0px;writing-mode:lr-tb;text-anchor:start;fill:#ffffff;fill-opacity:1;stroke:none;font-family:Ubuntu;-inkscape-font-specification:Ubuntu Bold"
       d="m 294.47645,1036.7226 c 0.0277,0.3324 0.0415,0.5678 0.0415,0.7064 0.0138,0.1384 0.0208,0.2561 0.0208,0.3531 0,0.4155 -0.0415,0.8587 -0.12465,1.3296 -0.0692,0.4571 -0.17314,0.9211 -0.31164,1.3921 -0.13851,0.4709 -0.31164,0.9418 -0.5194,1.4128 -0.20776,0.4709 -0.44323,0.921 -0.70639,1.3503 l -2.43077,-0.6025 c 0.31856,-0.9141 0.54018,-1.7729 0.66482,-2.5762 0.12466,-0.8033 0.18699,-1.4681 0.18699,-1.9945 0,-0.083 -0.007,-0.187 -0.0208,-0.3116 0,-0.1385 -0.007,-0.2771 -0.0208,-0.4155 0,-0.1385 -0.007,-0.2702 -0.0208,-0.3947 0,-0.1248 0,-0.2078 0,-0.2493 l 3.24104,0" />
    <path
       inkscape:connector-curvature="0"
       id="path3859"
       style="font-size:30px;font-style:normal;font-variant:normal;font-weight:bold;font-stretch:normal;text-align:start;line-height:125%;letter-spacing:0px;word-spacing:0px;writing-mode:lr-tb;text-anchor:start;fill:#ffffff;fill-opacity:1;stroke:none;font-family:Ubuntu;-inkscape-font-specification:Ubuntu Bold"
       d="m 310.93044,1026.4895 c -10e-6,0.5679 0.0692,1.0318 0.20775,1.392 0.1385,0.3462 0.33242,0.6233 0.58173,0.831 0.26315,0.2077 0.5748,0.3532 0.93492,0.4363 0.3601,0.069 0.75484,0.1039 1.18422,0.1039 0.33242,0 0.68561,-0.014 1.05957,-0.042 0.3878,-0.028 0.78255,-0.07 1.18424,-0.1248 l 0,-6.8352 3.24104,0 0,14.4343 43.53891,-0.011 -0.31098,2.6994 -46.469,0 0,-7.5415 c -0.47094,0.056 -0.92801,0.097 -1.37121,0.1245 -0.44323,0.027 -0.86567,0.042 -1.26733,0.042 -0.87259,10e-5 -1.66901,-0.076 -2.38923,-0.2285 -0.7064,-0.1662 -1.30889,-0.4502 -1.80751,-0.8519 -0.49863,-0.4154 -0.88643,-0.9625 -1.16344,-1.6412 -0.26317,-0.6926 -0.39475,-1.5651 -0.39475,-2.6178 l 0,-4.4045 3.24104,0 0,4.2383"
       sodipodi:nodetypes="cccccccccccccccscccsccc" />
    <path
       inkscape:connector-curvature="0"
       id="path3861"
       style="font-size:30px;font-style:normal;font-variant:normal;font-weight:bold;font-stretch:normal;text-align:start;line-height:125%;letter-spacing:0px;word-spacing:0px;writing-mode:lr-tb;text-anchor:start;fill:#ffffff;fill-opacity:1;stroke:none;font-family:Ubuntu;-inkscape-font-specification:Ubuntu Bold"
       d="m 323.87439,1028.8995 c 0,-0.9695 0.14543,-1.8144 0.4363,-2.5346 0.30472,-0.7342 0.69946,-1.3436 1.18423,-1.8284 0.48477,-0.4847 1.03879,-0.8518 1.66207,-1.1011 0.63711,-0.2493 1.2881,-0.3739 1.95293,-0.3739 1.55126,0 2.77704,0.4778 3.67733,1.4334 0.90029,0.9419 1.35043,2.334 1.35044,4.176 -1e-5,0.1801 -0.007,0.381 -0.0208,0.6026 -0.0138,0.2077 -0.0277,0.3947 -0.0415,0.5608 l -7.02226,0 c 0.0692,0.6372 0.36703,1.1428 0.89335,1.5167 0.52632,0.374 1.23271,0.5609 2.11915,0.5609 0.56787,0 1.12189,-0.048 1.66208,-0.1454 0.55401,-0.1107 1.00415,-0.2423 1.35043,-0.3947 l 0.41552,2.5139 c -0.16622,0.083 -0.38783,0.1662 -0.66483,0.2493 -0.27702,0.083 -0.58866,0.1524 -0.93492,0.2077 -0.33242,0.07 -0.69253,0.1248 -1.08035,0.1662 -0.38782,0.042 -0.77564,0.063 -1.16344,0.063 -0.9834,0 -1.84215,-0.1454 -2.57622,-0.4362 -0.72024,-0.2909 -1.32273,-0.6856 -1.8075,-1.1844 -0.47092,-0.5124 -0.82411,-1.1149 -1.05958,-1.8074 -0.2216,-0.6925 -0.33241,-1.4405 -0.33241,-2.2438 m 7.27157,-1.1842 c -0.0138,-0.2631 -0.0623,-0.5194 -0.14543,-0.7687 -0.0692,-0.2493 -0.187,-0.471 -0.3532,-0.6649 -0.15236,-0.1938 -0.3532,-0.3532 -0.6025,-0.4778 -0.23545,-0.1247 -0.53325,-0.1869 -0.89336,-0.187 -0.34627,1e-4 -0.64406,0.063 -0.89337,0.187 -0.24931,0.1108 -0.45707,0.2632 -0.62327,0.4571 -0.16621,0.1939 -0.2978,0.4224 -0.39474,0.6856 -0.0831,0.2493 -0.14543,0.5056 -0.18698,0.7687 l 4.09285,0" />
    <path
       inkscape:connector-curvature="0"
       id="path3863"
       style="font-size:30px;font-style:normal;font-variant:normal;font-weight:bold;font-stretch:normal;text-align:start;line-height:125%;letter-spacing:0px;word-spacing:0px;writing-mode:lr-tb;text-anchor:start;fill:#ffffff;fill-opacity:1;stroke:none;font-family:Ubuntu;-inkscape-font-specification:Ubuntu Bold"
       d="m 343.38971,1025.887 c -0.0138,0.4016 -0.0347,0.831 -0.0623,1.288 -0.0138,0.4433 -0.0485,0.8934 -0.10388,1.3505 -0.0554,0.4432 -0.1316,0.8796 -0.22854,1.3088 -0.0831,0.4295 -0.19391,0.8312 -0.33241,1.2052 -0.16621,0.4431 -0.3809,0.8586 -0.64406,1.2465 -0.2493,0.3739 -0.5748,0.7133 -0.97646,1.018 -0.38783,0.3047 -0.86567,0.5609 -1.43354,0.7686 -0.55403,0.194 -1.20499,0.3255 -1.95293,0.3949 l -0.41552,-2.5762 c 0.70637,-0.1386 1.25347,-0.3325 1.64129,-0.5819 0.38782,-0.2631 0.67868,-0.5954 0.87259,-0.9971 0.15236,-0.3463 0.27009,-0.7479 0.35319,-1.205 0.0969,-0.4571 0.16621,-0.935 0.20776,-1.4337 0.0416,-0.5124 0.0623,-1.0318 0.0623,-1.5581 0.0138,-0.5263 0.0208,-1.0319 0.0208,-1.5166 l 0,-1.2466 8.20649,0 0,10.9281 -3.09561,0 0,-8.3934 -2.11914,0" />
    <path
       inkscape:connector-curvature="0"
       id="path3865"
       style="font-size:30px;font-style:normal;font-variant:normal;font-weight:bold;font-stretch:normal;text-align:start;line-height:125%;letter-spacing:0px;word-spacing:0px;writing-mode:lr-tb;text-anchor:start;fill:#ffffff;fill-opacity:1;stroke:none;font-family:Ubuntu;-inkscape-font-specification:Ubuntu Bold"
       d="m 363.69386,1028.7956 c -10e-6,0.8588 -0.12467,1.6482 -0.37397,2.3684 -0.24932,0.7064 -0.60943,1.3159 -1.08034,1.8284 -0.47093,0.4985 -1.03881,0.8864 -1.70363,1.1634 -0.65099,0.277 -1.38507,0.4155 -2.20224,0.4155 -0.80335,0 -1.53743,-0.1385 -2.20225,-0.4155 -0.65098,-0.277 -1.21194,-0.6649 -1.68284,-1.1634 -0.47093,-0.5125 -0.83797,-1.122 -1.10113,-1.8284 -0.26316,-0.7202 -0.39475,-1.5096 -0.39475,-2.3684 0,-0.8587 0.13159,-1.6413 0.39475,-2.3477 0.277,-0.7064 0.65097,-1.3089 1.1219,-1.8076 0.48476,-0.4985 1.05264,-0.8864 1.70362,-1.1634 0.66483,-0.277 1.38506,-0.4154 2.1607,-0.4154 0.78948,0 1.50971,0.1384 2.16069,0.4154 0.66482,0.277 1.23269,0.6649 1.70362,1.1634 0.47091,0.4987 0.83795,1.1012 1.10112,1.8076 0.26315,0.7063 0.39474,1.489 0.39475,2.3477 m -3.15794,0 c -2e-5,-0.9557 -0.19392,-1.7036 -0.58172,-2.2439 -0.37398,-0.554 -0.91415,-0.8309 -1.62052,-0.8309 -0.7064,0 -1.25349,0.2769 -1.64131,0.8309 -0.38781,0.5403 -0.58171,1.2882 -0.58171,2.2439 0,0.9557 0.1939,1.7174 0.58171,2.2854 0.38782,0.554 0.93491,0.8309 1.64131,0.8309 0.70637,0 1.24654,-0.2769 1.62052,-0.8309 0.3878,-0.568 0.5817,-1.3297 0.58172,-2.2854" />
    <path
       inkscape:connector-curvature="0"
       id="path3867"
       style="font-size:30px;font-style:normal;font-variant:normal;font-weight:bold;font-stretch:normal;text-align:start;line-height:125%;letter-spacing:0px;word-spacing:0px;writing-mode:lr-tb;text-anchor:start;fill:#ffffff;fill-opacity:1;stroke:none;font-family:Ubuntu;-inkscape-font-specification:Ubuntu Bold"
       d="m 371.14746,1031.9951 c 0.1939,0.027 0.45015,0.056 0.76871,0.083 0.33241,0.014 0.63712,0.021 0.91414,0.021 0.69251,0 1.23269,-0.083 1.62052,-0.2493 0.3878,-0.1801 0.58171,-0.4986 0.58172,-0.9557 -1e-5,-0.4432 -0.18006,-0.7479 -0.54017,-0.9141 -0.34627,-0.1801 -0.85875,-0.2701 -1.53742,-0.2701 l -1.8075,0 0,2.2853 m 1.74518,-4.3629 c 0.51246,0 0.92798,-0.063 1.24655,-0.187 0.31856,-0.1385 0.47784,-0.4293 0.47784,-0.8725 0,-0.4156 -0.18006,-0.6995 -0.54016,-0.8519 -0.36013,-0.1523 -0.83105,-0.2285 -1.41277,-0.2285 -0.19392,0 -0.45015,0.014 -0.7687,0.041 -0.30472,0.014 -0.55404,0.035 -0.74794,0.063 l 0,2.036 1.74518,0 m -0.10388,6.8561 c -0.38783,0 -0.80334,-0.014 -1.24655,-0.042 -0.44323,-0.027 -0.87952,-0.07 -1.30889,-0.1246 -0.42937,-0.042 -0.83796,-0.09 -1.22578,-0.1454 -0.37396,-0.069 -0.69253,-0.1316 -0.95569,-0.187 l 0,-10.471 c 0.26316,-0.055 0.58173,-0.1039 0.95569,-0.1455 0.38782,-0.055 0.79641,-0.1039 1.22578,-0.1454 0.42937,-0.042 0.86566,-0.07 1.30889,-0.083 0.44321,-0.028 0.85872,-0.042 1.24655,-0.042 0.90027,0 1.65513,0.09 2.26457,0.27 0.62327,0.1802 1.12189,0.4157 1.49586,0.7064 0.38781,0.291 0.66482,0.6164 0.83104,0.9766 0.1662,0.36 0.2493,0.7202 0.24931,1.0802 -1e-5,0.4849 -0.11773,0.9281 -0.35319,1.3297 -0.23546,0.4017 -0.53325,0.6926 -0.89336,0.8727 0.1939,0.083 0.3878,0.2008 0.58172,0.3532 0.20775,0.1523 0.39474,0.3393 0.56094,0.5609 0.16621,0.2078 0.29779,0.464 0.39475,0.7688 0.1108,0.2908 0.1662,0.6301 0.16621,1.0179 -1e-5,0.4432 -0.0901,0.8726 -0.27008,1.2881 -0.16622,0.4156 -0.45708,0.7826 -0.87259,1.1011 -0.41553,0.3186 -0.96263,0.5749 -1.6413,0.7687 -0.67869,0.194 -1.51666,0.2909 -2.51388,0.2909" />
    <path
       inkscape:connector-curvature="0"
       id="path3869"
       style="font-size:30px;font-style:normal;font-variant:normal;font-weight:bold;font-stretch:normal;text-align:start;line-height:125%;letter-spacing:0px;word-spacing:0px;writing-mode:lr-tb;text-anchor:start;fill:#ffffff;fill-opacity:1;stroke:none;font-family:Ubuntu;-inkscape-font-specification:Ubuntu Bold"
       d="m 381.9093,1028.8995 c 0,-0.9695 0.14543,-1.8144 0.4363,-2.5346 0.30471,-0.7342 0.69945,-1.3436 1.18422,-1.8284 0.48478,-0.4847 1.03879,-0.8518 1.66207,-1.1011 0.63712,-0.2493 1.2881,-0.3739 1.95294,-0.3739 1.55126,0 2.77703,0.4778 3.67734,1.4334 0.90026,0.9419 1.35041,2.334 1.35043,4.176 -2e-5,0.1801 -0.007,0.381 -0.0208,0.6026 -0.0138,0.2077 -0.0277,0.3947 -0.0415,0.5608 l -7.02226,0 c 0.0692,0.6372 0.36704,1.1428 0.89336,1.5167 0.52633,0.374 1.2327,0.5609 2.11915,0.5609 0.56787,0 1.12189,-0.048 1.66207,-0.1454 0.55401,-0.1107 1.00416,-0.2423 1.35044,-0.3947 l 0.41551,2.5139 c -0.16622,0.083 -0.38782,0.1662 -0.66483,0.2493 -0.27702,0.083 -0.58866,0.1524 -0.93491,0.2077 -0.33243,0.07 -0.69254,0.1248 -1.08035,0.1662 -0.38782,0.042 -0.77564,0.063 -1.16345,0.063 -0.9834,0 -1.84213,-0.1454 -2.57621,-0.4362 -0.72023,-0.2909 -1.32273,-0.6856 -1.80751,-1.1844 -0.47091,-0.5124 -0.82411,-1.1149 -1.05957,-1.8074 -0.22161,-0.6925 -0.33241,-1.4405 -0.33241,-2.2438 m 7.27156,-1.1842 c -0.0138,-0.2631 -0.0623,-0.5194 -0.14543,-0.7687 -0.0693,-0.2493 -0.18699,-0.471 -0.35319,-0.6649 -0.15236,-0.1938 -0.35319,-0.3532 -0.6025,-0.4778 -0.23546,-0.1247 -0.53325,-0.1869 -0.89335,-0.187 -0.34629,1e-4 -0.64408,0.063 -0.89337,0.187 -0.24932,0.1108 -0.45708,0.2632 -0.62328,0.4571 -0.16622,0.1939 -0.29779,0.4224 -0.39475,0.6856 -0.0831,0.2493 -0.14544,0.5056 -0.18698,0.7687 l 4.09285,0" />
    <path
       inkscape:connector-curvature="0"
       id="path3871"
       style="font-size:30px;font-style:normal;font-variant:normal;font-weight:bold;font-stretch:normal;text-align:start;line-height:125%;letter-spacing:0px;word-spacing:0px;writing-mode:lr-tb;text-anchor:start;fill:#ffffff;fill-opacity:1;stroke:none;font-family:Ubuntu;-inkscape-font-specification:Ubuntu Bold"
       d="m 399.61711,1027.175 c 0.3047,-0.2908 0.62327,-0.6093 0.95569,-0.9556 0.34626,-0.3463 0.67867,-0.6856 0.99724,-1.0181 0.31856,-0.3461 0.62327,-0.6787 0.91414,-0.9972 0.29086,-0.3186 0.5471,-0.6025 0.76871,-0.8518 l 3.76045,0 c -0.27703,0.2909 -0.62329,0.651 -1.0388,1.0803 -0.40168,0.4294 -0.83104,0.8796 -1.28811,1.3505 -0.45707,0.4571 -0.92107,0.9142 -1.39198,1.3711 -0.45708,0.4571 -0.89338,0.8658 -1.30889,1.2258 0.41551,0.3187 0.85874,0.7135 1.32967,1.1844 0.47091,0.4708 0.92797,0.9763 1.3712,1.5166 0.45707,0.5401 0.88643,1.0872 1.28811,1.6412 0.41551,0.5541 0.7687,1.0734 1.05957,1.5582 l -3.5319,0 c -0.24932,-0.3739 -0.53327,-0.7617 -0.85182,-1.1634 -0.31856,-0.4155 -0.65098,-0.8172 -0.99724,-1.2051 -0.34628,-0.4016 -0.69947,-0.7755 -1.05957,-1.1219 -0.34627,-0.3462 -0.67177,-0.644 -0.97647,-0.8933 l 0,4.3837 -3.09561,0 0,-10.9281 3.09561,0 0,3.8227" />
    <path
       inkscape:connector-curvature="0"
       id="path3873"
       style="font-size:30px;font-style:normal;font-variant:normal;font-weight:bold;font-stretch:normal;text-align:start;line-height:125%;letter-spacing:0px;word-spacing:0px;writing-mode:lr-tb;text-anchor:start;fill:#ffffff;fill-opacity:1;stroke:none;font-family:Ubuntu;-inkscape-font-specification:Ubuntu Bold"
       d="m 412.55964,1037.6372 c -10e-6,0.6232 -0.20085,1.101 -0.60251,1.4334 -0.38782,0.3186 -0.83104,0.4779 -1.32965,0.4779 -0.49863,0 -0.94878,-0.1593 -1.35044,-0.4779 -0.38782,-0.3324 -0.58172,-0.8102 -0.58172,-1.4334 0,-0.6234 0.1939,-1.0943 0.58172,-1.4128 0.40166,-0.3325 0.85181,-0.4986 1.35044,-0.4986 0.49861,0 0.94183,0.1661 1.32965,0.4986 0.40166,0.3185 0.6025,0.7894 0.60251,1.4128" />
    <path
       inkscape:connector-curvature="0"
       id="path3875"
       style="font-size:30px;font-style:normal;font-variant:normal;font-weight:bold;font-stretch:normal;text-align:start;line-height:125%;letter-spacing:0px;word-spacing:0px;writing-mode:lr-tb;text-anchor:start;fill:#ffffff;fill-opacity:1;stroke:none;font-family:Ubuntu;-inkscape-font-specification:Ubuntu Bold"
       d="m 417.67244,1037.6372 c 0,0.6232 -0.20082,1.101 -0.60249,1.4334 -0.38782,0.3186 -0.83104,0.4779 -1.32966,0.4779 -0.49862,0 -0.94876,-0.1593 -1.35043,-0.4779 -0.38782,-0.3324 -0.58172,-0.8102 -0.58172,-1.4334 0,-0.6234 0.1939,-1.0943 0.58172,-1.4128 0.40167,-0.3325 0.85181,-0.4986 1.35043,-0.4986 0.49862,0 0.94184,0.1661 1.32966,0.4986 0.40167,0.3185 0.60249,0.7894 0.60249,1.4128" />
    <path
       inkscape:connector-curvature="0"
       id="path3877"
       style="font-size:30px;font-style:normal;font-variant:normal;font-weight:bold;font-stretch:normal;text-align:start;line-height:125%;letter-spacing:0px;word-spacing:0px;writing-mode:lr-tb;text-anchor:start;fill:#ffffff;fill-opacity:1;stroke:none;font-family:Ubuntu;-inkscape-font-specification:Ubuntu Bold"
       d="m 422.78527,1037.6372 c 0,0.6232 -0.20084,1.101 -0.60251,1.4334 -0.38781,0.3186 -0.83103,0.4779 -1.32965,0.4779 -0.49862,0 -0.94877,-0.1593 -1.35044,-0.4779 -0.3878,-0.3324 -0.58173,-0.8102 -0.58173,-1.4334 0,-0.6234 0.19393,-1.0943 0.58173,-1.4128 0.40167,-0.3325 0.85182,-0.4986 1.35044,-0.4986 0.49862,0 0.94184,0.1661 1.32965,0.4986 0.40167,0.3185 0.60251,0.7894 0.60251,1.4128" />
    <path
       d="m 241.30024,1039.5976 c -0.44322,0 -0.87259,-0.063 -1.28811,-0.1871 -0.40167,-0.1385 -0.76871,-0.3323 -1.10113,-0.5817 -0.3324,-0.2632 -0.60942,-0.5748 -0.83103,-0.935 -0.20776,-0.3738 -0.33241,-0.7963 -0.37396,-1.2673 l 2.13991,-0.561 c 0.11081,0.5265 0.29086,0.9004 0.54018,1.1219 0.26316,0.2217 0.56786,0.3326 0.91414,0.3326 0.36011,0 0.66482,-0.097 0.91414,-0.291 0.26315,-0.2077 0.45013,-0.5886 0.56095,-1.1427 l 2.11914,0.561 c -0.0416,0.471 -0.17313,0.8933 -0.39474,1.2673 -0.20777,0.3602 -0.47786,0.6649 -0.81026,0.9142 -0.31857,0.2494 -0.68561,0.4432 -1.10112,0.5817 -0.41553,0.1247 -0.8449,0.1871 -1.28812,0.1871"
       style="font-size:30px;font-style:normal;font-variant:normal;font-weight:bold;font-stretch:normal;text-align:start;line-height:125%;letter-spacing:0px;word-spacing:0px;writing-mode:lr-tb;text-anchor:start;fill:#ffffff;fill-opacity:1;stroke:none;font-family:Ubuntu;-inkscape-font-specification:Ubuntu Bold"
       id="path3911"
       inkscape:connector-curvature="0"
       sodipodi:nodetypes="ccccccccccccccc" />
    <g
       id="g3213"
       transform="matrix(1.1,0,0,1.1,-6.2880572,-104.03343)"
       style="fill:#ffffff">
      <path
         d="m 41.355069,1045.4203 c 0.228003,0.1618 0.474395,0.3677 0.739179,0.6178 0.264778,0.2427 0.522203,0.5075 0.772279,0.7943 0.25742,0.2869 0.496459,0.5811 0.717114,0.8826 0.220645,0.2942 0.408198,0.57 0.562659,0.8274 l -1.213578,0 c -0.161816,-0.25 -0.353046,-0.5038 -0.573692,-0.7612 -0.2133,-0.2648 -0.437628,-0.5185 -0.672985,-0.7612 -0.235363,-0.2427 -0.474402,-0.4671 -0.717115,-0.673 -0.242717,-0.2059 -0.470723,-0.3788 -0.684016,-0.5186 l 0,2.714 -1.026026,0 0,-5.7369 1.026026,0 0,2.4603 c 0.176517,-0.1691 0.37878,-0.3641 0.606788,-0.5847 0.228003,-0.228 0.456009,-0.456 0.684018,-0.6841 0.235358,-0.2353 0.45233,-0.456 0.65092,-0.6619 0.198581,-0.2133 0.360391,-0.3898 0.485431,-0.5296 l 1.191513,0 c -0.161815,0.1765 -0.353046,0.3788 -0.573692,0.6068 -0.2133,0.2206 -0.437628,0.4487 -0.672984,0.6841 -0.22801,0.2353 -0.456015,0.4707 -0.684017,0.7061 -0.22801,0.2279 -0.43395,0.4339 -0.617822,0.6178"
         id="path3042"
         inkscape:connector-curvature="0"
         style="font-size:12px;font-style:normal;font-variant:normal;font-weight:normal;font-stretch:normal;text-align:start;line-height:125%;letter-spacing:0px;word-spacing:0px;writing-mode:lr-tb;text-anchor:start;fill:#ffffff;fill-opacity:1;stroke:none;font-family:Ubuntu;-inkscape-font-specification:Ubuntu" />
      <path
         d="m 47.126291,1047.8032 c 0.242712,0 0.456008,0 0.639888,-0.011 0.191226,-0.015 0.349358,-0.037 0.474397,-0.067 l 0,-1.71 c -0.07355,-0.037 -0.194911,-0.067 -0.364072,-0.088 -0.161814,-0.029 -0.3604,-0.044 -0.595757,-0.044 -0.154459,0 -0.319946,0.011 -0.496464,0.033 -0.169168,0.023 -0.327301,0.07 -0.474399,0.1434 -0.139748,0.067 -0.257427,0.1618 -0.353041,0.2869 -0.09562,0.1176 -0.143425,0.2758 -0.143423,0.4744 -2e-6,0.3678 0.117678,0.6251 0.353041,0.7723 0.235358,0.1397 0.555301,0.2095 0.95983,0.2095 m -0.08826,-5.141 c 0.411879,0 0.757564,0.055 1.037059,0.1654 0.286842,0.103 0.514847,0.2538 0.684018,0.4523 0.176515,0.1912 0.30155,0.4229 0.375105,0.6951 0.07355,0.2648 0.11032,0.559 0.110325,0.8825 l 0,3.5857 c -0.08826,0.015 -0.2133,0.037 -0.375106,0.067 -0.154459,0.023 -0.33098,0.044 -0.529561,0.067 -0.19859,0.023 -0.415562,0.04 -0.650919,0.055 -0.22801,0.023 -0.456016,0.033 -0.684018,0.033 -0.323623,0 -0.621502,-0.033 -0.893634,-0.099 -0.272138,-0.067 -0.507499,-0.1692 -0.706083,-0.3089 -0.198587,-0.1471 -0.353041,-0.3383 -0.463366,-0.5737 -0.110326,-0.2354 -0.16549,-0.5185 -0.165489,-0.8495 -10e-7,-0.3162 0.06251,-0.5884 0.187554,-0.8164 0.132389,-0.2281 0.308909,-0.4119 0.52956,-0.5517 0.22065,-0.1397 0.478076,-0.2426 0.772278,-0.3089 0.294199,-0.066 0.60311,-0.099 0.926734,-0.099 0.102966,0 0.209614,0.01 0.319943,0.022 0.110322,0.01 0.213292,0.023 0.30891,0.044 0.102968,0.015 0.191227,0.029 0.264782,0.044 0.07355,0.015 0.125031,0.025 0.154454,0.033 l 0,-0.2869 c -3e-6,-0.1691 -0.01839,-0.3346 -0.05516,-0.4965 -0.03678,-0.1691 -0.102975,-0.3162 -0.198586,-0.4413 -0.09562,-0.1324 -0.228009,-0.2353 -0.397171,-0.3088 -0.161814,-0.081 -0.375109,-0.1214 -0.639888,-0.1214 -0.338333,0 -0.636211,0.025 -0.893635,0.077 -0.250072,0.044 -0.437625,0.092 -0.562659,0.1434 l -0.121357,-0.8494 c 0.132388,-0.059 0.353039,-0.114 0.661952,-0.1656 0.308908,-0.059 0.643561,-0.088 1.003959,-0.088"
         id="path3044"
         inkscape:connector-curvature="0"
         style="font-size:12px;font-style:normal;font-variant:normal;font-weight:normal;font-stretch:normal;text-align:start;line-height:125%;letter-spacing:0px;word-spacing:0px;writing-mode:lr-tb;text-anchor:start;fill:#ffffff;fill-opacity:1;stroke:none;font-family:Ubuntu;-inkscape-font-specification:Ubuntu" />
      <path
         d="m 51.588779,1042.8055 0,1.688 c -2e-6,0.4339 0.110323,0.7392 0.330976,0.9157 0.220649,0.1691 0.522204,0.2538 0.904667,0.2538 0.279489,0 0.511171,-0.015 0.695051,-0.044 0.191226,-0.029 0.360392,-0.063 0.507496,-0.099 l 0,-2.714 1.026025,0 0,5.7369 -1.026025,0 0,-2.2285 c -0.05884,0.015 -0.136071,0.033 -0.231683,0.055 -0.09562,0.023 -0.205945,0.044 -0.330977,0.067 -0.117684,0.015 -0.242718,0.029 -0.375105,0.044 -0.132393,0.015 -0.261107,0.023 -0.386139,0.023 -0.316269,0 -0.606791,-0.033 -0.871571,-0.099 -0.257427,-0.067 -0.481754,-0.1765 -0.672984,-0.3309 -0.183877,-0.1545 -0.330977,-0.3568 -0.441301,-0.6069 -0.102972,-0.2574 -0.154457,-0.5773 -0.154456,-0.9598 l 0,-1.699 1.026026,0"
         id="path3046"
         inkscape:connector-curvature="0"
         style="font-size:12px;font-style:normal;font-variant:normal;font-weight:normal;font-stretch:normal;text-align:start;line-height:125%;letter-spacing:0px;word-spacing:0px;writing-mode:lr-tb;text-anchor:start;fill:#ffffff;fill-opacity:1;stroke:none;font-family:Ubuntu;-inkscape-font-specification:Ubuntu" />
      <path
         d="m 56.500497,1045.6851 c -1e-6,-0.5076 0.07355,-0.9489 0.22065,-1.324 0.1471,-0.3824 0.342009,-0.6987 0.584725,-0.9488 0.242715,-0.2501 0.522205,-0.4376 0.838473,-0.5627 0.316263,-0.1249 0.639884,-0.1874 0.970862,-0.1874 0.772274,0 1.364353,0.2426 1.776238,0.7281 0.411878,0.478 0.617817,1.2099 0.617824,2.1955 -7e-6,0.044 -7e-6,0.1029 0,0.1765 -7e-6,0.067 -0.0037,0.1287 -0.01104,0.1876 l -3.927583,0 c 0.04413,0.5957 0.216972,1.048 0.518529,1.357 0.301554,0.3089 0.772275,0.4633 1.412165,0.4633 0.360392,0 0.661947,-0.029 0.904667,-0.088 0.250067,-0.067 0.437619,-0.1287 0.56266,-0.1876 l 0.143422,0.8606 c -0.12504,0.067 -0.345691,0.1361 -0.661952,0.2096 -0.308914,0.073 -0.661955,0.1103 -1.059123,0.1103 -0.500145,0 -0.93409,-0.073 -1.301839,-0.2206 -0.360398,-0.1545 -0.658275,-0.3641 -0.893635,-0.6288 -0.235362,-0.2648 -0.411881,-0.5774 -0.529561,-0.9378 -0.110326,-0.3678 -0.16549,-0.7686 -0.165489,-1.2025 m 3.938615,-0.5628 c 0.0074,-0.4633 -0.11033,-0.8421 -0.353041,-1.1363 -0.235365,-0.3015 -0.562663,-0.4523 -0.981896,-0.4523 -0.235363,0 -0.444981,0.048 -0.628853,0.1434 -0.176524,0.088 -0.327301,0.2059 -0.452336,0.353 -0.125037,0.1471 -0.22433,0.3163 -0.297878,0.5076 -0.0662,0.1912 -0.110326,0.3861 -0.13239,0.5846 l 2.846394,0"
         id="path3048"
         inkscape:connector-curvature="0"
         style="font-size:12px;font-style:normal;font-variant:normal;font-weight:normal;font-stretch:normal;text-align:start;line-height:125%;letter-spacing:0px;word-spacing:0px;writing-mode:lr-tb;text-anchor:start;fill:#ffffff;fill-opacity:1;stroke:none;font-family:Ubuntu;-inkscape-font-specification:Ubuntu" />
      <path
         d="m 65.476498,1048.6748 c -0.46337,0 -0.871572,-0.073 -1.22461,-0.2206 -0.345688,-0.1472 -0.639889,-0.353 -0.882604,-0.6178 -0.235362,-0.2648 -0.411881,-0.5774 -0.529562,-0.9378 -0.11768,-0.3677 -0.17652,-0.7722 -0.17652,-1.2135 0,-0.4413 0.06251,-0.8459 0.187552,-1.2137 0.132391,-0.3677 0.316266,-0.6839 0.551628,-0.9487 0.235359,-0.2722 0.522205,-0.4818 0.860538,-0.6289 0.345683,-0.1544 0.728144,-0.2316 1.147384,-0.2316 0.257421,0 0.514847,0.022 0.772276,0.066 0.257422,0.044 0.503815,0.114 0.73918,0.2096 l -0.231682,0.8716 c -0.154461,-0.073 -0.334658,-0.1324 -0.540596,-0.1765 -0.198589,-0.044 -0.411884,-0.066 -0.639887,-0.066 -0.573695,0 -1.014995,0.1802 -1.323904,0.5406 -0.301557,0.3604 -0.452335,0.8863 -0.452334,1.5777 -10e-7,0.3089 0.0331,0.592 0.09929,0.8494 0.07355,0.2575 0.183874,0.4781 0.330976,0.662 0.154454,0.1839 0.349362,0.3273 0.584725,0.4302 0.235358,0.096 0.522204,0.1435 0.860538,0.1435 0.272131,0 0.518525,-0.025 0.739179,-0.077 0.220647,-0.052 0.393489,-0.1067 0.518529,-0.1655 l 0.143423,0.8605 c -0.05885,0.036 -0.143428,0.073 -0.253748,0.1104 -0.110329,0.029 -0.235365,0.055 -0.375107,0.077 -0.139749,0.029 -0.290527,0.052 -0.452333,0.067 -0.154458,0.023 -0.305236,0.033 -0.452334,0.033"
         id="path3050"
         inkscape:connector-curvature="0"
         style="font-size:12px;font-style:normal;font-variant:normal;font-weight:normal;font-stretch:normal;text-align:start;line-height:125%;letter-spacing:0px;word-spacing:0px;writing-mode:lr-tb;text-anchor:start;fill:#ffffff;fill-opacity:1;stroke:none;font-family:Ubuntu;-inkscape-font-specification:Ubuntu" />
      <path
         d="m 72.332873,1042.8055 0,0.8606 -1.864498,0 0,4.8763 -1.026026,0 0,-4.8763 -1.864498,0 0,-0.8606 4.755022,0"
         id="path3052"
         inkscape:connector-curvature="0"
         style="font-size:12px;font-style:normal;font-variant:normal;font-weight:normal;font-stretch:normal;text-align:start;line-height:125%;letter-spacing:0px;word-spacing:0px;writing-mode:lr-tb;text-anchor:start;fill:#ffffff;fill-opacity:1;stroke:none;font-family:Ubuntu;-inkscape-font-specification:Ubuntu" />
      <path
         d="m 74.394751,1047.7702 c 0.04413,0.01 0.106645,0.015 0.187553,0.023 0.08091,0.01 0.172841,0.015 0.275813,0.023 0.102968,0 0.209615,0 0.319944,0.011 0.117677,0 0.228003,0 0.330975,0 0.213293,0 0.415555,-0.015 0.60679,-0.044 0.198582,-0.029 0.367748,-0.08 0.507497,-0.1545 0.147096,-0.073 0.261098,-0.1691 0.342008,-0.2868 0.08826,-0.1251 0.132386,-0.2832 0.13239,-0.4744 -4e-6,-0.1839 -0.04045,-0.3346 -0.121357,-0.4523 -0.07355,-0.1251 -0.176526,-0.2243 -0.308911,-0.2979 -0.132394,-0.073 -0.290528,-0.1251 -0.474399,-0.1545 -0.176525,-0.029 -0.367755,-0.044 -0.573692,-0.044 l -1.224611,0 0,1.8535 m 1.09222,-2.6147 c 0.198584,0 0.37878,-0.011 0.540595,-0.033 0.169162,-0.029 0.312585,-0.077 0.430268,-0.1433 0.125032,-0.067 0.220647,-0.1545 0.286846,-0.2648 0.07355,-0.1104 0.110321,-0.2501 0.110325,-0.4193 -4e-6,-0.1765 -0.04414,-0.3162 -0.13239,-0.4192 -0.08826,-0.103 -0.205944,-0.1802 -0.353041,-0.2317 -0.139749,-0.059 -0.30156,-0.096 -0.485431,-0.1103 -0.176524,-0.022 -0.356722,-0.033 -0.540595,-0.033 -0.169168,10e-5 -0.342011,0 -0.518528,0.011 -0.169168,0.01 -0.312591,0.015 -0.430269,0.022 l 0,1.6218 1.09222,0 m -0.02206,3.4862 c -0.43395,0 -0.834798,-0.023 -1.202547,-0.067 -0.367754,-0.036 -0.658275,-0.081 -0.871571,-0.1324 l 0,-5.5825 c 0.213296,-0.052 0.503817,-0.096 0.871571,-0.1324 0.367749,-0.044 0.768597,-0.066 1.202547,-0.066 0.301551,0 0.595752,0.025 0.882602,0.077 0.286842,0.052 0.54059,0.1397 0.761245,0.2648 0.220646,0.1176 0.397166,0.2831 0.529561,0.4963 0.13974,0.206 0.209613,0.4635 0.209618,0.7724 -5e-6,0.2795 -0.06988,0.5185 -0.209618,0.717 -0.13975,0.1987 -0.327303,0.3531 -0.562659,0.4635 0.316262,0.1102 0.566331,0.2758 0.750213,0.4965 0.191224,0.2132 0.28684,0.5148 0.286846,0.9046 -6e-6,0.3456 -0.06988,0.6325 -0.209618,0.8605 -0.132396,0.228 -0.31995,0.4119 -0.562661,0.5517 -0.235364,0.1397 -0.514855,0.2353 -0.838472,0.2868 -0.323624,0.059 -0.66931,0.088 -1.037057,0.088"
         id="path3054"
         inkscape:connector-curvature="0"
         style="font-size:12px;font-style:normal;font-variant:normal;font-weight:normal;font-stretch:normal;text-align:start;line-height:125%;letter-spacing:0px;word-spacing:0px;writing-mode:lr-tb;text-anchor:start;fill:#ffffff;fill-opacity:1;stroke:none;font-family:Ubuntu;-inkscape-font-specification:Ubuntu" />
      <path
         d="m 79.125811,1045.6851 c 0,-0.5076 0.07355,-0.9489 0.22065,-1.324 0.1471,-0.3824 0.342009,-0.6987 0.584725,-0.9488 0.242715,-0.2501 0.522205,-0.4376 0.838472,-0.5627 0.316265,-0.1249 0.639885,-0.1874 0.970864,-0.1874 0.772273,0 1.364353,0.2426 1.776237,0.7281 0.411877,0.478 0.617817,1.2099 0.617824,2.1955 -7e-6,0.044 -7e-6,0.1029 0,0.1765 -7e-6,0.067 -0.0037,0.1287 -0.01104,0.1876 l -3.927584,0 c 0.04413,0.5957 0.216972,1.048 0.518531,1.357 0.301553,0.3089 0.772274,0.4633 1.412164,0.4633 0.360392,0 0.661947,-0.029 0.904667,-0.088 0.250067,-0.067 0.437619,-0.1287 0.56266,-0.1876 l 0.143422,0.8606 c -0.12504,0.067 -0.345691,0.1361 -0.661952,0.2096 -0.308914,0.073 -0.661955,0.1103 -1.059123,0.1103 -0.500145,0 -0.93409,-0.073 -1.301838,-0.2206 -0.360398,-0.1545 -0.658277,-0.3641 -0.893635,-0.6288 -0.235363,-0.2648 -0.411883,-0.5774 -0.529562,-0.9378 -0.110326,-0.3678 -0.165489,-0.7686 -0.165489,-1.2025 m 3.938614,-0.5628 c 0.0073,-0.4633 -0.110329,-0.8421 -0.353041,-1.1363 -0.235364,-0.3015 -0.562662,-0.4523 -0.981894,-0.4523 -0.235365,0 -0.444982,0.048 -0.628855,0.1434 -0.176523,0.088 -0.327301,0.2059 -0.452335,0.353 -0.125037,0.1471 -0.22433,0.3163 -0.297877,0.5076 -0.0662,0.1912 -0.110327,0.3861 -0.132391,0.5846 l 2.846393,0"
         id="path3056"
         inkscape:connector-curvature="0"
         style="font-size:12px;font-style:normal;font-variant:normal;font-weight:normal;font-stretch:normal;text-align:start;line-height:125%;letter-spacing:0px;word-spacing:0px;writing-mode:lr-tb;text-anchor:start;fill:#ffffff;fill-opacity:1;stroke:none;font-family:Ubuntu;-inkscape-font-specification:Ubuntu" />
      <path
         d="m 90.308319,1048.5424 -1.026025,0 0,-2.5375 -2.64781,0 0,2.5375 -1.026025,0 0,-5.7369 1.026025,0 0,2.3389 2.64781,0 0,-2.3389 1.026025,0 0,5.7369"
         id="path3058"
         inkscape:connector-curvature="0"
         style="font-size:12px;font-style:normal;font-variant:normal;font-weight:normal;font-stretch:normal;text-align:start;line-height:125%;letter-spacing:0px;word-spacing:0px;writing-mode:lr-tb;text-anchor:start;fill:#ffffff;fill-opacity:1;stroke:none;font-family:Ubuntu;-inkscape-font-specification:Ubuntu" />
      <path
         d="m 96.772695,1048.5424 -1.026026,0 0,-2.5375 -2.647809,0 0,2.5375 -1.026026,0 0,-5.7369 1.026026,0 0,2.3389 2.647809,0 0,-2.3389 1.026026,0 0,5.7369"
         id="path3060"
         inkscape:connector-curvature="0"
         style="font-size:12px;font-style:normal;font-variant:normal;font-weight:normal;font-stretch:normal;text-align:start;line-height:125%;letter-spacing:0px;word-spacing:0px;writing-mode:lr-tb;text-anchor:start;fill:#ffffff;fill-opacity:1;stroke:none;font-family:Ubuntu;-inkscape-font-specification:Ubuntu" />
      <path
         d="m 103.60114,1045.674 c 0,0.456 -0.0662,0.8679 -0.19858,1.2357 -0.1324,0.3677 -0.31995,0.684 -0.56266,0.9487 -0.23537,0.2648 -0.51854,0.4708 -0.84951,0.6179 -0.33098,0.1397 -0.69137,0.2096 -1.08118,0.2096 -0.38982,0 -0.75022,-0.07 -1.081193,-0.2096 -0.330979,-0.1471 -0.617824,-0.3531 -0.860539,-0.6179 -0.235361,-0.2647 -0.419236,-0.581 -0.551625,-0.9487 -0.132391,-0.3678 -0.198587,-0.7797 -0.198587,-1.2357 0,-0.4487 0.0662,-0.8568 0.198587,-1.2246 0.132389,-0.3751 0.316264,-0.695 0.551625,-0.9598 0.242715,-0.2648 0.52956,-0.4671 0.860539,-0.6068 0.330973,-0.1471 0.691373,-0.2206 1.081193,-0.2206 0.38981,0 0.7502,0.073 1.08118,0.2206 0.33097,0.1397 0.61414,0.342 0.84951,0.6068 0.24271,0.2648 0.43026,0.5847 0.56266,0.9598 0.13238,0.3678 0.19858,0.7759 0.19858,1.2246 m -1.07015,0 c -1e-5,-0.6472 -0.14711,-1.1584 -0.4413,-1.5335 -0.28685,-0.3825 -0.68035,-0.5737 -1.18048,-0.5737 -0.50015,0 -0.89732,0.1912 -1.191519,0.5737 -0.286847,0.3751 -0.43027,0.8863 -0.430269,1.5335 -1e-6,0.6473 0.143422,1.1621 0.430269,1.5446 0.294199,0.3751 0.691369,0.5626 1.191519,0.5626 0.50013,0 0.89363,-0.1875 1.18048,-0.5626 0.29419,-0.3825 0.44129,-0.8973 0.4413,-1.5446"
         id="path3062"
         inkscape:connector-curvature="0"
         style="font-size:12px;font-style:normal;font-variant:normal;font-weight:normal;font-stretch:normal;text-align:start;line-height:125%;letter-spacing:0px;word-spacing:0px;writing-mode:lr-tb;text-anchor:start;fill:#ffffff;fill-opacity:1;stroke:none;font-family:Ubuntu;-inkscape-font-specification:Ubuntu" />
    </g>
    <g
       id="g3237"
       transform="matrix(1.1,0,0,1.1,-33.811971,-104.20501)"
       style="fill:#ffffff">
      <path
         d="m 330.77048,1042.591 0,5.7369 -0.99292,0 0,-4.3688 c -0.22066,0.2795 -0.46338,0.6067 -0.72815,0.9818 -0.26479,0.3752 -0.52957,0.7649 -0.79434,1.1695 -0.26479,0.3972 -0.51854,0.7906 -0.76126,1.1805 -0.24271,0.3898 -0.45233,0.7355 -0.62884,1.037 l -0.91571,0 0,-5.7369 0.99293,0 0,4.1262 c 0.19123,-0.3163 0.4082,-0.662 0.65092,-1.037 0.24271,-0.3825 0.49278,-0.7577 0.75022,-1.1254 0.26477,-0.3751 0.52587,-0.7318 0.7833,-1.0701 0.26478,-0.3457 0.51117,-0.6436 0.73918,-0.8937 l 0.90467,0"
         id="path3084"
         inkscape:connector-curvature="0"
         style="font-size:12px;font-style:normal;font-variant:normal;font-weight:normal;font-stretch:normal;text-align:start;line-height:125%;letter-spacing:0px;word-spacing:0px;writing-mode:lr-tb;text-anchor:start;fill:#ffffff;fill-opacity:1;stroke:none;font-family:Ubuntu;-inkscape-font-specification:Ubuntu" />
      <path
         d="m 337.24278,1048.3279 -1.02602,0 0,-2.5375 -2.64781,0 0,2.5375 -1.02602,0 0,-5.7369 1.02602,0 0,2.3389 2.64781,0 0,-2.3389 1.02602,0 0,5.7369"
         id="path3086"
         inkscape:connector-curvature="0"
         style="font-size:12px;font-style:normal;font-variant:normal;font-weight:normal;font-stretch:normal;text-align:start;line-height:125%;letter-spacing:0px;word-spacing:0px;writing-mode:lr-tb;text-anchor:start;fill:#ffffff;fill-opacity:1;stroke:none;font-family:Ubuntu;-inkscape-font-specification:Ubuntu" />
      <path
         d="m 338.30122,1047.4894 0.61782,0 c 0.24271,-0.353 0.43395,-0.717 0.5737,-1.0922 0.14709,-0.375 0.25741,-0.7612 0.33097,-1.1583 0.0735,-0.4046 0.12136,-0.8238 0.14342,-1.2578 0.022,-0.4413 0.0367,-0.9046 0.0441,-1.3901 l 3.7621,0 0,4.8984 0.77228,0 0,2.4383 -0.97087,0 0,-1.5998 -4.30269,0 0,1.5998 -0.97086,0 0,-2.4383 m 4.44611,0 0,-4.0379 -1.7983,0 c -0.007,0.3458 -0.0258,0.6952 -0.0552,1.0482 -0.0294,0.3456 -0.0772,0.6913 -0.14342,1.037 -0.0661,0.3384 -0.16181,0.673 -0.28685,1.004 -0.11767,0.3236 -0.26846,0.6398 -0.45232,0.9487 l 2.73606,0"
         id="path3088"
         inkscape:connector-curvature="0"
         style="font-size:12px;font-style:normal;font-variant:normal;font-weight:normal;font-stretch:normal;text-align:start;line-height:125%;letter-spacing:0px;word-spacing:0px;writing-mode:lr-tb;text-anchor:start;fill:#ffffff;fill-opacity:1;stroke:none;font-family:Ubuntu;-inkscape-font-specification:Ubuntu" />
      <path
         d="m 350.48683,1042.591 0,5.7369 -0.99293,0 0,-4.3688 c -0.22066,0.2795 -0.46337,0.6067 -0.72815,0.9818 -0.26478,0.3752 -0.52956,0.7649 -0.79435,1.1695 -0.26477,0.3972 -0.51853,0.7906 -0.76124,1.1805 -0.24272,0.3898 -0.45233,0.7355 -0.62885,1.037 l -0.9157,0 0,-5.7369 0.99293,0 0,4.1262 c 0.19122,-0.3163 0.4082,-0.662 0.65091,-1.037 0.24272,-0.3825 0.49278,-0.7577 0.75022,-1.1254 0.26478,-0.3751 0.52588,-0.7318 0.78331,-1.0701 0.26477,-0.3457 0.51116,-0.6436 0.73918,-0.8937 l 0.90467,0"
         id="path3090"
         inkscape:connector-curvature="0"
         style="font-size:12px;font-style:normal;font-variant:normal;font-weight:normal;font-stretch:normal;text-align:start;line-height:125%;letter-spacing:0px;word-spacing:0px;writing-mode:lr-tb;text-anchor:start;fill:#ffffff;fill-opacity:1;stroke:none;font-family:Ubuntu;-inkscape-font-specification:Ubuntu" />
      <path
         d="m 353.26323,1047.5557 c 0.0441,0.01 0.10665,0.015 0.18756,0.023 0.0808,0.01 0.17283,0.015 0.27581,0.023 0.10297,0 0.20961,0 0.31994,0.011 0.11768,0 0.22801,0 0.33098,0 0.21329,0 0.41555,-0.015 0.60678,-0.044 0.19859,-0.029 0.36776,-0.08 0.5075,-0.1544 0.1471,-0.073 0.26111,-0.1692 0.34202,-0.2869 0.0883,-0.125 0.13237,-0.2831 0.13238,-0.4744 -1e-5,-0.1838 -0.0405,-0.3345 -0.12136,-0.4522 -0.0736,-0.1251 -0.17652,-0.2244 -0.30891,-0.298 -0.13239,-0.073 -0.29053,-0.125 -0.47439,-0.1544 -0.17653,-0.029 -0.36776,-0.044 -0.5737,-0.044 l -1.22461,0 0,1.8535 m 1.09223,-2.6148 c 0.19857,0 0.37878,-0.011 0.54058,-0.033 0.16917,-0.029 0.31259,-0.077 0.43027,-0.1434 0.12504,-0.067 0.22065,-0.1544 0.28685,-0.2648 0.0735,-0.1103 0.11033,-0.2501 0.11033,-0.4192 0,-0.1765 -0.0441,-0.3163 -0.13239,-0.4192 -0.0883,-0.103 -0.20595,-0.1803 -0.35305,-0.2317 -0.13974,-0.059 -0.30155,-0.096 -0.48543,-0.1104 -0.17652,-0.023 -0.35672,-0.033 -0.54059,-0.033 -0.16916,1e-4 -0.34201,0 -0.51852,0.011 -0.16918,0.01 -0.31261,0.015 -0.43028,0.023 l 0,1.6218 1.09223,0 m -0.022,3.4863 c -0.43395,0 -0.8348,-0.023 -1.20255,-0.066 -0.36775,-0.037 -0.65828,-0.081 -0.87157,-0.1324 l 0,-5.5824 c 0.21329,-0.052 0.50382,-0.096 0.87157,-0.1324 0.36775,-0.044 0.7686,-0.066 1.20255,-0.066 0.30155,0 0.59575,0.025 0.8826,0.077 0.28684,0.052 0.54059,0.1398 0.76125,0.2648 0.22064,0.1176 0.39716,0.2831 0.52956,0.4964 0.13974,0.206 0.20961,0.4634 0.20961,0.7723 0,0.2795 -0.0699,0.5185 -0.20961,0.7171 -0.13976,0.1986 -0.32731,0.3531 -0.56267,0.4634 0.31627,0.1103 0.56634,0.2758 0.75022,0.4965 0.19123,0.2132 0.28684,0.5148 0.28685,0.9046 -10e-6,0.3457 -0.0699,0.6325 -0.20962,0.8606 -0.1324,0.2279 -0.31995,0.4119 -0.56266,0.5516 -0.23537,0.1398 -0.51485,0.2353 -0.83848,0.2869 -0.32361,0.059 -0.66931,0.088 -1.03705,0.088"
         id="path3092"
         inkscape:connector-curvature="0"
         style="font-size:12px;font-style:normal;font-variant:normal;font-weight:normal;font-stretch:normal;text-align:start;line-height:125%;letter-spacing:0px;word-spacing:0px;writing-mode:lr-tb;text-anchor:start;fill:#ffffff;fill-opacity:1;stroke:none;font-family:Ubuntu;-inkscape-font-specification:Ubuntu" />
      <path
         d="m 363.13545,1042.591 0,5.7369 -0.99292,0 0,-4.3688 c -0.22066,0.2795 -0.46338,0.6067 -0.72815,0.9818 -0.26479,0.3752 -0.52957,0.7649 -0.79434,1.1695 -0.26479,0.3972 -0.51854,0.7906 -0.76125,1.1805 -0.24271,0.3898 -0.45234,0.7355 -0.62885,1.037 l -0.91571,0 0,-5.7369 0.99293,0 0,4.1262 c 0.19123,-0.3163 0.40821,-0.662 0.65093,-1.037 0.2427,-0.3825 0.49278,-0.7577 0.75021,-1.1254 0.26477,-0.3751 0.52587,-0.7318 0.78331,-1.0701 0.26478,-0.3457 0.51117,-0.6436 0.73917,-0.8937 l 0.90467,0"
         id="path3094"
         inkscape:connector-curvature="0"
         style="font-size:12px;font-style:normal;font-variant:normal;font-weight:normal;font-stretch:normal;text-align:start;line-height:125%;letter-spacing:0px;word-spacing:0px;writing-mode:lr-tb;text-anchor:start;fill:#ffffff;fill-opacity:1;stroke:none;font-family:Ubuntu;-inkscape-font-specification:Ubuntu" />
      <path
         d="m 364.20182,1047.4894 0.61782,0 c 0.24272,-0.353 0.43394,-0.717 0.57369,-1.0922 0.1471,-0.375 0.25742,-0.7612 0.33098,-1.1583 0.0736,-0.4046 0.12135,-0.8238 0.14342,-1.2578 0.022,-0.4413 0.0367,-0.9046 0.0441,-1.3901 l 3.76209,0 0,4.8984 0.77228,0 0,2.4383 -0.97086,0 0,-1.5998 -4.30269,0 0,1.5998 -0.97086,0 0,-2.4383 m 4.4461,0 0,-4.0379 -1.7983,0 c -0.007,0.3458 -0.0258,0.6952 -0.0552,1.0482 -0.0294,0.3456 -0.0772,0.6913 -0.14342,1.037 -0.0661,0.3384 -0.16181,0.673 -0.28685,1.004 -0.11768,0.3236 -0.26846,0.6398 -0.45233,0.9487 l 2.73606,0"
         id="path3096"
         inkscape:connector-curvature="0"
         style="font-size:12px;font-style:normal;font-variant:normal;font-weight:normal;font-stretch:normal;text-align:start;line-height:125%;letter-spacing:0px;word-spacing:0px;writing-mode:lr-tb;text-anchor:start;fill:#ffffff;fill-opacity:1;stroke:none;font-family:Ubuntu;-inkscape-font-specification:Ubuntu" />
      <path
         d="m 371.15179,1049.3981 c 0.0809,0.036 0.18388,0.07 0.30892,0.099 0.13239,0.037 0.2611,0.055 0.38614,0.055 0.40452,0 0.72079,-0.092 0.9488,-0.2757 0.22799,-0.1766 0.43394,-0.4671 0.61782,-0.8716 -0.46338,-0.8826 -0.89732,-1.8167 -1.30185,-2.8023 -0.39717,-0.9929 -0.72814,-1.9969 -0.99292,-3.0119 l 1.10325,0 c 0.0808,0.3311 0.17652,0.6877 0.28685,1.0702 0.11768,0.3825 0.24639,0.7759 0.38614,1.1805 0.13974,0.4045 0.29052,0.809 0.45233,1.2135 0.16181,0.4046 0.33097,0.7944 0.5075,1.1694 0.27949,-0.7722 0.5222,-1.5371 0.72814,-2.2947 0.20594,-0.7576 0.40085,-1.5372 0.58473,-2.3389 l 1.05912,0 c -0.26478,1.0812 -0.55899,2.1219 -0.88261,3.1222 -0.32362,0.9929 -0.67298,1.9233 -1.04809,2.7912 -0.14709,0.3311 -0.30155,0.6142 -0.46336,0.8496 -0.15446,0.2426 -0.3273,0.4413 -0.51853,0.5957 -0.19123,0.1545 -0.40821,0.2685 -0.65091,0.3421 -0.23537,0.073 -0.50383,0.1103 -0.80539,0.1103 -0.0809,0 -0.16548,-0.01 -0.25374,-0.023 -0.0883,-0.01 -0.17653,-0.023 -0.26478,-0.044 -0.081,-0.015 -0.15814,-0.033 -0.23169,-0.055 -0.0661,-0.023 -0.114,-0.04 -0.14342,-0.055 l 0.18755,-0.8274"
         id="path3098"
         inkscape:connector-curvature="0"
         style="font-size:12px;font-style:normal;font-variant:normal;font-weight:normal;font-stretch:normal;text-align:start;line-height:125%;letter-spacing:0px;word-spacing:0px;writing-mode:lr-tb;text-anchor:start;fill:#ffffff;fill-opacity:1;stroke:none;font-family:Ubuntu;-inkscape-font-specification:Ubuntu" />
      <path
         d="m 379.23967,1047.5887 c 0.24272,0 0.45602,0 0.6399,-0.011 0.19122,-0.015 0.34936,-0.036 0.47439,-0.067 l 0,-1.71 c -0.0735,-0.036 -0.19491,-0.066 -0.36407,-0.088 -0.16181,-0.029 -0.3604,-0.044 -0.59576,-0.044 -0.15446,0 -0.31994,0.011 -0.49647,0.033 -0.16916,0.023 -0.3273,0.07 -0.47439,0.1434 -0.13975,0.067 -0.25743,0.1618 -0.35304,0.2868 -0.0956,0.1177 -0.14342,0.2759 -0.14342,0.4744 0,0.3678 0.11768,0.6252 0.35303,0.7724 0.23537,0.1396 0.55531,0.2095 0.95983,0.2095 m -0.0883,-5.1411 c 0.41188,0 0.75757,0.055 1.03705,0.1655 0.28685,0.103 0.51485,0.2538 0.68402,0.4523 0.17652,0.1912 0.30156,0.4229 0.37511,0.695 0.0735,0.2648 0.11032,0.559 0.11033,0.8826 l 0,3.5856 c -0.0883,0.015 -0.2133,0.037 -0.37511,0.067 -0.15446,0.023 -0.33098,0.044 -0.52956,0.067 -0.19859,0.022 -0.41556,0.04 -0.65092,0.055 -0.22801,0.023 -0.45602,0.033 -0.68402,0.033 -0.32362,0 -0.6215,-0.033 -0.89363,-0.099 -0.27214,-0.066 -0.5075,-0.1692 -0.70609,-0.3089 -0.19858,-0.1471 -0.35304,-0.3383 -0.46336,-0.5737 -0.11033,-0.2354 -0.16549,-0.5186 -0.16549,-0.8495 0,-0.3162 0.0625,-0.5884 0.18756,-0.8164 0.13238,-0.2281 0.3089,-0.4119 0.52956,-0.5517 0.22064,-0.1397 0.47807,-0.2426 0.77227,-0.3089 0.2942,-0.067 0.60311,-0.099 0.92673,-0.099 0.10297,0 0.20962,0.01 0.31994,0.023 0.11033,0.01 0.2133,0.023 0.30892,0.044 0.10297,0.015 0.19123,0.029 0.26478,0.044 0.0735,0.015 0.12504,0.025 0.15445,0.033 l 0,-0.2868 c 0,-0.1692 -0.0184,-0.3346 -0.0552,-0.4965 -0.0367,-0.1691 -0.10297,-0.3162 -0.19859,-0.4413 -0.0956,-0.1324 -0.228,-0.2353 -0.39716,-0.3089 -0.16182,-0.08 -0.37512,-0.1213 -0.63989,-0.1213 -0.33834,0 -0.63621,0.026 -0.89363,0.077 -0.25008,0.044 -0.43763,0.092 -0.56266,0.1434 l -0.12137,-0.8495 c 0.13239,-0.059 0.35305,-0.114 0.66196,-0.1655 0.30891,-0.059 0.64356,-0.088 1.00396,-0.088"
         id="path3100"
         inkscape:connector-curvature="0"
         style="font-size:12px;font-style:normal;font-variant:normal;font-weight:normal;font-stretch:normal;text-align:start;line-height:125%;letter-spacing:0px;word-spacing:0px;writing-mode:lr-tb;text-anchor:start;fill:#ffffff;fill-opacity:1;stroke:none;font-family:Ubuntu;-inkscape-font-specification:Ubuntu" />
      <path
         d="m 385.04813,1043.4515 c 0,0.2428 -0.008,0.5039 -0.0221,0.7834 -0.007,0.2721 -0.0258,0.5479 -0.0552,0.8274 -0.0294,0.2721 -0.0699,0.5443 -0.12136,0.8164 -0.0515,0.2648 -0.11768,0.5149 -0.19859,0.7502 -0.0809,0.2354 -0.18388,0.456 -0.30891,0.662 -0.11768,0.2059 -0.26478,0.3898 -0.4413,0.5516 -0.17652,0.1545 -0.38246,0.2869 -0.61782,0.3972 -0.23537,0.1029 -0.51118,0.1692 -0.82744,0.1986 l -0.14343,-0.8606 c 0.3604,-0.073 0.64357,-0.2096 0.84951,-0.4081 0.21329,-0.1987 0.38246,-0.4414 0.5075,-0.7283 0.11032,-0.25 0.19123,-0.5332 0.24272,-0.8494 0.0514,-0.3163 0.0883,-0.6436 0.11031,-0.9819 0.022,-0.3457 0.0331,-0.6914 0.0331,-1.0371 0.007,-0.3457 0.0111,-0.673 0.0111,-0.9819 l 3.81726,0 0,5.7369 -1.02603,0 0,-4.8764 -1.80934,0"
         id="path3102"
         inkscape:connector-curvature="0"
         style="font-size:12px;font-style:normal;font-variant:normal;font-weight:normal;font-stretch:normal;text-align:start;line-height:125%;letter-spacing:0px;word-spacing:0px;writing-mode:lr-tb;text-anchor:start;fill:#ffffff;fill-opacity:1;stroke:none;font-family:Ubuntu;-inkscape-font-specification:Ubuntu" />
      <path
         d="m 391.81832,1047.6109 c 0.43394,0 0.77595,-0.084 1.02603,-0.2539 0.25005,-0.1691 0.37509,-0.4413 0.3751,-0.8163 -10e-6,-0.1839 -0.0367,-0.342 -0.11033,-0.4744 -0.0735,-0.1324 -0.17652,-0.239 -0.30891,-0.32 -0.12504,-0.088 -0.27214,-0.1507 -0.4413,-0.1876 -0.16916,-0.044 -0.34937,-0.067 -0.54059,-0.067 -0.19859,0 -0.40453,0.01 -0.61782,0.023 -0.20595,0.01 -0.38247,0.029 -0.52957,0.067 l 0,1.9749 c 0.0441,0.01 0.11033,0.015 0.19859,0.023 0.0883,0.01 0.18388,0.015 0.28685,0.023 0.11032,0 0.22064,0 0.33097,0.011 0.11768,0 0.22801,0 0.33098,0 m -2.17341,0.5958 0,-5.6156 1.02602,0 0,2.1955 c 0.0588,-0.015 0.13607,-0.029 0.23169,-0.044 0.10296,-0.015 0.20962,-0.029 0.31994,-0.044 0.11767,-0.015 0.23904,-0.025 0.36408,-0.033 0.12502,-0.01 0.2427,-0.011 0.35303,-0.011 0.31627,0 0.61415,0.036 0.89364,0.1103 0.27949,0.066 0.52221,0.1765 0.72814,0.331 0.2133,0.1471 0.38247,0.342 0.50751,0.5847 0.12502,0.2353 0.18754,0.5186 0.18755,0.8495 -10e-6,0.3457 -0.0589,0.6399 -0.17652,0.8826 -0.11769,0.2427 -0.28685,0.4413 -0.5075,0.5957 -0.22066,0.1545 -0.48544,0.2648 -0.79434,0.3311 -0.30157,0.073 -0.63989,0.1102 -1.015,0.1102 -0.36775,0 -0.72815,-0.022 -1.08118,-0.067 -0.35305,-0.036 -0.69873,-0.096 -1.03706,-0.1765"
         id="path3104"
         inkscape:connector-curvature="0"
         style="font-size:12px;font-style:normal;font-variant:normal;font-weight:normal;font-stretch:normal;text-align:start;line-height:125%;letter-spacing:0px;word-spacing:0px;writing-mode:lr-tb;text-anchor:start;fill:#ffffff;fill-opacity:1;stroke:none;font-family:Ubuntu;-inkscape-font-specification:Ubuntu" />
      <path
         d="m 400.1627,1048.3279 -1.02602,0 0,-2.5375 -2.64781,0 0,2.5375 -1.02602,0 0,-5.7369 1.02602,0 0,2.3389 2.64781,0 0,-2.3389 1.02602,0 0,5.7369"
         id="path3106"
         inkscape:connector-curvature="0"
         style="font-size:12px;font-style:normal;font-variant:normal;font-weight:normal;font-stretch:normal;text-align:start;line-height:125%;letter-spacing:0px;word-spacing:0px;writing-mode:lr-tb;text-anchor:start;fill:#ffffff;fill-opacity:1;stroke:none;font-family:Ubuntu;-inkscape-font-specification:Ubuntu" />
      <path
         d="m 406.99116,1045.4595 c -10e-6,0.456 -0.0662,0.8679 -0.19859,1.2356 -0.1324,0.3677 -0.31995,0.6841 -0.56266,0.9488 -0.23536,0.2648 -0.51853,0.4708 -0.84951,0.6179 -0.33098,0.1397 -0.69137,0.2096 -1.08118,0.2096 -0.38982,0 -0.75021,-0.07 -1.08119,-0.2096 -0.33098,-0.1471 -0.61782,-0.3531 -0.86054,-0.6179 -0.23536,-0.2647 -0.41923,-0.5811 -0.55163,-0.9488 -0.13239,-0.3677 -0.19859,-0.7796 -0.19858,-1.2356 -10e-6,-0.4487 0.0661,-0.8568 0.19858,-1.2246 0.1324,-0.3751 0.31627,-0.6951 0.55163,-0.9599 0.24272,-0.2648 0.52956,-0.467 0.86054,-0.6068 0.33098,-0.1471 0.69137,-0.2206 1.08119,-0.2206 0.38981,0 0.7502,0.073 1.08118,0.2206 0.33098,0.1398 0.61415,0.342 0.84951,0.6068 0.24271,0.2648 0.43026,0.5848 0.56266,0.9599 0.13239,0.3677 0.19858,0.7759 0.19859,1.2246 m -1.07016,0 c 0,-0.6472 -0.14711,-1.1584 -0.44131,-1.5335 -0.28684,-0.3825 -0.68033,-0.5737 -1.18047,-0.5737 -0.50015,0 -0.89732,0.1912 -1.19152,0.5737 -0.28684,0.3751 -0.43027,0.8863 -0.43027,1.5335 0,0.6473 0.14343,1.162 0.43027,1.5445 0.2942,0.3752 0.69137,0.5627 1.19152,0.5627 0.50014,0 0.89363,-0.1875 1.18047,-0.5627 0.2942,-0.3825 0.44131,-0.8972 0.44131,-1.5445"
         id="path3108"
         inkscape:connector-curvature="0"
         style="font-size:12px;font-style:normal;font-variant:normal;font-weight:normal;font-stretch:normal;text-align:start;line-height:125%;letter-spacing:0px;word-spacing:0px;writing-mode:lr-tb;text-anchor:start;fill:#ffffff;fill-opacity:1;stroke:none;font-family:Ubuntu;-inkscape-font-specification:Ubuntu" />
    </g>
    <g
       id="g3226"
       transform="matrix(1.1,0,0,1.1,-21.602221,-104.03343)"
       style="fill:#ffffff">
      <path
         d="m 202.12422,1045.6519 c -1e-5,0.4413 -0.0588,0.8459 -0.17652,1.2136 -0.11033,0.3678 -0.28317,0.6877 -0.51853,0.9599 -0.23537,0.2647 -0.52957,0.4743 -0.88261,0.6288 -0.35304,0.1471 -0.76492,0.2206 -1.23564,0.2206 -0.41188,0 -0.77595,-0.033 -1.09222,-0.099 -0.31627,-0.067 -0.53324,-0.1324 -0.65093,-0.1987 l 0.14343,-0.8715 c 0.0662,0.036 0.15446,0.07 0.26478,0.099 0.11033,0.029 0.23169,0.059 0.36407,0.088 0.13975,0.023 0.28317,0.04 0.43027,0.055 0.1471,0.015 0.29421,0.022 0.44131,0.022 0.59575,0 1.04073,-0.1544 1.33493,-0.4633 0.30156,-0.3164 0.4744,-0.7503 0.51853,-1.302 l -2.3389,0 0,-0.8274 2.31684,0 c -0.0661,-0.4927 -0.24273,-0.8826 -0.52956,-1.1694 -0.2795,-0.2942 -0.69506,-0.4413 -1.24668,-0.4413 -0.30156,0 -0.56634,0.025 -0.79434,0.077 -0.22801,0.044 -0.40453,0.096 -0.52956,0.1545 l -0.22066,-0.8275 c 0.0736,-0.037 0.16917,-0.073 0.28685,-0.1103 0.12504,-0.036 0.25742,-0.07 0.39717,-0.099 0.1471,-0.029 0.29788,-0.051 0.45233,-0.067 0.15446,-0.023 0.30524,-0.033 0.45234,-0.033 0.46336,0 0.86789,0.077 1.21358,0.2316 0.35304,0.1545 0.64723,0.3677 0.8826,0.6399 0.23536,0.2721 0.41188,0.5884 0.52956,0.9488 0.12503,0.3604 0.18755,0.7502 0.18756,1.1694"
         id="path3065"
         inkscape:connector-curvature="0"
         style="font-size:12px;font-style:normal;font-variant:normal;font-weight:normal;font-stretch:normal;text-align:start;line-height:125%;letter-spacing:0px;word-spacing:0px;writing-mode:lr-tb;text-anchor:start;fill:#ffffff;fill-opacity:1;stroke:none;font-family:Ubuntu;-inkscape-font-specification:Ubuntu" />
      <path
         d="m 206.06335,1048.6748 c -0.46337,0 -0.87158,-0.073 -1.22461,-0.2206 -0.34569,-0.1472 -0.63989,-0.353 -0.88261,-0.6178 -0.23536,-0.2648 -0.41187,-0.5774 -0.52955,-0.9378 -0.11769,-0.3677 -0.17653,-0.7722 -0.17653,-1.2135 0,-0.4413 0.0625,-0.8459 0.18755,-1.2137 0.13239,-0.3677 0.31627,-0.6839 0.55163,-0.9487 0.23536,-0.2722 0.52221,-0.4818 0.86054,-0.6289 0.34569,-0.1544 0.72814,-0.2316 1.14739,-0.2316 0.25741,0 0.51484,0.022 0.77227,0.066 0.25742,0.044 0.50381,0.114 0.73918,0.2096 l -0.23168,0.8716 c -0.15446,-0.073 -0.33466,-0.1324 -0.5406,-0.1765 -0.19859,-0.044 -0.41188,-0.066 -0.63988,-0.066 -0.5737,0 -1.015,0.1802 -1.32391,0.5406 -0.30156,0.3604 -0.45233,0.8863 -0.45233,1.5777 0,0.3089 0.0331,0.592 0.0993,0.8494 0.0736,0.2575 0.18387,0.4781 0.33098,0.662 0.15445,0.1839 0.34936,0.3273 0.58472,0.4302 0.23536,0.096 0.52221,0.1435 0.86053,0.1435 0.27214,0 0.51853,-0.025 0.73919,-0.077 0.22065,-0.052 0.39349,-0.1067 0.51853,-0.1655 l 0.14342,0.8605 c -0.0588,0.036 -0.14342,0.073 -0.25375,0.1104 -0.11033,0.029 -0.23536,0.055 -0.37511,0.077 -0.13975,0.029 -0.29052,0.052 -0.45233,0.067 -0.15445,0.023 -0.30524,0.033 -0.45233,0.033"
         id="path3067"
         inkscape:connector-curvature="0"
         style="font-size:12px;font-style:normal;font-variant:normal;font-weight:normal;font-stretch:normal;text-align:start;line-height:125%;letter-spacing:0px;word-spacing:0px;writing-mode:lr-tb;text-anchor:start;fill:#ffffff;fill-opacity:1;stroke:none;font-family:Ubuntu;-inkscape-font-specification:Ubuntu" />
      <path
         d="m 212.91972,1042.8055 0,0.8606 -1.8645,0 0,4.8763 -1.02602,0 0,-4.8763 -1.8645,0 0,-0.8606 4.75502,0"
         id="path3069"
         inkscape:connector-curvature="0"
         style="font-size:12px;font-style:normal;font-variant:normal;font-weight:normal;font-stretch:normal;text-align:start;line-height:125%;letter-spacing:0px;word-spacing:0px;writing-mode:lr-tb;text-anchor:start;fill:#ffffff;fill-opacity:1;stroke:none;font-family:Ubuntu;-inkscape-font-specification:Ubuntu" />
      <path
         d="m 213.6577,1045.6851 c 0,-0.5076 0.0735,-0.9489 0.22065,-1.324 0.14709,-0.3824 0.34201,-0.6987 0.58472,-0.9488 0.24272,-0.2501 0.52221,-0.4376 0.83847,-0.5627 0.31627,-0.1249 0.63989,-0.1874 0.97087,-0.1874 0.77227,0 1.36435,0.2426 1.77624,0.7281 0.41187,0.478 0.61781,1.2099 0.61782,2.1955 -1e-5,0.044 -1e-5,0.1029 0,0.1765 -1e-5,0.067 -0.004,0.1287 -0.0111,0.1876 l -3.92758,0 c 0.0441,0.5957 0.21697,1.048 0.51853,1.357 0.30155,0.3089 0.77228,0.4633 1.41217,0.4633 0.36039,0 0.66194,-0.029 0.90466,-0.088 0.25007,-0.067 0.43762,-0.1287 0.56266,-0.1876 l 0.14343,0.8606 c -0.12504,0.067 -0.34569,0.1361 -0.66196,0.2096 -0.30891,0.073 -0.66196,0.1103 -1.05912,0.1103 -0.50014,0 -0.93409,-0.073 -1.30184,-0.2206 -0.3604,-0.1545 -0.65828,-0.3641 -0.89364,-0.6288 -0.23535,-0.2648 -0.41188,-0.5774 -0.52956,-0.9378 -0.11033,-0.3678 -0.16548,-0.7686 -0.16548,-1.2025 m 3.93861,-0.5628 c 0.008,-0.4633 -0.11033,-0.8421 -0.35304,-1.1363 -0.23536,-0.3015 -0.56266,-0.4523 -0.9819,-0.4523 -0.23536,0 -0.44498,0.048 -0.62885,0.1434 -0.17652,0.088 -0.3273,0.2059 -0.45233,0.353 -0.12504,0.1471 -0.22433,0.3163 -0.29788,0.5076 -0.0661,0.1912 -0.11033,0.3861 -0.13239,0.5846 l 2.84639,0"
         id="path3071"
         inkscape:connector-curvature="0"
         style="font-size:12px;font-style:normal;font-variant:normal;font-weight:normal;font-stretch:normal;text-align:start;line-height:125%;letter-spacing:0px;word-spacing:0px;writing-mode:lr-tb;text-anchor:start;fill:#ffffff;fill-opacity:1;stroke:none;font-family:Ubuntu;-inkscape-font-specification:Ubuntu" />
      <path
         d="m 224.18929,1042.8055 0,0.8606 -1.8645,0 0,4.8763 -1.02603,0 0,-4.8763 -1.8645,0 0,-0.8606 4.75503,0"
         id="path3073"
         inkscape:connector-curvature="0"
         style="font-size:12px;font-style:normal;font-variant:normal;font-weight:normal;font-stretch:normal;text-align:start;line-height:125%;letter-spacing:0px;word-spacing:0px;writing-mode:lr-tb;text-anchor:start;fill:#ffffff;fill-opacity:1;stroke:none;font-family:Ubuntu;-inkscape-font-specification:Ubuntu" />
      <path
         d="m 230.06842,1042.8055 0,5.7369 -0.99293,0 0,-4.3688 c -0.22066,0.2795 -0.46337,0.6067 -0.72815,0.9819 -0.26479,0.3751 -0.52956,0.7649 -0.79434,1.1694 -0.26479,0.3972 -0.51853,0.7907 -0.76124,1.1805 -0.24272,0.3899 -0.45234,0.7355 -0.62886,1.037 l -0.9157,0 0,-5.7369 0.99292,0 0,4.1262 c 0.19124,-0.3162 0.40821,-0.662 0.65093,-1.037 0.24271,-0.3825 0.49278,-0.7577 0.75021,-1.1254 0.26478,-0.3751 0.52588,-0.7318 0.78331,-1.0701 0.26478,-0.3457 0.51117,-0.6436 0.73918,-0.8937 l 0.90467,0"
         id="path3075"
         inkscape:connector-curvature="0"
         style="font-size:12px;font-style:normal;font-variant:normal;font-weight:normal;font-stretch:normal;text-align:start;line-height:125%;letter-spacing:0px;word-spacing:0px;writing-mode:lr-tb;text-anchor:start;fill:#ffffff;fill-opacity:1;stroke:none;font-family:Ubuntu;-inkscape-font-specification:Ubuntu" />
      <path
         d="m 232.49178,1042.8055 0,1.688 c 0,0.4339 0.11033,0.7392 0.33097,0.9157 0.22066,0.1691 0.52222,0.2538 0.90467,0.2538 0.2795,0 0.51118,-0.015 0.69506,-0.044 0.19122,-0.029 0.36039,-0.063 0.50749,-0.099 l 0,-2.714 1.02603,0 0,5.7369 -1.02603,0 0,-2.2285 c -0.0588,0.015 -0.13607,0.033 -0.23168,0.055 -0.0956,0.023 -0.20595,0.044 -0.33098,0.067 -0.11768,0.015 -0.24271,0.029 -0.3751,0.044 -0.1324,0.015 -0.26111,0.023 -0.38614,0.023 -0.31627,0 -0.6068,-0.033 -0.87157,-0.099 -0.25743,-0.067 -0.48175,-0.1765 -0.67299,-0.3309 -0.18387,-0.1545 -0.33097,-0.3568 -0.44129,-0.6069 -0.10298,-0.2574 -0.15446,-0.5773 -0.15446,-0.9598 l 0,-1.699 1.02602,0"
         id="path3077"
         inkscape:connector-curvature="0"
         style="font-size:12px;font-style:normal;font-variant:normal;font-weight:normal;font-stretch:normal;text-align:start;line-height:125%;letter-spacing:0px;word-spacing:0px;writing-mode:lr-tb;text-anchor:start;fill:#ffffff;fill-opacity:1;stroke:none;font-family:Ubuntu;-inkscape-font-specification:Ubuntu" />
      <path
         d="m 242.42331,1048.5424 -1.02604,0 0,-2.5375 -2.6478,0 0,2.5375 -1.02603,0 0,-5.7369 1.02603,0 0,2.3389 2.6478,0 0,-2.3389 1.02604,0 0,5.7369"
         id="path3079"
         inkscape:connector-curvature="0"
         style="font-size:12px;font-style:normal;font-variant:normal;font-weight:normal;font-stretch:normal;text-align:start;line-height:125%;letter-spacing:0px;word-spacing:0px;writing-mode:lr-tb;text-anchor:start;fill:#ffffff;fill-opacity:1;stroke:none;font-family:Ubuntu;-inkscape-font-specification:Ubuntu" />
      <path
         d="m 249.25175,1045.674 c 0,0.456 -0.0662,0.8679 -0.19858,1.2357 -0.1324,0.3677 -0.31995,0.684 -0.56267,0.9487 -0.23535,0.2648 -0.51852,0.4708 -0.8495,0.6179 -0.33097,0.1397 -0.69137,0.2096 -1.08118,0.2096 -0.38983,0 -0.75022,-0.07 -1.08119,-0.2096 -0.33098,-0.1471 -0.61783,-0.3531 -0.86054,-0.6179 -0.23536,-0.2647 -0.41924,-0.581 -0.55163,-0.9487 -0.13239,-0.3678 -0.19859,-0.7797 -0.19859,-1.2357 0,-0.4487 0.0662,-0.8568 0.19859,-1.2246 0.13239,-0.3751 0.31627,-0.695 0.55163,-0.9598 0.24271,-0.2648 0.52956,-0.4671 0.86054,-0.6068 0.33097,-0.1471 0.69136,-0.2206 1.08119,-0.2206 0.38981,0 0.75021,0.073 1.08118,0.2206 0.33098,0.1397 0.61415,0.342 0.8495,0.6068 0.24272,0.2648 0.43027,0.5847 0.56267,0.9598 0.13238,0.3678 0.19858,0.7759 0.19858,1.2246 m -1.07015,0 c -1e-5,-0.6472 -0.14711,-1.1584 -0.4413,-1.5335 -0.28685,-0.3825 -0.68035,-0.5737 -1.18048,-0.5737 -0.50015,0 -0.89732,0.1912 -1.19152,0.5737 -0.28684,0.3751 -0.43027,0.8863 -0.43027,1.5335 0,0.6473 0.14343,1.1621 0.43027,1.5446 0.2942,0.3751 0.69137,0.5626 1.19152,0.5626 0.50013,0 0.89363,-0.1875 1.18048,-0.5626 0.29419,-0.3825 0.44129,-0.8973 0.4413,-1.5446"
         id="path3081"
         inkscape:connector-curvature="0"
         style="font-size:12px;font-style:normal;font-variant:normal;font-weight:normal;font-stretch:normal;text-align:start;line-height:125%;letter-spacing:0px;word-spacing:0px;writing-mode:lr-tb;text-anchor:start;fill:#ffffff;fill-opacity:1;stroke:none;font-family:Ubuntu;-inkscape-font-specification:Ubuntu" />
    </g>
  </g>
</svg>
