<?xml version="1.0" encoding="UTF-8" standalone="no"?>
<!-- Created with Inkscape (http://www.inkscape.org/) -->

<svg
   xmlns:dc="http://purl.org/dc/elements/1.1/"
   xmlns:cc="http://creativecommons.org/ns#"
   xmlns:rdf="http://www.w3.org/1999/02/22-rdf-syntax-ns#"
   xmlns:svg="http://www.w3.org/2000/svg"
   xmlns="http://www.w3.org/2000/svg"
   xmlns:sodipodi="http://sodipodi.sourceforge.net/DTD/sodipodi-0.dtd"
   xmlns:inkscape="http://www.inkscape.org/namespaces/inkscape"
   width="200"
   height="30"
   id="svg2"
   version="1.1"
   inkscape:version="0.48.3.1 r9886"
   sodipodi:docname="nikitron+.pdf">
  <defs
     id="defs4" />
  <sodipodi:namedview
     id="base"
     pagecolor="#ffffff"
     bordercolor="#666666"
     borderopacity="1.0"
     inkscape:pageopacity="0.0"
     inkscape:pageshadow="2"
     inkscape:zoom="8.79375"
     inkscape:cx="78.235335"
     inkscape:cy="31.071958"
     inkscape:document-units="px"
     inkscape:current-layer="layer1"
     showgrid="false"
     inkscape:window-width="1631"
     inkscape:window-height="1002"
     inkscape:window-x="49"
     inkscape:window-y="24"
     inkscape:window-maximized="1" />
  <metadata
     id="metadata7">
    <rdf:RDF>
      <cc:Work
         rdf:about="">
        <dc:format>image/svg+xml</dc:format>
        <dc:type
           rdf:resource="http://purl.org/dc/dcmitype/StillImage" />
        <dc:title></dc:title>
      </cc:Work>
    </rdf:RDF>
  </metadata>
  <g
     inkscape:label="Layer 1"
     inkscape:groupmode="layer"
     id="layer1"
     transform="translate(0,-1022.3622)">
    <g
       transform="matrix(0.85449433,0,0,0.85449433,5.3530073,1014.9917)"
       style="font-size:20px;font-style:normal;font-variant:normal;font-weight:normal;font-stretch:normal;text-align:start;line-height:125%;letter-spacing:0px;word-spacing:0px;writing-mode:lr-tb;text-anchor:start;fill:#ffffff;fill-opacity:1;stroke:none;font-family:Ubuntu;-inkscape-font-specification:Ubuntu"
       id="flowRoot2985">
      <path
         d="m 20.88125,21.959753 c 0.426665,-0.106656 0.993331,-0.21999 1.7,-0.34 0.706663,-0.119989 1.519995,-0.179989 2.44,-0.18 0.82666,1.1e-5 1.513326,0.120011 2.06,0.36 0.546658,0.226677 0.979991,0.553343 1.3,0.98 0.333324,0.413342 0.566657,0.913342 0.7,1.5 0.133323,0.586674 0.19999,1.23334 0.2,1.94 l 0,5.84 -1.86,0 0,-5.44 c -8e-6,-0.639994 -0.04668,-1.18666 -0.14,-1.64 -0.08001,-0.453326 -0.220008,-0.819992 -0.42,-1.1 -0.200007,-0.279991 -0.466674,-0.479991 -0.8,-0.6 -0.33334,-0.133324 -0.746673,-0.199991 -1.24,-0.2 -0.200005,9e-6 -0.406672,0.0067 -0.62,0.02 -0.213338,0.01334 -0.420005,0.03334 -0.62,0.06 -0.186671,0.01334 -0.360004,0.03334 -0.52,0.06 -0.14667,0.02668 -0.253337,0.04668 -0.32,0.06 l 0,8.78 -1.86,0 0,-10.1"
         id="path2994"
         inkscape:connector-curvature="0"
         style="fill:#ffffff" />
      <path
         d="m 34.225625,32.059753 -1.86,0 0,-10.4 1.86,0 0,10.4 m -0.94,-12.28 c -0.333336,1.2e-5 -0.620002,-0.106654 -0.86,-0.32 -0.226668,-0.226654 -0.340001,-0.526653 -0.34,-0.9 -10e-7,-0.373319 0.113332,-0.666652 0.34,-0.88 0.239998,-0.226652 0.526664,-0.339985 0.86,-0.34 0.33333,1.5e-5 0.61333,0.113348 0.84,0.34 0.239996,0.213348 0.359996,0.506681 0.36,0.88 -4e-6,0.373347 -0.120004,0.673346 -0.36,0.9 -0.22667,0.213346 -0.50667,0.320012 -0.84,0.32"
         id="path2996"
         inkscape:connector-curvature="0"
         style="fill:#ffffff" />
      <path
         d="m 41.20375,26.339753 c 0.399994,0.306672 0.819994,0.686672 1.26,1.14 0.453326,0.453338 0.893326,0.94667 1.32,1.48 0.439992,0.520003 0.853325,1.053335 1.24,1.6 0.386657,0.533334 0.713323,1.033334 0.98,1.5 l -2.18,0 c -0.280008,-0.466666 -0.606674,-0.939999 -0.98,-1.42 -0.360007,-0.493331 -0.740006,-0.959998 -1.14,-1.4 -0.400005,-0.45333 -0.806672,-0.866663 -1.22,-1.24 -0.413338,-0.373329 -0.806671,-0.686662 -1.18,-0.94 l 0,5 -1.86,0 0,-15.2 1.86,-0.32 0,9.48 c 0.319996,-0.319994 0.673329,-0.673327 1.06,-1.06 0.386662,-0.386659 0.766661,-0.779992 1.14,-1.18 0.373327,-0.399991 0.72666,-0.779991 1.06,-1.14 0.333326,-0.373323 0.619993,-0.69999 0.86,-0.98 l 2.18,0 c -0.306676,0.333343 -0.640009,0.70001 -1,1.1 -0.360008,0.400009 -0.733341,0.806675 -1.12,1.22 -0.386674,0.400008 -0.780007,0.806674 -1.18,1.22 -0.386673,0.400007 -0.753339,0.780006 -1.1,1.14"
         id="path2998"
         inkscape:connector-curvature="0"
         style="fill:#ffffff" />
      <path
         d="m 49.733437,32.059753 -1.859999,0 0,-10.4 1.859999,0 0,10.4 m -0.939999,-12.28 c -0.333336,1.2e-5 -0.620002,-0.106654 -0.860001,-0.32 -0.226668,-0.226654 -0.340001,-0.526653 -0.34,-0.9 -1e-6,-0.373319 0.113332,-0.666652 0.34,-0.88 0.239999,-0.226652 0.526665,-0.339985 0.860001,-0.34 0.33333,1.5e-5 0.61333,0.113348 0.839999,0.34 0.239997,0.213348 0.359997,0.506681 0.36,0.88 -3e-6,0.373347 -0.120003,0.673346 -0.36,0.9 -0.226669,0.213346 -0.506669,0.320012 -0.839999,0.32"
         id="path3000"
         inkscape:connector-curvature="0"
         style="fill:#ffffff" />
      <path
         d="m 54.691563,21.659753 3.939999,0 0,1.56 -3.939999,0 0,4.8 c -4e-6,0.520004 0.04,0.953336 0.119999,1.3 0.08,0.333336 0.199997,0.600002 0.36,0.8 0.159997,0.186668 0.359996,0.320002 0.600001,0.4 0.239995,0.08 0.519995,0.120001 0.839999,0.12 0.559995,1e-6 1.006661,-0.06 1.340001,-0.18 0.346659,-0.133332 0.586659,-0.226665 0.719999,-0.28 l 0.36,1.54 c -0.186674,0.09333 -0.51334,0.206667 -0.979999,0.34 -0.466673,0.146667 -1.000006,0.22 -1.6,0.22 -0.706672,0 -1.293338,-0.08667 -1.76,-0.26 -0.453337,-0.186666 -0.820003,-0.459999 -1.1,-0.82 -0.280002,-0.359999 -0.480002,-0.799998 -0.600001,-1.32 -0.106668,-0.533331 -0.160001,-1.146663 -0.16,-1.84 l 0,-9.28 1.860001,-0.32 0,3.22"
         id="path3002"
         inkscape:connector-curvature="0"
         style="fill:#ffffff" />
      <path
         d="m 64.838437,21.439753 c 0.159995,1.1e-5 0.339995,0.01334 0.540001,0.04 0.213327,0.01334 0.419993,0.04001 0.619999,0.08 0.199994,0.02668 0.379994,0.06001 0.54,0.1 0.173327,0.02668 0.299993,0.05334 0.38,0.08 l -0.319999,1.62 c -0.146674,-0.05333 -0.393341,-0.113324 -0.740001,-0.18 -0.333339,-0.07999 -0.766672,-0.119991 -1.3,-0.12 -0.346671,9e-6 -0.693337,0.04001 -1.04,0.12 -0.333337,0.06668 -0.553336,0.113342 -0.66,0.14 l 0,8.74 -1.859999,0 0,-9.96 c 0.439997,-0.15999 0.986664,-0.306656 1.64,-0.44 0.653329,-0.146656 1.386662,-0.219989 2.199999,-0.22"
         id="path3004"
         inkscape:connector-curvature="0"
         style="fill:#ffffff" />
      <path
         d="m 77.912812,26.859753 c -1e-5,0.826671 -0.12001,1.573337 -0.359999,2.24 -0.240011,0.666669 -0.58001,1.240002 -1.02,1.72 -0.426676,0.480001 -0.940009,0.853334 -1.540001,1.12 -0.600007,0.253333 -1.253339,0.38 -1.959999,0.38 -0.706672,0 -1.360005,-0.126667 -1.960001,-0.38 -0.600003,-0.266666 -1.120002,-0.639999 -1.56,-1.12 -0.426668,-0.479998 -0.760001,-1.053331 -1,-1.72 -0.240001,-0.666663 -0.360001,-1.413329 -0.36,-2.24 -10e-7,-0.813327 0.119999,-1.553327 0.36,-2.22 0.239999,-0.679992 0.573332,-1.259991 1,-1.74 0.439998,-0.47999 0.959997,-0.846657 1.56,-1.1 0.599996,-0.266656 1.253329,-0.399989 1.960001,-0.4 0.70666,1.1e-5 1.359992,0.133344 1.959999,0.4 0.599992,0.253343 1.113325,0.62001 1.540001,1.1 0.43999,0.480009 0.779989,1.060008 1.02,1.74 0.239989,0.666673 0.359989,1.406673 0.359999,2.22 m -1.939999,0 c -9e-6,-1.173327 -0.266676,-2.099993 -0.8,-2.78 -0.520008,-0.693325 -1.233341,-1.039991 -2.14,-1.04 -0.906672,9e-6 -1.626671,0.346675 -2.160001,1.04 -0.520003,0.680007 -0.780002,1.606673 -0.78,2.78 -2e-6,1.173337 0.259997,2.10667 0.78,2.8 0.53333,0.680002 1.253329,1.020001 2.160001,1.02 0.906659,10e-7 1.619992,-0.339998 2.14,-1.02 0.533324,-0.69333 0.799991,-1.626663 0.8,-2.8"
         id="path3006"
         inkscape:connector-curvature="0"
         style="fill:#ffffff" />
      <path
         d="m 80.529687,21.959753 c 0.426665,-0.106656 0.993331,-0.21999 1.7,-0.34 0.706663,-0.119989 1.519996,-0.179989 2.44,-0.18 0.826661,1.1e-5 1.513327,0.120011 2.06,0.36 0.546659,0.226677 0.979992,0.553343 1.3,0.98 0.333324,0.413342 0.566657,0.913342 0.7,1.5 0.133324,0.586674 0.19999,1.23334 0.2,1.94 l 0,5.84 -1.86,0 0,-5.44 c -8e-6,-0.639994 -0.04667,-1.18666 -0.14,-1.64 -0.08001,-0.453326 -0.220007,-0.819992 -0.42,-1.1 -0.200007,-0.279991 -0.466673,-0.479991 -0.8,-0.6 -0.333339,-0.133324 -0.746672,-0.199991 -1.239999,-0.2 -0.200006,9e-6 -0.406672,0.0067 -0.62,0.02 -0.213339,0.01334 -0.420005,0.03334 -0.620001,0.06 -0.18667,0.01334 -0.360003,0.03334 -0.52,0.06 -0.14667,0.02668 -0.253336,0.04668 -0.32,0.06 l 0,8.78 -1.86,0 0,-10.1"
         id="path3008"
         inkscape:connector-curvature="0"
         style="fill:#ffffff" />
      <path
         d="m 104.21406,31.199753 c -0.42668,10e-7 -0.78001,-0.06 -1.06,-0.18 -0.28001,-0.119999 -0.51334,-0.279999 -0.7,-0.48 -0.29334,0.160001 -0.64668,0.300001 -1.06,0.42 -0.41334,0.106668 -0.82667,0.160001 -1.24,0.16 -0.640007,1e-6 -1.226673,-0.1 -1.759997,-0.3 -0.520008,-0.199999 -0.973341,-0.493332 -1.36,-0.88 -0.386673,-0.399997 -0.686673,-0.886664 -0.900001,-1.46 -0.213338,-0.573329 -0.320005,-1.239995 -0.319999,-2 -6e-6,-0.639994 0.09999,-1.239993 0.3,-1.8 0.199994,-0.573325 0.493327,-1.066658 0.879999,-1.48 0.399994,-0.426657 0.879993,-0.75999 1.44,-1 0.573325,-0.23999 1.219991,-0.35999 1.939998,-0.36 0.67999,10e-6 1.29999,0.05334 1.86,0.16 0.57332,0.106677 1.01332,0.213343 1.32,0.32 l 0,6.12 c -1e-5,0.42667 0.0733,0.72667 0.22,0.9 0.14666,0.173336 0.33999,0.260003 0.58,0.26 0.34665,3e-6 0.64665,-0.119997 0.9,-0.36 0.26665,-0.239997 0.47999,-0.55333 0.64,-0.94 0.17332,-0.386662 0.29999,-0.819995 0.38,-1.3 0.08,-0.493328 0.11999,-0.993327 0.12,-1.5 -1e-5,-0.839993 -0.14668,-1.626658 -0.44,-2.36 -0.29335,-0.746657 -0.71335,-1.39999 -1.26,-1.96 -0.54668,-0.559989 -1.21334,-0.999988 -2,-1.32 -0.77334,-0.319987 -1.64667,-0.479987 -2.62,-0.48 -0.97334,1.3e-5 -1.866672,0.166679 -2.679997,0.5 -0.81334,0.320012 -1.513339,0.786678 -2.100001,1.4 -0.58667,0.60001 -1.04667,1.340009 -1.38,2.22 -0.320003,0.880008 -0.480003,1.880007 -0.48,3 -3e-6,1.173338 0.173331,2.20667 0.520001,3.1 0.346662,0.880002 0.826662,1.620001 1.44,2.22 0.626661,0.586666 1.359993,1.026666 2.2,1.32 0.853325,0.306665 1.786657,0.459999 2.799997,0.46 0.78666,-10e-7 1.43332,-0.04667 1.94,-0.14 0.51999,-0.09333 0.85332,-0.166668 1,-0.22 l 0.2,1.48 c -0.22668,0.08 -0.64001,0.166664 -1.24,0.26 -0.58668,0.09333 -1.22001,0.139997 -1.9,0.14 -1.186673,-3e-6 -2.306672,-0.173336 -3.359997,-0.52 -1.053339,-0.333335 -1.973338,-0.853335 -2.760001,-1.56 -0.786669,-0.693334 -1.413335,-1.579999 -1.879999,-2.66 -0.453335,-1.093331 -0.680002,-2.386663 -0.680001,-3.88 -10e-7,-1.439993 0.226666,-2.699992 0.680001,-3.78 0.45333,-1.07999 1.059996,-1.973322 1.819999,-2.68 0.773329,-0.719987 1.659995,-1.259987 2.66,-1.62 1.013326,-0.359986 2.079992,-0.539986 3.199998,-0.54 1.09333,1.4e-5 2.12666,0.180014 3.1,0.54 0.97332,0.34668 1.82665,0.860013 2.56,1.54 0.73332,0.666678 1.31332,1.480011 1.74,2.44 0.42665,0.946675 0.63998,2.020008 0.64,3.22 -2e-5,0.906672 -0.10668,1.706671 -0.32,2.4 -0.20001,0.693337 -0.47335,1.280003 -0.82,1.76 -0.34668,0.466669 -0.76001,0.820002 -1.24,1.06 -0.48001,0.240001 -0.98668,0.360001 -1.52,0.36 m -4,-1.62 c 0.27999,3e-6 0.55999,-0.02666 0.84,-0.08 0.29332,-0.06666 0.55332,-0.159997 0.78,-0.28 -0.04,-0.17333 -0.0667,-0.346663 -0.08,-0.52 -0.0133,-0.17333 -0.02,-0.339996 -0.02,-0.5 l 0,-4.7 c -0.08,-0.02666 -0.23334,-0.05332 -0.46,-0.08 -0.22667,-0.02666 -0.48001,-0.03999 -0.76,-0.04 -0.946673,9e-6 -1.653339,0.293342 -2.119997,0.88 -0.466675,0.586674 -0.700008,1.326673 -0.700001,2.22 -7e-6,0.946671 0.22666,1.700004 0.680001,2.26 0.453324,0.560003 1.066657,0.840003 1.839997,0.84"
         id="path3010"
         inkscape:connector-curvature="0"
         style="fill:#ffffff" />
      <path
         d="m 117.51844,31.019753 c -0.16001,0.106668 -0.47334,0.246668 -0.94,0.42 -0.45334,0.160001 -0.98668,0.24 -1.6,0.24 -0.62667,0 -1.22001,-0.1 -1.78,-0.3 -0.54667,-0.199999 -1.02667,-0.506665 -1.44,-0.92 -0.41334,-0.426665 -0.74,-0.953331 -0.98,-1.58 -0.24,-0.626663 -0.36,-1.373329 -0.36,-2.24 0,-0.759994 0.11333,-1.453326 0.34,-2.08 0.22666,-0.639992 0.55333,-1.186658 0.98,-1.64 0.43999,-0.466657 0.97333,-0.826657 1.6,-1.08 0.62666,-0.266656 1.33333,-0.399989 2.12,-0.4 0.86666,1.1e-5 1.61999,0.06668 2.26,0.2 0.65332,0.12001 1.19999,0.233344 1.64,0.34 l 0,9.28 c -1e-5,1.599999 -0.41335,2.759998 -1.24,3.48 -0.82668,0.719997 -2.08001,1.079996 -3.76,1.08 -0.65334,-4e-6 -1.27334,-0.05334 -1.86,-0.16 -0.57334,-0.10667 -1.07334,-0.233337 -1.5,-0.38 l 0.34,-1.62 c 0.37333,0.146665 0.82666,0.273332 1.36,0.38 0.54666,0.119998 1.11333,0.179998 1.7,0.18 1.10666,-2e-6 1.89999,-0.220002 2.38,-0.66 0.49332,-0.440001 0.73999,-1.14 0.74,-2.1 l 0,-0.44 m -0.02,-7.72 c -0.18668,-0.05332 -0.44001,-0.09999 -0.76,-0.14 -0.30668,-0.05332 -0.72668,-0.07999 -1.26,-0.08 -1.00001,9e-6 -1.77334,0.326675 -2.32,0.98 -0.53334,0.653341 -0.80001,1.520007 -0.8,2.6 -1e-5,0.600005 0.0733,1.113338 0.22,1.54 0.15999,0.42667 0.36666,0.780003 0.62,1.06 0.26666,0.280003 0.56666,0.486669 0.9,0.62 0.34666,0.133335 0.69999,0.200002 1.06,0.2 0.49332,2e-6 0.94666,-0.06667 1.36,-0.2 0.41332,-0.146664 0.73999,-0.313331 0.98,-0.5 l 0,-6.08"
         id="path3012"
         inkscape:connector-curvature="0"
         style="fill:#ffffff" />
      <path
         d="m 122.56094,21.959753 c 0.42666,-0.106656 0.98666,-0.21999 1.68,-0.34 0.70666,-0.119989 1.51999,-0.179989 2.44,-0.18 0.66666,1.1e-5 1.22666,0.09334 1.68,0.28 0.45332,0.173344 0.83332,0.433343 1.14,0.78 0.0933,-0.06666 0.23999,-0.15999 0.44,-0.28 0.19999,-0.11999 0.44665,-0.233323 0.74,-0.34 0.29332,-0.11999 0.61999,-0.21999 0.98,-0.3 0.35999,-0.09332 0.74665,-0.139989 1.16,-0.14 0.79998,1.1e-5 1.45332,0.120011 1.96,0.36 0.50665,0.226677 0.89998,0.553343 1.18,0.98 0.29332,0.426676 0.48665,0.933342 0.58,1.52 0.10665,0.586674 0.15998,1.226673 0.16,1.92 l 0,5.84 -1.86,0 0,-5.44 c -2e-5,-0.613327 -0.0333,-1.139993 -0.1,-1.58 -0.0533,-0.439992 -0.16668,-0.806659 -0.34,-1.1 -0.16002,-0.293325 -0.38668,-0.506658 -0.68,-0.64 -0.28001,-0.146658 -0.64668,-0.219991 -1.1,-0.22 -0.62668,9e-6 -1.14668,0.08668 -1.56,0.26 -0.40001,0.160009 -0.67335,0.306675 -0.82,0.44 0.10665,0.346675 0.18665,0.726674 0.24,1.14 0.0533,0.41334 0.08,0.846673 0.08,1.3 l 0,5.84 -1.86,0 0,-5.44 c -1e-5,-0.613327 -0.0333,-1.139993 -0.1,-1.58 -0.0667,-0.439992 -0.18668,-0.806659 -0.36,-1.1 -0.16001,-0.293325 -0.38668,-0.506658 -0.68,-0.64 -0.28001,-0.146658 -0.64001,-0.219991 -1.08,-0.22 -0.18667,9e-6 -0.38667,0.0067 -0.6,0.02 -0.21334,0.01334 -0.42001,0.03334 -0.62,0.06 -0.18667,0.01334 -0.36001,0.03334 -0.52,0.06 -0.16001,0.02668 -0.26667,0.04668 -0.32,0.06 l 0,8.78 -1.86,0 0,-10.1"
         id="path3014"
         inkscape:connector-curvature="0"
         style="fill:#ffffff" />
      <path
         d="m 143.3075,30.719753 c 0.43999,10e-7 0.82666,-0.0067 1.16,-0.02 0.34666,-0.02667 0.63333,-0.06667 0.86,-0.12 l 0,-3.1 c -0.13334,-0.06666 -0.35334,-0.119995 -0.66,-0.16 -0.29334,-0.05333 -0.65334,-0.08 -1.08,-0.08 -0.28001,5e-6 -0.58,0.02001 -0.9,0.06 -0.30667,0.04001 -0.59334,0.126671 -0.86,0.26 -0.25334,0.120004 -0.46667,0.293338 -0.64,0.52 -0.17334,0.213337 -0.26,0.500004 -0.26,0.86 0,0.666669 0.21333,1.133335 0.64,1.4 0.42666,0.253335 1.00666,0.380001 1.74,0.38 m -0.16,-9.32 c 0.74666,1.1e-5 1.37333,0.100011 1.88,0.3 0.51999,0.186677 0.93333,0.46001 1.24,0.82 0.31999,0.346676 0.54666,0.766675 0.68,1.26 0.13332,0.480008 0.19999,1.013341 0.2,1.6 l 0,6.5 c -0.16001,0.02667 -0.38668,0.06667 -0.68,0.12 -0.28001,0.04 -0.60001,0.08 -0.96,0.12 -0.36001,0.04 -0.75334,0.07333 -1.18,0.1 -0.41334,0.04 -0.82667,0.06 -1.24,0.06 -0.58667,0 -1.12667,-0.06 -1.62,-0.18 -0.49334,-0.12 -0.92,-0.306666 -1.28,-0.56 -0.36,-0.266666 -0.64,-0.613332 -0.84,-1.04 -0.2,-0.426665 -0.3,-0.939997 -0.3,-1.54 0,-0.57333 0.11333,-1.066662 0.34,-1.48 0.24,-0.413328 0.56,-0.746661 0.96,-1 0.4,-0.253327 0.86666,-0.439994 1.4,-0.56 0.53333,-0.119994 1.09333,-0.179994 1.68,-0.18 0.18666,6e-6 0.37999,0.01334 0.58,0.04 0.19999,0.01334 0.38666,0.04001 0.56,0.08 0.18666,0.02667 0.34666,0.05334 0.48,0.08 0.13333,0.02667 0.22666,0.04667 0.28,0.06 l 0,-0.52 c -10e-6,-0.30666 -0.0333,-0.606659 -0.1,-0.9 -0.0667,-0.306659 -0.18667,-0.573325 -0.36,-0.8 -0.17334,-0.239991 -0.41334,-0.426658 -0.72,-0.56 -0.29334,-0.146658 -0.68001,-0.219991 -1.16,-0.22 -0.61334,9e-6 -1.15334,0.04668 -1.62,0.14 -0.45334,0.08001 -0.79334,0.166675 -1.02,0.26 l -0.22,-1.54 c 0.24,-0.106656 0.64,-0.206656 1.2,-0.3 0.56,-0.106656 1.16666,-0.159989 1.82,-0.16"
         id="path3016"
         inkscape:connector-curvature="0"
         style="fill:#ffffff" />
      <path
         d="m 152.07719,32.059753 -1.86,0 0,-10.4 1.86,0 0,10.4 m -0.94,-12.28 c -0.33334,1.2e-5 -0.62,-0.106654 -0.86,-0.32 -0.22667,-0.226654 -0.34,-0.526653 -0.34,-0.9 0,-0.373319 0.11333,-0.666652 0.34,-0.88 0.24,-0.226652 0.52666,-0.339985 0.86,-0.34 0.33333,1.5e-5 0.61333,0.113348 0.84,0.34 0.23999,0.213348 0.35999,0.506681 0.36,0.88 -1e-5,0.373347 -0.12001,0.673346 -0.36,0.9 -0.22667,0.213346 -0.50667,0.320012 -0.84,0.32"
         id="path3018"
         inkscape:connector-curvature="0"
         style="fill:#ffffff" />
      <path
         d="m 158.41531,32.259753 c -1.14667,-0.02667 -1.96,-0.273333 -2.44,-0.74 -0.48,-0.466666 -0.72,-1.193332 -0.72,-2.18 l 0,-12.48 1.86,-0.32 0,12.5 c 0,0.306669 0.0267,0.560003 0.08,0.76 0.0533,0.200002 0.14,0.360002 0.26,0.48 0.12,0.120002 0.28,0.213335 0.48,0.28 0.2,0.05334 0.44666,0.100001 0.74,0.14 l -0.26,1.56"
         id="path3020"
         inkscape:connector-curvature="0"
         style="fill:#ffffff" />
      <path
         d="m 162.96406,30.979753 c 0,0.360001 -0.12,0.673334 -0.36,0.94 -0.24,0.266667 -0.56667,0.4 -0.98,0.4 -0.41333,0 -0.74,-0.133333 -0.98,-0.4 -0.24,-0.266666 -0.36,-0.579999 -0.36,-0.94 0,-0.359999 0.12,-0.673332 0.36,-0.94 0.24,-0.266664 0.56667,-0.399998 0.98,-0.4 0.41333,2e-6 0.74,0.133336 0.98,0.4 0.24,0.266668 0.36,0.580001 0.36,0.94"
         id="path3022"
         inkscape:connector-curvature="0"
         style="fill:#ffffff" />
      <path
         d="m 170.20594,32.299753 c -0.84001,0 -1.58001,-0.133333 -2.22,-0.4 -0.62667,-0.266666 -1.16001,-0.639999 -1.6,-1.12 -0.42667,-0.479998 -0.74667,-1.046664 -0.96,-1.7 -0.21334,-0.666663 -0.32,-1.399996 -0.32,-2.2 0,-0.799994 0.11333,-1.533327 0.34,-2.2 0.24,-0.666659 0.57333,-1.239991 1,-1.72 0.42666,-0.493324 0.94666,-0.873323 1.56,-1.14 0.62666,-0.279989 1.31999,-0.419989 2.08,-0.42 0.46666,1.1e-5 0.93332,0.04001 1.4,0.12 0.46666,0.08001 0.91332,0.206677 1.34,0.38 l -0.42,1.58 c -0.28001,-0.133325 -0.60668,-0.239991 -0.98,-0.32 -0.36001,-0.07999 -0.74668,-0.119991 -1.16,-0.12 -1.04001,9e-6 -1.84001,0.326675 -2.4,0.98 -0.54667,0.653341 -0.82001,1.606673 -0.82,2.86 -1e-5,0.560005 0.06,1.073337 0.18,1.54 0.13333,0.46667 0.33333,0.866669 0.6,1.2 0.27999,0.333335 0.63333,0.593335 1.06,0.78 0.42666,0.173335 0.94666,0.260001 1.56,0.26 0.49332,1e-6 0.93999,-0.04666 1.34,-0.14 0.39999,-0.09333 0.71332,-0.193332 0.94,-0.3 l 0.26,1.56 c -0.10668,0.06667 -0.26001,0.133334 -0.46,0.2 -0.20001,0.05333 -0.42668,0.1 -0.68,0.14 -0.25334,0.05333 -0.52668,0.09333 -0.82,0.12 -0.28001,0.04 -0.55334,0.06 -0.82,0.06"
         id="path3024"
         inkscape:connector-curvature="0"
         style="fill:#ffffff" />
      <path
         d="m 183.88937,26.859753 c -1e-5,0.826671 -0.12001,1.573337 -0.36,2.24 -0.24001,0.666669 -0.58,1.240002 -1.02,1.72 -0.42667,0.480001 -0.94,0.853334 -1.53999,1.12 -0.60001,0.253333 -1.25334,0.38 -1.96001,0.38 -0.70667,0 -1.36,-0.126667 -1.96,-0.38 -0.6,-0.266666 -1.12,-0.639999 -1.56,-1.12 -0.42666,-0.479998 -0.76,-1.053331 -1,-1.72 -0.24,-0.666663 -0.36,-1.413329 -0.36,-2.24 0,-0.813327 0.12,-1.553327 0.36,-2.22 0.24,-0.679992 0.57334,-1.259991 1,-1.74 0.44,-0.47999 0.96,-0.846657 1.56,-1.1 0.6,-0.266656 1.25333,-0.399989 1.96,-0.4 0.70667,1.1e-5 1.36,0.133344 1.96001,0.4 0.59999,0.253343 1.11332,0.62001 1.53999,1.1 0.44,0.480009 0.77999,1.060008 1.02,1.74 0.23999,0.666673 0.35999,1.406673 0.36,2.22 m -1.94,0 c 0,-1.173327 -0.26667,-2.099993 -0.8,-2.78 -0.52,-0.693325 -1.23334,-1.039991 -2.14,-1.04 -0.90667,9e-6 -1.62667,0.346675 -2.16,1.04 -0.52,0.680007 -0.78,1.606673 -0.78,2.78 0,1.173337 0.26,2.10667 0.78,2.8 0.53333,0.680002 1.25333,1.020001 2.16,1.02 0.90666,10e-7 1.62,-0.339998 2.14,-1.02 0.53333,-0.69333 0.8,-1.626663 0.8,-2.8"
         id="path3026"
         inkscape:connector-curvature="0"
         style="fill:#ffffff" />
      <path
         d="m 186.50625,21.959753 c 0.42666,-0.106656 0.98666,-0.21999 1.68,-0.34 0.70666,-0.119989 1.52,-0.179989 2.44,-0.18 0.66666,1.1e-5 1.22666,0.09334 1.68,0.28 0.45333,0.173344 0.83333,0.433343 1.14,0.78 0.0933,-0.06666 0.23999,-0.15999 0.44,-0.28 0.19999,-0.11999 0.44666,-0.233323 0.74,-0.34 0.29332,-0.11999 0.61999,-0.21999 0.98,-0.3 0.35999,-0.09332 0.74666,-0.139989 1.16,-0.14 0.79999,1.1e-5 1.45332,0.120011 1.96,0.36 0.50665,0.226677 0.89999,0.553343 1.18,0.98 0.29332,0.426676 0.48665,0.933342 0.58,1.52 0.10665,0.586674 0.15998,1.226673 0.16,1.92 l 0,5.84 -1.86,0 0,-5.44 c -1e-5,-0.613327 -0.0333,-1.139993 -0.1,-1.58 -0.0533,-0.439992 -0.16668,-0.806659 -0.34,-1.1 -0.16001,-0.293325 -0.38668,-0.506658 -0.68,-0.64 -0.28001,-0.146658 -0.64668,-0.219991 -1.1,-0.22 -0.62668,9e-6 -1.14668,0.08668 -1.56,0.26 -0.40001,0.160009 -0.67334,0.306675 -0.82,0.44 0.10666,0.346675 0.18666,0.726674 0.24,1.14 0.0533,0.41334 0.08,0.846673 0.08,1.3 l 0,5.84 -1.86,0 0,-5.44 c -1e-5,-0.613327 -0.0333,-1.139993 -0.1,-1.58 -0.0667,-0.439992 -0.18667,-0.806659 -0.36,-1.1 -0.16001,-0.293325 -0.38667,-0.506658 -0.68,-0.64 -0.28001,-0.146658 -0.64001,-0.219991 -1.08,-0.22 -0.18667,9e-6 -0.38667,0.0067 -0.6,0.02 -0.21334,0.01334 -0.42,0.03334 -0.62,0.06 -0.18667,0.01334 -0.36,0.03334 -0.52,0.06 -0.16,0.02668 -0.26667,0.04668 -0.32,0.06 l 0,8.78 -1.86,0 0,-10.1"
         id="path3028"
         inkscape:connector-curvature="0"
         style="fill:#ffffff" />
    </g>
  </g>
</svg>
