<?xml version="1.0" encoding="UTF-8" standalone="no"?>
<!-- Created with Inkscape (http://www.inkscape.org/) -->

<svg
   xmlns:dc="http://purl.org/dc/elements/1.1/"
   xmlns:cc="http://creativecommons.org/ns#"
   xmlns:rdf="http://www.w3.org/1999/02/22-rdf-syntax-ns#"
   xmlns:svg="http://www.w3.org/2000/svg"
   xmlns="http://www.w3.org/2000/svg"
   xmlns:sodipodi="http://sodipodi.sourceforge.net/DTD/sodipodi-0.dtd"
   xmlns:inkscape="http://www.inkscape.org/namespaces/inkscape"
   width="1000"
   height="250"
   viewBox="0 0 264.58332 66.145837"
   version="1.1"
   id="svg6092"
   inkscape:version="0.92.0 r15299"
   sodipodi:docname="5_Title_Big_B.svg">
  <defs
     id="defs6086" />
  <sodipodi:namedview
     id="base"
     pagecolor="#ffffff"
     bordercolor="#666666"
     borderopacity="1.0"
     inkscape:pageopacity="0.0"
     inkscape:pageshadow="2"
     inkscape:zoom="0.7"
     inkscape:cx="391.9644"
     inkscape:cy="173.4859"
     inkscape:document-units="mm"
     inkscape:current-layer="layer1"
     showgrid="false"
     units="px"
     showguides="true"
     inkscape:guide-bbox="true"
     inkscape:window-width="1920"
     inkscape:window-height="1017"
     inkscape:window-x="-8"
     inkscape:window-y="-8"
     inkscape:window-maximized="1">
    <sodipodi:guide
       position="210.62723,46.727307"
       orientation="0,1"
       id="guide6766"
       inkscape:locked="false" />
    <sodipodi:guide
       position="195.45868,44.923236"
       orientation="0,1"
       id="guide6804"
       inkscape:locked="false" />
  </sodipodi:namedview>
  <metadata
     id="metadata6089">
    <rdf:RDF>
      <cc:Work
         rdf:about="">
        <dc:format>image/svg+xml</dc:format>
        <dc:type
           rdf:resource="http://purl.org/dc/dcmitype/StillImage" />
        <dc:title />
      </cc:Work>
    </rdf:RDF>
  </metadata>
  <g
     inkscape:label="Capa 1"
     inkscape:groupmode="layer"
     id="layer1"
     transform="translate(0,-230.85415)">
    <g
       id="g4536">
      <path
         d="m 40.701272,277.56 c 5.529985,0 9.024629,-3.14902 9.024629,-7.33491 0,-4.03228 -2.841798,-5.99082 -8.640603,-7.37331 -5.299569,-1.26729 -7.680535,-2.61139 -7.680535,-5.22277 0,-3.14902 2.72659,-5.52998 6.528455,-5.52998 2.995409,0 5.837207,1.26728 8.102965,3.41783 l 1.152081,-1.4977 c -2.496174,-2.34256 -5.683597,-3.76346 -9.139838,-3.76346 -4.992348,0 -8.563797,3.18742 -8.563797,7.52692 0,3.72506 2.72659,5.52999 8.640602,6.87408 5.337973,1.26729 7.680536,2.8034 7.680536,5.722 0,3.03381 -2.764993,5.33797 -7.02769,5.33797 -3.648255,0 -6.950885,-1.4977 -9.293448,-3.84026 l -1.190484,1.4977 c 2.688188,2.64979 6.374845,4.18589 10.407127,4.18589 z"
         style="font-style:normal;font-variant:normal;font-weight:normal;font-stretch:normal;font-size:medium;line-height:24.00167084px;font-family:Metropolis;-inkscape-font-specification:Metropolis;letter-spacing:0px;word-spacing:0px;fill:#000000;fill-opacity:1;stroke:none;stroke-width:0.9600668;stroke-opacity:1"
         id="path6741"
         inkscape:connector-curvature="0" />
      <path
         d="m 76.280155,250.75493 -10.560737,24.00168 -10.59914,-24.00168 h -2.112147 l 11.636012,26.38264 h 2.112147 l 11.636012,-26.38264 z"
         style="font-style:normal;font-variant:normal;font-weight:normal;font-stretch:normal;font-size:medium;line-height:24.00167084px;font-family:Metropolis;-inkscape-font-specification:Metropolis;letter-spacing:0px;word-spacing:0px;fill:#000000;fill-opacity:1;stroke:none;stroke-width:0.9600668;stroke-opacity:1"
         id="path6743"
         inkscape:connector-curvature="0" />
      <path
         d="m 100.49725,252.63666 v -1.88173 H 82.640001 v 26.38264 h 17.857249 v -1.88173 H 84.560135 V 264.6183 h 14.631421 v -1.84333 H 84.560135 v -10.13831 z"
         style="font-style:normal;font-variant:normal;font-weight:normal;font-stretch:normal;font-size:medium;line-height:24.00167084px;font-family:Metropolis;-inkscape-font-specification:Metropolis;letter-spacing:0px;word-spacing:0px;fill:#000000;fill-opacity:1;stroke:none;stroke-width:0.9600668;stroke-opacity:1"
         id="path6745"
         inkscape:connector-curvature="0" />
      <path
         d="m 125.98162,258.9347 c 0,-4.80033 -3.95547,-8.17977 -9.33185,-8.17977 h -10.98316 v 26.38264 h 1.92013 v -9.98469 h 8.41019 l 6.98928,9.98469 h 2.26576 l -7.06609,-10.0999 c 4.56992,-0.57604 7.79574,-3.76346 7.79574,-8.10297 z m -18.39488,-6.29804 h 8.679 c 4.56992,0 7.75735,2.53458 7.75735,6.29804 0,3.80187 -3.18743,6.33645 -7.75735,6.33645 h -8.679 z"
         style="font-style:normal;font-variant:normal;font-weight:normal;font-stretch:normal;font-size:medium;line-height:24.00167084px;font-family:Metropolis;-inkscape-font-specification:Metropolis;letter-spacing:0px;word-spacing:0px;fill:#000000;fill-opacity:1;stroke:none;stroke-width:0.9600668;stroke-opacity:1"
         id="path6747"
         inkscape:connector-curvature="0" />
      <path
         d="m 142.8242,277.59841 c 3.64825,0 7.02769,-1.57451 9.48546,-4.03229 l -1.3441,-1.34409 c -2.11214,2.18895 -4.99234,3.53305 -8.14136,3.53305 -6.29804,0 -11.59761,-5.41478 -11.59761,-11.82803 0,-6.37484 5.29957,-11.78962 11.59761,-11.78962 3.14902,0 6.02922,1.34409 8.14136,3.53305 l 1.3441,-1.3441 c -2.45777,-2.49617 -5.83721,-4.03228 -9.48546,-4.03228 -7.33492,0 -13.51775,6.22123 -13.51775,13.63295 0,7.41172 6.18283,13.67136 13.51775,13.67136 z"
         style="font-style:normal;font-variant:normal;font-weight:normal;font-stretch:normal;font-size:medium;line-height:24.00167084px;font-family:Metropolis;-inkscape-font-specification:Metropolis;letter-spacing:0px;word-spacing:0px;fill:#000000;fill-opacity:1;stroke:none;stroke-width:0.9600668;stroke-opacity:1"
         id="path6749"
         inkscape:connector-curvature="0" />
      <path
         d="m 174.99364,250.75493 v 12.02004 h -16.62836 v -12.02004 h -1.92013 v 26.38264 h 1.92013 V 264.6183 h 16.62836 v 12.51927 h 1.92013 v -26.38264 z"
         style="font-style:normal;font-variant:normal;font-weight:normal;font-stretch:normal;font-size:medium;line-height:24.00167084px;font-family:Metropolis;-inkscape-font-specification:Metropolis;letter-spacing:0px;word-spacing:0px;fill:#000000;fill-opacity:1;stroke:none;stroke-width:0.9600668;stroke-opacity:1"
         id="path6751"
         inkscape:connector-curvature="0" />
      <path
         d="m 214.4734,277.13757 h 1.92014 v -7.87255 l 4.76193,-5.14596 10.67594,13.01851 h 2.45778 l -11.78963,-14.401 10.98317,-11.98164 h -2.53458 l -14.55461,15.86031 v -15.86031 h -1.92014 z"
         style="font-style:normal;font-variant:normal;font-weight:normal;font-stretch:normal;font-size:medium;line-height:24.00167084px;font-family:Metropolis;-inkscape-font-specification:Metropolis;letter-spacing:0px;word-spacing:0px;fill:#000000;fill-opacity:1;stroke:none;stroke-width:0.9600668;stroke-opacity:1"
         id="path6755"
         inkscape:connector-curvature="0" />
      <path
         inkscape:connector-curvature="0"
         id="path6801"
         transform="matrix(0.26458333,0,0,0.26458333,0,230.85415)"
         d="m 738.74219,73.392578 c -28.51903,0 -51.67969,23.160582 -51.67969,51.679692 0,28.51906 23.16066,51.67968 51.67969,51.67968 28.5191,0 51.67968,-23.16062 51.67969,-51.67968 0,-28.51911 -23.16059,-51.679692 -51.67969,-51.679692 z m 0,6.81836 c 24.75632,0 44.86133,20.104972 44.86133,44.861332 0,24.75632 -20.10501,44.86132 -44.86133,44.86132 -24.75629,0 -44.86133,-20.105 -44.86133,-44.86132 0,-24.75636 20.10504,-44.861332 44.86133,-44.861332 z"
         style="color:#000000;font-style:normal;font-variant:normal;font-weight:normal;font-stretch:normal;font-size:medium;line-height:normal;font-family:sans-serif;font-variant-ligatures:normal;font-variant-position:normal;font-variant-caps:normal;font-variant-numeric:normal;font-variant-alternates:normal;font-feature-settings:normal;text-indent:0;text-align:start;text-decoration:none;text-decoration-line:none;text-decoration-style:solid;text-decoration-color:#000000;letter-spacing:normal;word-spacing:normal;text-transform:none;writing-mode:lr-tb;direction:ltr;text-orientation:mixed;dominant-baseline:auto;baseline-shift:baseline;text-anchor:start;white-space:normal;shape-padding:0;clip-rule:nonzero;display:inline;overflow:visible;visibility:visible;opacity:1;isolation:auto;mix-blend-mode:normal;color-interpolation:sRGB;color-interpolation-filters:linearRGB;solid-color:#000000;solid-opacity:1;vector-effect:none;fill:#000000;fill-opacity:1;fill-rule:nonzero;stroke:none;stroke-width:3.37589478;stroke-linecap:round;stroke-linejoin:miter;stroke-miterlimit:4;stroke-dasharray:none;stroke-dashoffset:0;stroke-opacity:1;color-rendering:auto;image-rendering:auto;shape-rendering:auto;text-rendering:auto;enable-background:accumulate" />
    </g>
    <g
       inkscape:export-ydpi="20.977407"
       inkscape:export-xdpi="20.977407"
       inkscape:export-filename="C:\Users\PcCom\rect4593.png"
       transform="matrix(0.19317959,0,0,0.19317959,-242.79124,467.09784)"
       id="g9477"
       inkscape:label="5o">
      <path
         style="color:#000000;font-style:normal;font-variant:normal;font-weight:normal;font-stretch:normal;font-size:medium;line-height:normal;font-family:sans-serif;font-variant-ligatures:normal;font-variant-position:normal;font-variant-caps:normal;font-variant-numeric:normal;font-variant-alternates:normal;font-feature-settings:normal;text-indent:0;text-align:start;text-decoration:none;text-decoration-line:none;text-decoration-style:solid;text-decoration-color:#000000;letter-spacing:normal;word-spacing:normal;text-transform:none;writing-mode:lr-tb;direction:ltr;text-orientation:mixed;dominant-baseline:auto;baseline-shift:baseline;text-anchor:start;white-space:normal;shape-padding:0;clip-rule:nonzero;display:inline;overflow:visible;visibility:visible;opacity:1;isolation:auto;mix-blend-mode:normal;color-interpolation:sRGB;color-interpolation-filters:linearRGB;solid-color:#000000;solid-opacity:1;vector-effect:none;fill:#000000;fill-opacity:1;fill-rule:nonzero;stroke:none;stroke-width:38.77671432;stroke-linecap:round;stroke-linejoin:miter;stroke-miterlimit:4;stroke-dasharray:none;stroke-dashoffset:0;stroke-opacity:1;color-rendering:auto;image-rendering:auto;shape-rendering:auto;text-rendering:auto;enable-background:accumulate"
         d="m 32059.486,-18905.629 c -284.359,0 -515.291,230.933 -515.291,515.293 0,284.36 230.932,515.289 515.291,515.289 284.36,0 515.291,-230.929 515.291,-515.289 0,-284.36 -230.931,-515.293 -515.291,-515.293 z"
         transform="matrix(0.12894336,0,0,0.12894336,-1865.2448,1319.6928)"
         id="path9521"
         inkscape:connector-curvature="0" />
      <path
         style="color:#000000;font-style:normal;font-variant:normal;font-weight:normal;font-stretch:normal;font-size:medium;line-height:normal;font-family:sans-serif;font-variant-ligatures:normal;font-variant-position:normal;font-variant-caps:normal;font-variant-numeric:normal;font-variant-alternates:normal;font-feature-settings:normal;text-indent:0;text-align:start;text-decoration:none;text-decoration-line:none;text-decoration-style:solid;text-decoration-color:#000000;letter-spacing:normal;word-spacing:normal;text-transform:none;writing-mode:lr-tb;direction:ltr;text-orientation:mixed;dominant-baseline:auto;baseline-shift:baseline;text-anchor:start;white-space:normal;shape-padding:0;clip-rule:nonzero;display:inline;overflow:visible;visibility:visible;opacity:1;isolation:auto;mix-blend-mode:normal;color-interpolation:sRGB;color-interpolation-filters:linearRGB;solid-color:#000000;solid-opacity:1;vector-effect:none;fill:#99ff99;fill-opacity:1;fill-rule:nonzero;stroke:none;stroke-width:38.77671432;stroke-linecap:round;stroke-linejoin:miter;stroke-miterlimit:4;stroke-dasharray:none;stroke-dashoffset:0;stroke-opacity:1;color-rendering:auto;image-rendering:auto;shape-rendering:auto;text-rendering:auto;enable-background:accumulate"
         d="m 32059.486,-18866.852 c 164.787,0 309.889,83.409 395.442,210.358 -172.928,7.091 -305.887,66.695 -435.793,124.805 -133.391,59.667 -263.571,117.756 -435.764,121.834 10.22,-254.332 219.251,-456.997 476.115,-456.997 z"
         transform="matrix(0.12894336,0,0,0.12894336,-1865.2448,1319.6928)"
         id="path9519"
         inkscape:connector-curvature="0" />
      <path
         style="color:#000000;font-style:normal;font-variant:normal;font-weight:normal;font-stretch:normal;font-size:medium;line-height:normal;font-family:sans-serif;font-variant-ligatures:normal;font-variant-position:normal;font-variant-caps:normal;font-variant-numeric:normal;font-variant-alternates:normal;font-feature-settings:normal;text-indent:0;text-align:start;text-decoration:none;text-decoration-line:none;text-decoration-style:solid;text-decoration-color:#000000;letter-spacing:normal;word-spacing:normal;text-transform:none;writing-mode:lr-tb;direction:ltr;text-orientation:mixed;dominant-baseline:auto;baseline-shift:baseline;text-anchor:start;white-space:normal;shape-padding:0;clip-rule:nonzero;display:inline;overflow:visible;visibility:visible;opacity:1;isolation:auto;mix-blend-mode:normal;color-interpolation:sRGB;color-interpolation-filters:linearRGB;solid-color:#000000;solid-opacity:1;vector-effect:none;fill:#e59933;fill-opacity:1;fill-rule:nonzero;stroke:none;stroke-width:38.77671432;stroke-linecap:round;stroke-linejoin:miter;stroke-miterlimit:4;stroke-dasharray:none;stroke-dashoffset:0;stroke-opacity:1;color-rendering:auto;image-rendering:auto;shape-rendering:auto;text-rendering:auto;enable-background:accumulate"
         d="m 32478.115,-18618.336 c 36.913,67.702 57.887,145.376 57.887,228 0,82.712 -21.018,160.461 -58.004,228.213 -175.754,-2.396 -307.696,-61.406 -443.262,-122.047 -91.392,-40.881 -184.437,-82.489 -291.97,-106.027 107.643,-23.528 200.763,-65.18 292.228,-106.094 135.529,-60.625 267.437,-119.62 443.121,-122.045 z"
         transform="matrix(0.12894336,0,0,0.12894336,-1865.2448,1319.6928)"
         id="path9517"
         inkscape:connector-curvature="0" />
      <path
         style="color:#000000;font-style:normal;font-variant:normal;font-weight:normal;font-stretch:normal;font-size:medium;line-height:normal;font-family:sans-serif;font-variant-ligatures:normal;font-variant-position:normal;font-variant-caps:normal;font-variant-numeric:normal;font-variant-alternates:normal;font-feature-settings:normal;text-indent:0;text-align:start;text-decoration:none;text-decoration-line:none;text-decoration-style:solid;text-decoration-color:#000000;letter-spacing:normal;word-spacing:normal;text-transform:none;writing-mode:lr-tb;direction:ltr;text-orientation:mixed;dominant-baseline:auto;baseline-shift:baseline;text-anchor:start;white-space:normal;shape-padding:0;clip-rule:nonzero;display:inline;overflow:visible;visibility:visible;opacity:1;isolation:auto;mix-blend-mode:normal;color-interpolation:sRGB;color-interpolation-filters:linearRGB;solid-color:#000000;solid-opacity:1;vector-effect:none;fill:#33cccc;fill-opacity:1;fill-rule:nonzero;stroke:none;stroke-width:38.77671432;stroke-linecap:round;stroke-linejoin:miter;stroke-miterlimit:4;stroke-dasharray:none;stroke-dashoffset:0;stroke-opacity:1;color-rendering:auto;image-rendering:auto;shape-rendering:auto;text-rendering:auto;enable-background:accumulate"
         d="m 31583.379,-18370.604 c 172.069,4.104 302.188,62.178 435.514,121.817 129.931,58.121 262.916,117.748 435.892,124.822 -85.572,126.829 -230.605,210.143 -395.299,210.143 -256.792,0 -465.779,-202.55 -476.107,-456.782 z"
         transform="matrix(0.12894336,0,0,0.12894336,-1865.2448,1319.6928)"
         id="circle9463"
         inkscape:connector-curvature="0" />
    </g>
  </g>
</svg>
