<?xml version="1.0" encoding="UTF-8" standalone="no"?>
<!-- Created with Inkscape (http://www.inkscape.org/) -->

<svg
   xmlns:dc="http://purl.org/dc/elements/1.1/"
   xmlns:cc="http://creativecommons.org/ns#"
   xmlns:rdf="http://www.w3.org/1999/02/22-rdf-syntax-ns#"
   xmlns:svg="http://www.w3.org/2000/svg"
   xmlns="http://www.w3.org/2000/svg"
   xmlns:sodipodi="http://sodipodi.sourceforge.net/DTD/sodipodi-0.dtd"
   xmlns:inkscape="http://www.inkscape.org/namespaces/inkscape"
   width="64"
   height="64"
   viewBox="0 0 16.933333 16.933334"
   version="1.1"
   id="svg8"
   inkscape:version="0.92.2 (5c3e80d, 2017-08-06)"
   sodipodi:docname="sv_field_random_probe.svg"
   inkscape:export-filename="/home/portnov/src/sverchok/ui/icons/sv_field_random_probe.png"
   inkscape:export-xdpi="96"
   inkscape:export-ydpi="96">
  <defs
     id="defs2">
    <marker
       inkscape:stockid="TriangleOutM"
       orient="auto"
       refY="0.0"
       refX="0.0"
       id="marker6934"
       style="overflow:visible"
       inkscape:isstock="true">
      <path
         id="path6932"
         d="M 5.77,0.0 L -2.88,5.0 L -2.88,-5.0 L 5.77,0.0 z "
         style="fill-rule:evenodd;stroke:#000000;stroke-width:1pt;stroke-opacity:1;fill:#000000;fill-opacity:1"
         transform="scale(0.4)" />
    </marker>
    <marker
       inkscape:isstock="true"
       style="overflow:visible"
       id="marker1660"
       refX="0.0"
       refY="0.0"
       orient="auto"
       inkscape:stockid="TriangleOutM">
      <path
         transform="scale(0.4)"
         style="fill-rule:evenodd;stroke:#000000;stroke-width:1pt;stroke-opacity:1;fill:#000000;fill-opacity:1"
         d="M 5.77,0.0 L -2.88,5.0 L -2.88,-5.0 L 5.77,0.0 z "
         id="path1658" />
    </marker>
    <marker
       inkscape:isstock="true"
       style="overflow:visible;"
       id="marker3098"
       refX="0.0"
       refY="0.0"
       orient="auto"
       inkscape:stockid="Arrow1Send">
      <path
         transform="scale(0.2) rotate(180) translate(6,0)"
         style="fill-rule:evenodd;stroke:#000000;stroke-width:1pt;stroke-opacity:1;fill:#000000;fill-opacity:1"
         d="M 0.0,0.0 L 5.0,-5.0 L -12.5,0.0 L 5.0,5.0 L 0.0,0.0 z "
         id="path3096" />
    </marker>
    <marker
       inkscape:stockid="Arrow1Send"
       orient="auto"
       refY="0.0"
       refX="0.0"
       id="marker9341"
       style="overflow:visible;"
       inkscape:isstock="true">
      <path
         id="path9339"
         d="M 0.0,0.0 L 5.0,-5.0 L -12.5,0.0 L 5.0,5.0 L 0.0,0.0 z "
         style="fill-rule:evenodd;stroke:#000000;stroke-width:1pt;stroke-opacity:1;fill:#000000;fill-opacity:1"
         transform="scale(0.2) rotate(180) translate(6,0)" />
    </marker>
    <marker
       inkscape:isstock="true"
       style="overflow:visible;"
       id="marker7727"
       refX="0.0"
       refY="0.0"
       orient="auto"
       inkscape:stockid="Arrow1Send">
      <path
         transform="scale(0.2) rotate(180) translate(6,0)"
         style="fill-rule:evenodd;stroke:#000000;stroke-width:1pt;stroke-opacity:1;fill:#000000;fill-opacity:1"
         d="M 0.0,0.0 L 5.0,-5.0 L -12.5,0.0 L 5.0,5.0 L 0.0,0.0 z "
         id="path7725" />
    </marker>
    <marker
       inkscape:stockid="TriangleOutL"
       orient="auto"
       refY="0.0"
       refX="0.0"
       id="TriangleOutL"
       style="overflow:visible"
       inkscape:isstock="true">
      <path
         id="path971"
         d="M 5.77,0.0 L -2.88,5.0 L -2.88,-5.0 L 5.77,0.0 z "
         style="fill-rule:evenodd;stroke:#000000;stroke-width:1pt;stroke-opacity:1;fill:#000000;fill-opacity:1"
         transform="scale(0.8)" />
    </marker>
    <marker
       inkscape:stockid="Arrow2Lend"
       orient="auto"
       refY="0.0"
       refX="0.0"
       id="Arrow2Lend"
       style="overflow:visible;"
       inkscape:isstock="true">
      <path
         id="path850"
         style="fill-rule:evenodd;stroke-width:0.625;stroke-linejoin:round;stroke:#000000;stroke-opacity:1;fill:#000000;fill-opacity:1"
         d="M 8.7185878,4.0337352 L -2.2072895,0.016013256 L 8.7185884,-4.0017078 C 6.9730900,-1.6296469 6.9831476,1.6157441 8.7185878,4.0337352 z "
         transform="scale(1.1) rotate(180) translate(1,0)" />
    </marker>
    <marker
       inkscape:stockid="Arrow1Lend"
       orient="auto"
       refY="0.0"
       refX="0.0"
       id="Arrow1Lend"
       style="overflow:visible;"
       inkscape:isstock="true">
      <path
         id="path832"
         d="M 0.0,0.0 L 5.0,-5.0 L -12.5,0.0 L 5.0,5.0 L 0.0,0.0 z "
         style="fill-rule:evenodd;stroke:#000000;stroke-width:1pt;stroke-opacity:1;fill:#000000;fill-opacity:1"
         transform="scale(0.8) rotate(180) translate(12.5,0)" />
    </marker>
  </defs>
  <sodipodi:namedview
     id="base"
     pagecolor="#ffffff"
     bordercolor="#666666"
     borderopacity="1.0"
     inkscape:pageopacity="0.0"
     inkscape:pageshadow="2"
     inkscape:zoom="9.5506848"
     inkscape:cx="22.656704"
     inkscape:cy="33.987286"
     inkscape:document-units="mm"
     inkscape:current-layer="layer1"
     showgrid="false"
     units="px"
     inkscape:window-width="1916"
     inkscape:window-height="1196"
     inkscape:window-x="0"
     inkscape:window-y="0"
     inkscape:window-maximized="0"
     showguides="false"
     inkscape:snap-center="true"
     inkscape:snap-global="false">
    <inkscape:grid
       type="xygrid"
       id="grid4512" />
  </sodipodi:namedview>
  <metadata
     id="metadata5">
    <rdf:RDF>
      <cc:Work
         rdf:about="">
        <dc:format>image/svg+xml</dc:format>
        <dc:type
           rdf:resource="http://purl.org/dc/dcmitype/StillImage" />
        <dc:title></dc:title>
      </cc:Work>
    </rdf:RDF>
  </metadata>
  <g
     inkscape:label="Layer 1"
     inkscape:groupmode="layer"
     id="layer1"
     transform="translate(0,-280.06665)">
    <path
       sodipodi:nodetypes="czzzzzzzzc"
       inkscape:connector-curvature="0"
       id="path867"
       d="m 5.9089289,278.33317 c 1.9397394,-1.49282 6.5501951,-0.35584 8.6764461,0.91306 2.126251,1.2689 3.581057,2.46314 3.543755,4.92629 -0.0373,2.46313 -0.508556,6.06771 -2.547279,7.56453 -2.038724,1.49682 -3.707685,-0.0405 -5.513649,1.57362 -1.8059643,1.61412 -2.3829892,3.22262 -4.173518,4.1183 -1.7905287,0.8957 -5.0872071,-0.24355 -6.15577581,-1.57519 -1.06856869,-1.33164 -2.73846949,-4.13345 -1.34482589,-7.80151 1.39364365,-3.66805 3.961839,-3.12036 5.0059671,-4.57964 1.0441281,-1.45928 1.4625371,-4.29074 2.5088795,-5.13946 z"
       style="color:#000000;display:inline;overflow:visible;visibility:visible;fill:none;fill-rule:evenodd;stroke:#000000;stroke-width:1.05833333;stroke-linecap:butt;stroke-linejoin:miter;stroke-miterlimit:4;stroke-dasharray:none;stroke-dashoffset:0;stroke-opacity:1;marker:none;enable-background:accumulate" />
    <path
       style="color:#000000;display:inline;overflow:visible;visibility:visible;fill:none;fill-rule:evenodd;stroke:#000000;stroke-width:1.05833333;stroke-linecap:butt;stroke-linejoin:miter;stroke-miterlimit:4;stroke-dasharray:none;stroke-dashoffset:0;stroke-opacity:1;marker:none;enable-background:accumulate"
       d="m 5.2358809,285.28159 c 1.0356565,-1.32933 0.2770309,-2.6872 1.7175909,-3.79533 1.4405599,-1.10813 4.4324932,-1.02501 6.0115672,-0.0831 1.579074,0.94191 2.659495,1.8284 2.631792,3.65681 -0.0277,1.8284 -0.480551,3.68153 -1.994622,4.79263 -1.514071,1.1111 -3.6176386,-0.25627 -4.9588494,0.9419 -1.3412108,1.19817 -1.4405602,2.6595 -2.7703079,3.32437 -1.3297476,0.66488 -3.1402571,0.60065 -3.9338365,-0.38783 -0.7935794,-0.98849 -1.69499137,-3.09078 -0.4432492,-5.23588 1.2517422,-2.1451 2.7042585,-1.88424 3.7399149,-3.21357 z"
       id="path865"
       inkscape:connector-curvature="0"
       sodipodi:nodetypes="zzzzzzzzzz" />
    <path
       sodipodi:nodetypes="zzzzzzzzzz"
       inkscape:connector-curvature="0"
       id="path869"
       d="m 6.7429884,286.50212 c 0.6302744,-0.8079 0.6949524,-1.71626 1.5716408,-2.38973 0.8766884,-0.67347 1.8387078,-0.84457 2.7996928,-0.27212 0.960985,0.57244 1.092144,0.80648 1.075284,1.9177 -0.01686,1.11122 -0.597186,1.46178 -1.518611,2.13705 -0.9214253,0.67527 -1.9522756,0.0659 -2.7685026,0.79406 -0.816227,0.72819 -0.7935793,2.08728 -1.6028302,2.49136 -0.8092508,0.40408 -2.1050028,0.91911 -2.5879552,0.31835 -0.4829524,-0.60075 -0.089624,-1.82303 0.6721543,-3.12672 0.7617788,-1.30369 1.7288527,-1.06204 2.3591271,-1.86995 z"
       style="color:#000000;display:inline;overflow:visible;visibility:visible;fill:none;fill-rule:evenodd;stroke:#000000;stroke-width:1.05833333;stroke-linecap:butt;stroke-linejoin:miter;stroke-miterlimit:4;stroke-dasharray:none;stroke-dashoffset:0;stroke-opacity:1;marker:none;enable-background:accumulate" />
    <rect
       style="opacity:1;vector-effect:none;fill:#fcaf3e;fill-opacity:1;stroke:#ef2929;stroke-width:0.26458332;stroke-linecap:round;stroke-linejoin:round;stroke-miterlimit:4;stroke-dasharray:none;stroke-dashoffset:0;stroke-opacity:1;marker:none;paint-order:markers fill stroke"
       id="rect906"
       width="1.9392153"
       height="1.9392153"
       x="7.4244242"
       y="284.09036" />
    <rect
       y="285.64172"
       x="10.08392"
       height="1.9392153"
       width="1.9392153"
       id="rect908"
       style="opacity:1;vector-effect:none;fill:#fcaf3e;fill-opacity:1;stroke:#ef2929;stroke-width:0.26458332;stroke-linecap:round;stroke-linejoin:round;stroke-miterlimit:4;stroke-dasharray:none;stroke-dashoffset:0;stroke-opacity:1;marker:none;paint-order:markers fill stroke" />
    <rect
       style="opacity:1;vector-effect:none;fill:#fcaf3e;fill-opacity:1;stroke:#ef2929;stroke-width:0.26458332;stroke-linecap:round;stroke-linejoin:round;stroke-miterlimit:4;stroke-dasharray:none;stroke-dashoffset:0;stroke-opacity:1;marker:none;paint-order:markers fill stroke"
       id="rect910"
       width="1.9392153"
       height="1.9392153"
       x="5.4021001"
       y="287.85797" />
    <rect
       y="281.20923"
       x="13.24207"
       height="1.9392153"
       width="1.9392153"
       id="rect912"
       style="opacity:1;vector-effect:none;fill:#fcaf3e;fill-opacity:1;stroke:#ef2929;stroke-width:0.26458333;stroke-linecap:round;stroke-linejoin:round;stroke-miterlimit:4;stroke-dasharray:none;stroke-dashoffset:0;stroke-opacity:1;marker:none;paint-order:markers fill stroke" />
    <rect
       style="opacity:1;vector-effect:none;fill:#fcaf3e;fill-opacity:1;stroke:#ef2929;stroke-width:0.26458333;stroke-linecap:round;stroke-linejoin:round;stroke-miterlimit:4;stroke-dasharray:none;stroke-dashoffset:0;stroke-opacity:1;marker:none;paint-order:markers fill stroke"
       id="rect914"
       width="1.9392153"
       height="1.9392153"
       x="1.2189358"
       y="282.31735" />
    <rect
       y="294.00806"
       x="6.9811754"
       height="1.9392153"
       width="1.9392153"
       id="rect916"
       style="opacity:1;vector-effect:none;fill:#fcaf3e;fill-opacity:1;stroke:#ef2929;stroke-width:0.26458333;stroke-linecap:round;stroke-linejoin:round;stroke-miterlimit:4;stroke-dasharray:none;stroke-dashoffset:0;stroke-opacity:1;marker:none;paint-order:markers fill stroke" />
  </g>
</svg>
