<?xml version="1.0" encoding="UTF-8" standalone="no"?>
<svg
   xmlns:dc="http://purl.org/dc/elements/1.1/"
   xmlns:cc="http://creativecommons.org/ns#"
   xmlns:rdf="http://www.w3.org/1999/02/22-rdf-syntax-ns#"
   xmlns:svg="http://www.w3.org/2000/svg"
   xmlns="http://www.w3.org/2000/svg"
   id="svg32983"
   version="1.1"
   viewBox="0 0 4.2333332 4.2333335"
   height="16"
   width="16">
  <defs
     id="defs32977" />
  <metadata
     id="metadata32980">
    <rdf:RDF>
      <cc:Work
         rdf:about="">
        <dc:format>image/svg+xml</dc:format>
        <dc:type
           rdf:resource="http://purl.org/dc/dcmitype/StillImage" />
        <dc:title></dc:title>
      </cc:Work>
    </rdf:RDF>
  </metadata>
  <g
     transform="translate(0,-292.76665)"
     id="layer1">
    <g
       id="g32763"
       style="display:inline;enable-background:new"
       transform="matrix(0.26458333,0,0,0.26458333,2.0010421e-6,292.76252)">
      <rect
         style="display:inline;opacity:1;fill:none;fill-opacity:1;stroke:none;stroke-width:0.01298487;stroke-linecap:round;stroke-linejoin:round;stroke-miterlimit:4;stroke-dasharray:none;stroke-dashoffset:13.03029823;stroke-opacity:1;enable-background:new"
         id="rect32731"
         width="16.00001"
         height="16.00001"
         x="-7.5629937e-06"
         y="0.015610348" />
      <g
         style="fill:none;stroke:#ffffff;stroke-width:17.04437256;stroke-linecap:round;stroke-linejoin:round;stroke-miterlimit:4;stroke-dasharray:none;stroke-opacity:1"
         id="g32745"
         transform="matrix(0.05867039,0,0,0.05867039,8.21542,7.5658704)">
        <path
           style="color:#000000;font-style:normal;font-variant:normal;font-weight:normal;font-stretch:normal;font-size:medium;line-height:normal;font-family:sans-serif;font-variant-ligatures:normal;font-variant-position:normal;font-variant-caps:normal;font-variant-numeric:normal;font-variant-alternates:normal;font-feature-settings:normal;text-indent:0;text-align:start;text-decoration:none;text-decoration-line:none;text-decoration-style:solid;text-decoration-color:#000000;letter-spacing:normal;word-spacing:normal;text-transform:none;writing-mode:lr-tb;direction:ltr;text-orientation:mixed;dominant-baseline:auto;baseline-shift:baseline;text-anchor:start;white-space:normal;shape-padding:0;clip-rule:nonzero;display:inline;overflow:visible;visibility:visible;opacity:1;isolation:auto;mix-blend-mode:normal;color-interpolation:sRGB;color-interpolation-filters:linearRGB;solid-color:#000000;solid-opacity:1;vector-effect:none;fill:#ffffff;fill-opacity:1;fill-rule:nonzero;stroke:#000000;stroke-width:33.87033081;stroke-linecap:butt;stroke-linejoin:round;stroke-miterlimit:4;stroke-dasharray:none;stroke-dashoffset:0;stroke-opacity:0.70588235;paint-order:stroke fill markers;color-rendering:auto;image-rendering:auto;shape-rendering:auto;text-rendering:auto;enable-background:accumulate"
           d="m 40.258485,-111.52951 a 8.0861923,8.0861923 0 0 0 -4.29536,1.42124 l -54.386836,37.584386 -24.887831,-17.181441 a 8.0861923,8.0861923 0 0 0 -4.548028,-1.452783 8.0861923,8.0861923 0 0 0 -2.905677,0.536871 l -33.541712,12.664993 -33.573301,12.664994 a 8.0861923,8.0861923 0 0 0 -5.21126,7.548465 v 35.847312 35.87889 a 8.0861923,8.0861923 0 0 0 5.21126,7.548466 l 61.872143,23.340224 v 30.288607 35.847306 a 8.0861923,8.0861923 0 0 0 10.959481,7.58004 l 29.562199,-11.18058 26.024814,18.00264 a 8.0861923,8.0861923 0 0 0 9.190818,0 L 78.727223,84.604185 a 8.0861923,8.0861923 0 0 0 3.474192,-6.632538 V 42.092772 11.835745 L 110.53184,1.1605155 a 8.0861923,8.0861923 0 0 0 5.21128,-7.5800474 V -41.698341 a 8.0861923,8.0861923 0 0 0 0,-0.568565 v -35.878891 a 8.0861923,8.0861923 0 0 0 -5.21128,-7.548466 L 43.416846,-111.02426 a 8.0861923,8.0861923 0 0 0 -3.158361,-0.50525 z m 1.42125,17.149847 57.892614,21.824213 v 22.203224 h -85.93879 -0.03234 L -4.1803174,-62.669807 Z m -90.707901,20.371367 25.803742,17.844701 0.221055,0.158473 19.8660306,13.73883 -6.064038,4.169034 -11.7490656,8.116965 H -106.9208 v -22.171642 l 28.298835,-10.67523 z m 62.630144,39.826837 h 85.970371 v 22.171644 L 71.494588,-1.3977484 a 8.0861923,8.0861923 0 0 0 -0.221054,0.063065 L 41.679767,9.8458829 15.876024,-7.9988014 A 8.0861923,8.0861923 0 0 0 15.686502,-8.1249335 L -4.2111258,-21.895345 Z m -120.522748,20.371385 h 85.97036 L -3.137306,-1.4924929 -38.447681,22.921566 -49.028166,30.248945 -106.92077,8.3931506 Z M 11.075295,8.3615527 23.487621,16.920692 29.29899,20.963383 1.1580542,61.67457 -19.592323,91.678911 -39.837365,99.322125 V 75.160731 43.545618 l 1.231728,-0.852684 z M 66.030631,17.931364 V 42.092772 73.707884 L 15.117987,108.92351 -3.1057245,96.290107 45.785589,25.574591 Z"
           id="polygon32733" />
      </g>
    </g>
  </g>
</svg>
