<?xml version="1.0" encoding="UTF-8" standalone="no"?>
<svg
   xmlns:dc="http://purl.org/dc/elements/1.1/"
   xmlns:cc="http://creativecommons.org/ns#"
   xmlns:rdf="http://www.w3.org/1999/02/22-rdf-syntax-ns#"
   xmlns:svg="http://www.w3.org/2000/svg"
   xmlns="http://www.w3.org/2000/svg"
   xmlns:sodipodi="http://sodipodi.sourceforge.net/DTD/sodipodi-0.dtd"
   xmlns:inkscape="http://www.inkscape.org/namespaces/inkscape"
   inkscape:export-ydpi="96"
   inkscape:export-xdpi="96"
   inkscape:export-filename="C:\Users\PcCom\AppData\Roaming\Blender Foundation\Blender\2.81\scripts\addons\sverchok\ui\icons\sv_pulga_springs_force.png"
   sodipodi:docname="sv_pulga_springs_force.svg"
   inkscape:version="1.0 (4035a4fb49, 2020-05-01)"
   id="svg8"
   version="1.1"
   viewBox="0 0 16.933333 16.933334"
   height="64"
   width="64">
  <defs
     id="defs2">
    <inkscape:perspective
       id="perspective900"
       inkscape:persp3d-origin="7.8017927 : 6.5863493 : 1"
       inkscape:vp_z="18.221118 : 13.619243 : 1"
       inkscape:vp_y="7.8017927 : 1006.5863 : 1"
       inkscape:vp_x="2.7074218 : 14.925364 : 1"
       sodipodi:type="inkscape:persp3d" />
    <marker
       inkscape:isstock="true"
       style="overflow:visible"
       id="Arrow1Sstart"
       refX="0.0"
       refY="0.0"
       orient="auto"
       inkscape:stockid="Arrow1Sstart">
      <path
         transform="scale(0.2) translate(6,0)"
         style="fill-rule:evenodd;stroke:#000000;stroke-width:1pt;stroke-opacity:1;fill:#000000;fill-opacity:1"
         d="M 0.0,0.0 L 5.0,-5.0 L -12.5,0.0 L 5.0,5.0 L 0.0,0.0 z "
         id="path841" />
    </marker>
    <marker
       inkscape:stockid="Arrow1Send"
       orient="auto"
       refY="0.0"
       refX="0.0"
       id="marker9994"
       style="overflow:visible;"
       inkscape:isstock="true">
      <path
         id="path9992"
         d="M 0.0,0.0 L 5.0,-5.0 L -12.5,0.0 L 5.0,5.0 L 0.0,0.0 z "
         style="fill-rule:evenodd;stroke:#000000;stroke-width:1pt;stroke-opacity:1;fill:#000000;fill-opacity:1"
         transform="scale(0.2) rotate(180) translate(6,0)" />
    </marker>
    <marker
       inkscape:stockid="Arrow1Send"
       orient="auto"
       refY="0.0"
       refX="0.0"
       id="marker7727"
       style="overflow:visible;"
       inkscape:isstock="true">
      <path
         id="path7725"
         d="M 0.0,0.0 L 5.0,-5.0 L -12.5,0.0 L 5.0,5.0 L 0.0,0.0 z "
         style="fill-rule:evenodd;stroke:#000000;stroke-width:1pt;stroke-opacity:1;fill:#000000;fill-opacity:1"
         transform="scale(0.2) rotate(180) translate(6,0)" />
    </marker>
    <marker
       inkscape:stockid="Arrow1Send"
       orient="auto"
       refY="0.0"
       refX="0.0"
       id="marker1273"
       style="overflow:visible;"
       inkscape:isstock="true">
      <path
         id="path1271"
         d="M 0.0,0.0 L 5.0,-5.0 L -12.5,0.0 L 5.0,5.0 L 0.0,0.0 z "
         style="fill-rule:evenodd;stroke:#000000;stroke-width:1pt;stroke-opacity:1;fill:#000000;fill-opacity:1"
         transform="scale(0.2) rotate(180) translate(6,0)" />
    </marker>
    <marker
       inkscape:isstock="true"
       style="overflow:visible"
       id="TriangleOutM"
       refX="0.0"
       refY="0.0"
       orient="auto"
       inkscape:stockid="TriangleOutM">
      <path
         transform="scale(0.4)"
         style="fill-rule:evenodd;stroke:#000000;stroke-width:1pt;stroke-opacity:1;fill:#000000;fill-opacity:1"
         d="M 5.77,0.0 L -2.88,5.0 L -2.88,-5.0 L 5.77,0.0 z "
         id="path974" />
    </marker>
    <marker
       inkscape:isstock="true"
       style="overflow:visible"
       id="TriangleOutL"
       refX="0.0"
       refY="0.0"
       orient="auto"
       inkscape:stockid="TriangleOutL">
      <path
         transform="scale(0.8)"
         style="fill-rule:evenodd;stroke:#000000;stroke-width:1pt;stroke-opacity:1;fill:#000000;fill-opacity:1"
         d="M 5.77,0.0 L -2.88,5.0 L -2.88,-5.0 L 5.77,0.0 z "
         id="path971" />
    </marker>
    <marker
       inkscape:isstock="true"
       style="overflow:visible;"
       id="Arrow2Lend"
       refX="0.0"
       refY="0.0"
       orient="auto"
       inkscape:stockid="Arrow2Lend">
      <path
         transform="scale(1.1) rotate(180) translate(1,0)"
         d="M 8.7185878,4.0337352 L -2.2072895,0.016013256 L 8.7185884,-4.0017078 C 6.9730900,-1.6296469 6.9831476,1.6157441 8.7185878,4.0337352 z "
         style="fill-rule:evenodd;stroke-width:0.625;stroke-linejoin:round;stroke:#000000;stroke-opacity:1;fill:#000000;fill-opacity:1"
         id="path850" />
    </marker>
    <marker
       inkscape:isstock="true"
       style="overflow:visible;"
       id="Arrow1Lend"
       refX="0.0"
       refY="0.0"
       orient="auto"
       inkscape:stockid="Arrow1Lend">
      <path
         transform="scale(0.8) rotate(180) translate(12.5,0)"
         style="fill-rule:evenodd;stroke:#000000;stroke-width:1pt;stroke-opacity:1;fill:#000000;fill-opacity:1"
         d="M 0.0,0.0 L 5.0,-5.0 L -12.5,0.0 L 5.0,5.0 L 0.0,0.0 z "
         id="path832" />
    </marker>
    <clipPath
       id="clipPath2499"
       clipPathUnits="userSpaceOnUse">
      <circle
         r="5.3478093"
         cy="288.00021"
         cx="8.0119171"
         id="circle2501"
         style="fill:#ffffff;stroke:#000000;stroke-width:0.999998;stroke-linecap:butt;stroke-linejoin:round;stroke-miterlimit:4;stroke-dasharray:none;stroke-dashoffset:1.5042;stroke-opacity:1;paint-order:markers fill stroke" />
    </clipPath>
    <filter
       style="color-interpolation-filters:sRGB;"
       inkscape:label="Drop Shadow"
       id="filter1322">
      <feFlood
         flood-opacity="1"
         flood-color="rgb(0,0,0)"
         result="flood"
         id="feFlood1312" />
      <feComposite
         in="flood"
         in2="SourceGraphic"
         operator="in"
         result="composite1"
         id="feComposite1314" />
      <feGaussianBlur
         in="composite1"
         stdDeviation="19.1617"
         result="blur"
         id="feGaussianBlur1316" />
      <feOffset
         dx="0"
         dy="0"
         result="offset"
         id="feOffset1318" />
      <feComposite
         in="SourceGraphic"
         in2="offset"
         operator="over"
         result="composite2"
         id="feComposite1320" />
    </filter>
  </defs>
  <sodipodi:namedview
     inkscape:snap-global="false"
     inkscape:snap-page="true"
     inkscape:snap-grids="false"
     inkscape:document-rotation="0"
     inkscape:snap-center="true"
     showguides="false"
     inkscape:window-maximized="1"
     inkscape:window-y="-8"
     inkscape:window-x="-8"
     inkscape:window-height="1017"
     inkscape:window-width="1920"
     units="px"
     showgrid="true"
     inkscape:current-layer="layer1"
     inkscape:document-units="mm"
     inkscape:cy="34.084843"
     inkscape:cx="36.375295"
     inkscape:zoom="9.550685"
     inkscape:pageshadow="2"
     inkscape:pageopacity="0"
     borderopacity="1.0"
     bordercolor="#666666"
     pagecolor="#323232"
     id="base">
    <inkscape:grid
       id="grid4512"
       type="xygrid"
       empspacing="4" />
  </sodipodi:namedview>
  <metadata
     id="metadata5">
    <rdf:RDF>
      <cc:Work
         rdf:about="">
        <dc:format>image/svg+xml</dc:format>
        <dc:type
           rdf:resource="http://purl.org/dc/dcmitype/StillImage" />
        <dc:title></dc:title>
      </cc:Work>
    </rdf:RDF>
  </metadata>
  <g
     style="opacity:0.998"
     transform="translate(0,-280.06665)"
     id="layer1"
     inkscape:groupmode="layer"
     inkscape:label="Layer 1">
    <text
       id="text5669"
       y="281.8187"
       x="0.83109218"
       style="font-style:normal;font-variant:normal;font-weight:normal;font-stretch:normal;font-size:2.64583px;line-height:125%;font-family:Sans;-inkscape-font-specification:Sans;text-align:start;letter-spacing:0px;word-spacing:0px;writing-mode:lr-tb;text-anchor:start;fill:#000000;fill-opacity:1;stroke:none;stroke-width:0.264583px;stroke-linecap:butt;stroke-linejoin:miter;stroke-opacity:1"
       xml:space="preserve" />
    <g
       style="opacity:1"
       id="g17612" />
    <path
       d="m 5.429375,295.48272 0.020793,-0.0286 0.011576,-0.0385 0.00241,-0.0484 -0.00667,-0.0582 -0.015616,-0.0678 -0.024397,-0.0772 -0.032993,-0.0865 -0.041352,-0.0955 -0.049448,-0.1042 -0.057249,-0.1126 -0.064723,-0.12064 -0.071844,-0.1283 -0.078579,-0.13556 -0.084903,-0.14236 -0.090793,-0.1487 -0.096223,-0.15454 -0.1011746,-0.15988 -0.1056262,-0.16466 -0.10956,-0.1689 -0.1129611,-0.17256 -0.1158168,-0.17563 -0.1181144,-0.17811 -0.1198455,-0.17997 -0.1210036,-0.18121 -0.1215839,-0.18184 -0.1215837,-0.18184 -0.1210036,-0.18122 -0.1198456,-0.17997 -0.1181143,-0.17811 -0.1158168,-0.17563 -0.112961,-0.17256 -0.10956,-0.1689 -0.1056261,-0.16466 -0.1011748,-0.15988 -0.096224,-0.15454 -0.090793,-0.1487 -0.084903,-0.14236 -0.078579,-0.13556 -0.071843,-0.1283 -0.064724,-0.12064 -0.057249,-0.1126 -0.049447,-0.1042 -0.041351,-0.0955 -0.03299,-0.0865 -0.0244,-0.0772 -0.015612,-0.0678 -0.00666,-0.0581 0.00241,-0.0484 0.01158,-0.0385 0.020799,-0.0286 0.030043,-0.0186 0.039262,-0.009 0.04843,0.001 0.057505,0.0109 0.066454,0.0206 0.075242,0.03 0.083832,0.0393 0.092193,0.0482 0.1002895,0.057 0.1080909,0.0654 0.115566,0.0734 0.1226852,0.0811 0.1294209,0.0883 0.1357454,0.0951 0.1416351,0.10146 0.1470659,0.10731 0.152017,0.11263 0.1564683,0.11743 0.1604022,0.12166 0.1638033,0.12532 0.166659,0.1284 0.1689565,0.13086 0.1706878,0.13274 0.1718459,0.13397 0.1724259,0.13461 0.1724261,0.1346 0.1718458,0.13398 0.1706877,0.13273 0.1689567,0.13087 0.166659,0.12839 0.1638033,0.12532 0.1604022,0.12166 0.1564684,0.11743 0.1520168,0.11264 0.1470658,0.1073 0.1416354,0.10147 0.135745,0.0951 0.129421,0.0883 0.1226858,0.0811 0.1155653,0.0734 0.108091,0.0654 0.10029,0.057 0.092194,0.0482 0.083836,0.0393 0.075239,0.03 0.066458,0.0206 0.057508,0.0109 0.048427,0.001 0.039266,-0.009 0.03005,-0.0186 0.020793,-0.0286 0.011576,-0.0385 0.00241,-0.0484 -0.00667,-0.0582 -0.015616,-0.0678 -0.024397,-0.0772 -0.032993,-0.0865 -0.041352,-0.0955 -0.049448,-0.1042 -0.057249,-0.1126 -0.064723,-0.12064 -0.071844,-0.1283 -0.078579,-0.13556 -0.084903,-0.14236 -0.090793,-0.1487 -0.096224,-0.15454 -0.1011746,-0.15988 -0.1056262,-0.16466 -0.1095599,-0.1689 -0.1129612,-0.17256 -0.1158167,-0.17563 -0.1181144,-0.17811 -0.1198455,-0.17997 -0.1210037,-0.18121 -0.1215838,-0.18184 -0.1215837,-0.18184 -0.1210037,-0.18122 -0.1198456,-0.17997 -0.1181142,-0.17811 -0.1158168,-0.17563 -0.1129611,-0.17256 -0.10956,-0.1689 -0.105626,-0.16466 -0.1011749,-0.15988 -0.096224,-0.15454 -0.090793,-0.1487 -0.084903,-0.14236 -0.078579,-0.13556 -0.071843,-0.1283 -0.064724,-0.12064 -0.057249,-0.1126 -0.049447,-0.1042 -0.041351,-0.0955 -0.03299,-0.0865 -0.0244,-0.0772 -0.015612,-0.0678 -0.00666,-0.0582 0.00241,-0.0484 0.011579,-0.0385 0.020799,-0.0286 0.030043,-0.0186 0.039263,-0.009 0.04843,0.001 0.057505,0.0109 0.066454,0.0206 0.075242,0.03 0.083832,0.0392 0.092193,0.0482 0.1002895,0.057 0.1080909,0.0654 0.1155661,0.0734 0.1226852,0.0811 0.1294208,0.0883 0.1357455,0.0951 0.1416351,0.10146 0.1470658,0.10731 0.1520171,0.11263 0.1564683,0.11743 0.1604022,0.12166 0.1638033,0.12532 0.1666589,0.1284 0.1689565,0.13086 0.1706879,0.13274 0.1718458,0.13397 0.1724259,0.13461 0.1724261,0.1346 0.1718459,0.13398 0.1706877,0.13273 0.1689566,0.13087 0.166659,0.12839 0.1638033,0.12532 0.1604022,0.12166 0.1564684,0.11743 0.1520169,0.11264 0.1470657,0.1073 0.1416355,0.10147 0.135745,0.0951 0.1294209,0.0883 0.1226858,0.0811 0.1155654,0.0734 0.108091,0.0654 0.1002907,0.057 0.09219,0.0482 0.08384,0.0393 0.07524,0.03 0.06646,0.0206 0.05751,0.0109 0.04843,10e-4 0.03927,-0.009 0.03005,-0.0186 0.02079,-0.0286 0.01158,-0.0385 0.0024,-0.0484 -0.0067,-0.0582 -0.01562,-0.0678 -0.0244,-0.0772 -0.03299,-0.0865 -0.04135,-0.0955 -0.04945,-0.1042 -0.05725,-0.1126 -0.06472,-0.12064 -0.07184,-0.1283 -0.07858,-0.13556 -0.0849,-0.14236 -0.090794,-0.1487 -0.096223,-0.15454 -0.1011747,-0.15988 -0.1056261,-0.16466 -0.10956,-0.1689 -0.1129611,-0.17256 -0.1158168,-0.17563 -0.1181144,-0.17811 -0.1198455,-0.17997 -0.1210036,-0.18121 -0.1215839,-0.18184 -0.1215837,-0.18184 -0.1210036,-0.18122 -0.1198456,-0.17997 -0.1181143,-0.17811 -0.1158168,-0.17563 -0.112961,-0.17256 -0.10956,-0.1689 -0.1056261,-0.16466 -0.1011748,-0.15988 -0.096224,-0.15454 -0.090793,-0.1487 -0.084903,-0.14236 -0.078579,-0.13556 -0.071843,-0.1283 -0.064724,-0.12064 -0.057249,-0.1126 -0.049447,-0.1042 -0.041351,-0.0955 -0.03299,-0.0865 -0.0244,-0.0772 -0.015612,-0.0678 -0.00666,-0.0582 0.00241,-0.0484 0.011579,-0.0385 0.020799,-0.0286 0.030043,-0.0186 0.039263,-0.009 0.04843,10e-4 0.057505,0.0109 0.066454,0.0205 0.075242,0.03 0.083832,0.0392 0.092193,0.0482 0.1002895,0.057 0.1080909,0.0654 0.115566,0.0734 0.1226852,0.0811 0.1294209,0.0883 0.1357454,0.0951 0.1416351,0.10146 0.1470659,0.10731 0.152017,0.11263 0.1564683,0.11743 0.1604022,0.12166 0.1638033,0.12532 0.166659,0.1284 0.1689565,0.13086 0.1706878,0.13274 0.1718459,0.13397 0.1724251,0.13461 0.172426,0.1346 0.171846,0.13398 0.170688,0.13273 0.168957,0.13087 0.166659,0.12839 0.163803,0.12532 0.160402,0.12166 0.156468,0.11743 0.152017,0.11264 0.147066,0.1073 0.141636,0.10147 0.135745,0.0951 0.12942,0.0883 0.122686,0.0811 0.115566,0.0734 0.108091,0.0654 0.10029,0.057 0.09219,0.0482 0.08383,0.0393 0.07524,0.03 0.06646,0.0206 0.05751,0.0109 0.04843,10e-4 0.03927,-0.009 0.03005,-0.0186 0.02079,-0.0286 0.01158,-0.0385 0.0024,-0.0484 -0.0067,-0.0582 -0.01562,-0.0678 -0.0244,-0.0772 -0.03299,-0.0865 -0.04135,-0.0955 -0.04945,-0.1042 -0.05725,-0.1126 -0.06472,-0.12064 -0.07184,-0.1283 -0.07858,-0.13556 -0.0849,-0.14236 -0.09079,-0.1487 -0.09622,-0.15454 -0.101175,-0.15988 -0.105626,-0.16466 -0.10956,-0.1689 -0.112961,-0.17256 -0.115817,-0.17563 -0.118114,-0.17811 -0.119846,-0.17997 -0.121003,-0.18121 -0.121584,-0.18184 -0.121584,-0.18184 -0.121004,-0.18122 -0.119845,-0.17997 -0.118114,-0.17811 -0.115817,-0.17563 -0.112961,-0.17256 -0.10956,-0.1689 -0.105626,-0.16466 -0.101175,-0.15988 -0.09622,-0.15454 -0.09079,-0.1487 -0.0849,-0.14236 -0.078579,-0.13556 -0.071843,-0.1283 -0.064724,-0.12064 -0.057249,-0.1126 -0.049447,-0.1042 -0.041351,-0.0955 -0.03299,-0.0865 -0.0244,-0.0772 -0.015612,-0.0678 -0.00666,-0.0582 0.00241,-0.0484 0.011579,-0.0385 0.020799,-0.0286 0.030043,-0.0186 0.039263,-0.009 0.04843,10e-4 0.057505,0.0109 0.066454,0.0205 0.075242,0.03 0.083833,0.0392 0.09219,0.0482 0.10029,0.057 0.108091,0.0654 0.115566,0.0734 0.122685,0.0811 0.129421,0.0883 0.135745,0.0951 0.141635,0.10146 0.147066,0.10731 0.152017,0.11263 0.156469,0.11743 0.160402,0.12166 0.163803,0.12532 0.166659,0.1284 0.168957,0.13086 0.170687,0.13274 0.171846,0.13397 0.172426,0.13461 0.172426,0.1346 0.171846,0.13398 0.170688,0.13273 0.168957,0.13087 0.166659,0.12839 0.163803,0.12532 0.160402,0.12166 0.156468,0.11743 0.152017,0.11264 0.147066,0.1073 0.141635,0.10147 0.135745,0.0951 0.129421,0.0883 0.122686,0.0811 0.115566,0.0734 0.108091,0.0654 0.10029,0.057 0.09219,0.0482 0.08383,0.0393 0.07524,0.03 0.06646,0.0205 0.05751,0.0109 0.04843,10e-4 0.03927,-0.009 0.03005,-0.0186"
       style="mix-blend-mode:normal;fill:none;fill-opacity:0;stroke:#000000;stroke-width:2;stroke-linecap:butt;stroke-linejoin:bevel;stroke-miterlimit:4;stroke-dasharray:none;stroke-opacity:1;paint-order:markers fill stroke"
       id="path4" />
    <path
       id="path9566"
       style="mix-blend-mode:normal;fill:none;fill-opacity:0;stroke:#ffffff;stroke-width:1;stroke-linecap:butt;stroke-linejoin:bevel;stroke-miterlimit:4;stroke-dasharray:none;stroke-opacity:1;paint-order:markers fill stroke"
       d="m 5.429375,295.48272 0.020793,-0.0286 0.011576,-0.0385 0.00241,-0.0484 -0.00667,-0.0582 -0.015616,-0.0678 -0.024397,-0.0772 -0.032993,-0.0865 -0.041352,-0.0955 -0.049448,-0.1042 -0.057249,-0.1126 -0.064723,-0.12064 -0.071844,-0.1283 -0.078579,-0.13556 -0.084903,-0.14236 -0.090793,-0.1487 -0.096223,-0.15454 -0.1011746,-0.15988 -0.1056262,-0.16466 -0.10956,-0.1689 -0.1129611,-0.17256 -0.1158168,-0.17563 -0.1181144,-0.17811 -0.1198455,-0.17997 -0.1210036,-0.18121 -0.1215839,-0.18184 -0.1215837,-0.18184 -0.1210036,-0.18122 -0.1198456,-0.17997 -0.1181143,-0.17811 -0.1158168,-0.17563 -0.112961,-0.17256 -0.10956,-0.1689 -0.1056261,-0.16466 -0.1011748,-0.15988 -0.096224,-0.15454 -0.090793,-0.1487 -0.084903,-0.14236 -0.078579,-0.13556 -0.071843,-0.1283 -0.064724,-0.12064 -0.057249,-0.1126 -0.049447,-0.1042 -0.041351,-0.0955 -0.03299,-0.0865 -0.0244,-0.0772 -0.015612,-0.0678 -0.00666,-0.0581 0.00241,-0.0484 0.01158,-0.0385 0.020799,-0.0286 0.030043,-0.0186 0.039262,-0.009 0.04843,0.001 0.057505,0.0109 0.066454,0.0206 0.075242,0.03 0.083832,0.0393 0.092193,0.0482 0.1002895,0.057 0.1080909,0.0654 0.115566,0.0734 0.1226852,0.0811 0.1294209,0.0883 0.1357454,0.0951 0.1416351,0.10146 0.1470659,0.10731 0.152017,0.11263 0.1564683,0.11743 0.1604022,0.12166 0.1638033,0.12532 0.166659,0.1284 0.1689565,0.13086 0.1706878,0.13274 0.1718459,0.13397 0.1724259,0.13461 0.1724261,0.1346 0.1718458,0.13398 0.1706877,0.13273 0.1689567,0.13087 0.166659,0.12839 0.1638033,0.12532 0.1604022,0.12166 0.1564684,0.11743 0.1520168,0.11264 0.1470658,0.1073 0.1416354,0.10147 0.135745,0.0951 0.129421,0.0883 0.1226858,0.0811 0.1155653,0.0734 0.108091,0.0654 0.10029,0.057 0.092194,0.0482 0.083836,0.0393 0.075239,0.03 0.066458,0.0206 0.057508,0.0109 0.048427,0.001 0.039266,-0.009 0.03005,-0.0186 0.020793,-0.0286 0.011576,-0.0385 0.00241,-0.0484 -0.00667,-0.0582 -0.015616,-0.0678 -0.024397,-0.0772 -0.032993,-0.0865 -0.041352,-0.0955 -0.049448,-0.1042 -0.057249,-0.1126 -0.064723,-0.12064 -0.071844,-0.1283 -0.078579,-0.13556 -0.084903,-0.14236 -0.090793,-0.1487 -0.096224,-0.15454 -0.1011746,-0.15988 -0.1056262,-0.16466 -0.1095599,-0.1689 -0.1129612,-0.17256 -0.1158167,-0.17563 -0.1181144,-0.17811 -0.1198455,-0.17997 -0.1210037,-0.18121 -0.1215838,-0.18184 -0.1215837,-0.18184 -0.1210037,-0.18122 -0.1198456,-0.17997 -0.1181142,-0.17811 -0.1158168,-0.17563 -0.1129611,-0.17256 -0.10956,-0.1689 -0.105626,-0.16466 -0.1011749,-0.15988 -0.096224,-0.15454 -0.090793,-0.1487 -0.084903,-0.14236 -0.078579,-0.13556 -0.071843,-0.1283 -0.064724,-0.12064 -0.057249,-0.1126 -0.049447,-0.1042 -0.041351,-0.0955 -0.03299,-0.0865 -0.0244,-0.0772 -0.015612,-0.0678 -0.00666,-0.0582 0.00241,-0.0484 0.011579,-0.0385 0.020799,-0.0286 0.030043,-0.0186 0.039263,-0.009 0.04843,0.001 0.057505,0.0109 0.066454,0.0206 0.075242,0.03 0.083832,0.0392 0.092193,0.0482 0.1002895,0.057 0.1080909,0.0654 0.1155661,0.0734 0.1226852,0.0811 0.1294208,0.0883 0.1357455,0.0951 0.1416351,0.10146 0.1470658,0.10731 0.1520171,0.11263 0.1564683,0.11743 0.1604022,0.12166 0.1638033,0.12532 0.1666589,0.1284 0.1689565,0.13086 0.1706879,0.13274 0.1718458,0.13397 0.1724259,0.13461 0.1724261,0.1346 0.1718459,0.13398 0.1706877,0.13273 0.1689566,0.13087 0.166659,0.12839 0.1638033,0.12532 0.1604022,0.12166 0.1564684,0.11743 0.1520169,0.11264 0.1470657,0.1073 0.1416355,0.10147 0.135745,0.0951 0.1294209,0.0883 0.1226858,0.0811 0.1155654,0.0734 0.108091,0.0654 0.1002907,0.057 0.09219,0.0482 0.08384,0.0393 0.07524,0.03 0.06646,0.0206 0.05751,0.0109 0.04843,10e-4 0.03927,-0.009 0.03005,-0.0186 0.02079,-0.0286 0.01158,-0.0385 0.0024,-0.0484 -0.0067,-0.0582 -0.01562,-0.0678 -0.0244,-0.0772 -0.03299,-0.0865 -0.04135,-0.0955 -0.04945,-0.1042 -0.05725,-0.1126 -0.06472,-0.12064 -0.07184,-0.1283 -0.07858,-0.13556 -0.0849,-0.14236 -0.090794,-0.1487 -0.096223,-0.15454 -0.1011747,-0.15988 -0.1056261,-0.16466 -0.10956,-0.1689 -0.1129611,-0.17256 -0.1158168,-0.17563 -0.1181144,-0.17811 -0.1198455,-0.17997 -0.1210036,-0.18121 -0.1215839,-0.18184 -0.1215837,-0.18184 -0.1210036,-0.18122 -0.1198456,-0.17997 -0.1181143,-0.17811 -0.1158168,-0.17563 -0.112961,-0.17256 -0.10956,-0.1689 -0.1056261,-0.16466 -0.1011748,-0.15988 -0.096224,-0.15454 -0.090793,-0.1487 -0.084903,-0.14236 -0.078579,-0.13556 -0.071843,-0.1283 -0.064724,-0.12064 -0.057249,-0.1126 -0.049447,-0.1042 -0.041351,-0.0955 -0.03299,-0.0865 -0.0244,-0.0772 -0.015612,-0.0678 -0.00666,-0.0582 0.00241,-0.0484 0.011579,-0.0385 0.020799,-0.0286 0.030043,-0.0186 0.039263,-0.009 0.04843,10e-4 0.057505,0.0109 0.066454,0.0205 0.075242,0.03 0.083832,0.0392 0.092193,0.0482 0.1002895,0.057 0.1080909,0.0654 0.115566,0.0734 0.1226852,0.0811 0.1294209,0.0883 0.1357454,0.0951 0.1416351,0.10146 0.1470659,0.10731 0.152017,0.11263 0.1564683,0.11743 0.1604022,0.12166 0.1638033,0.12532 0.166659,0.1284 0.1689565,0.13086 0.1706878,0.13274 0.1718459,0.13397 0.1724251,0.13461 0.172426,0.1346 0.171846,0.13398 0.170688,0.13273 0.168957,0.13087 0.166659,0.12839 0.163803,0.12532 0.160402,0.12166 0.156468,0.11743 0.152017,0.11264 0.147066,0.1073 0.141636,0.10147 0.135745,0.0951 0.12942,0.0883 0.122686,0.0811 0.115566,0.0734 0.108091,0.0654 0.10029,0.057 0.09219,0.0482 0.08383,0.0393 0.07524,0.03 0.06646,0.0206 0.05751,0.0109 0.04843,10e-4 0.03927,-0.009 0.03005,-0.0186 0.02079,-0.0286 0.01158,-0.0385 0.0024,-0.0484 -0.0067,-0.0582 -0.01562,-0.0678 -0.0244,-0.0772 -0.03299,-0.0865 -0.04135,-0.0955 -0.04945,-0.1042 -0.05725,-0.1126 -0.06472,-0.12064 -0.07184,-0.1283 -0.07858,-0.13556 -0.0849,-0.14236 -0.09079,-0.1487 -0.09622,-0.15454 -0.101175,-0.15988 -0.105626,-0.16466 -0.10956,-0.1689 -0.112961,-0.17256 -0.115817,-0.17563 -0.118114,-0.17811 -0.119846,-0.17997 -0.121003,-0.18121 -0.121584,-0.18184 -0.121584,-0.18184 -0.121004,-0.18122 -0.119845,-0.17997 -0.118114,-0.17811 -0.115817,-0.17563 -0.112961,-0.17256 -0.10956,-0.1689 -0.105626,-0.16466 -0.101175,-0.15988 -0.09622,-0.15454 -0.09079,-0.1487 -0.0849,-0.14236 -0.078579,-0.13556 -0.071843,-0.1283 -0.064724,-0.12064 -0.057249,-0.1126 -0.049447,-0.1042 -0.041351,-0.0955 -0.03299,-0.0865 -0.0244,-0.0772 -0.015612,-0.0678 -0.00666,-0.0582 0.00241,-0.0484 0.011579,-0.0385 0.020799,-0.0286 0.030043,-0.0186 0.039263,-0.009 0.04843,10e-4 0.057505,0.0109 0.066454,0.0205 0.075242,0.03 0.083833,0.0392 0.09219,0.0482 0.10029,0.057 0.108091,0.0654 0.115566,0.0734 0.122685,0.0811 0.129421,0.0883 0.135745,0.0951 0.141635,0.10146 0.147066,0.10731 0.152017,0.11263 0.156469,0.11743 0.160402,0.12166 0.163803,0.12532 0.166659,0.1284 0.168957,0.13086 0.170687,0.13274 0.171846,0.13397 0.172426,0.13461 0.172426,0.1346 0.171846,0.13398 0.170688,0.13273 0.168957,0.13087 0.166659,0.12839 0.163803,0.12532 0.160402,0.12166 0.156468,0.11743 0.152017,0.11264 0.147066,0.1073 0.141635,0.10147 0.135745,0.0951 0.129421,0.0883 0.122686,0.0811 0.115566,0.0734 0.108091,0.0654 0.10029,0.057 0.09219,0.0482 0.08383,0.0393 0.07524,0.03 0.06646,0.0205 0.05751,0.0109 0.04843,10e-4 0.03927,-0.009 0.03005,-0.0186" />
    <circle
       r="1.3437619"
       cy="281.7981"
       cx="15.056622"
       id="path9558"
       style="opacity:0.998;fill:#ffffff;stroke:#000000;stroke-width:0.493;stroke-linejoin:round;stroke-miterlimit:4;stroke-dasharray:none;paint-order:markers fill stroke" />
    <circle
       style="opacity:0.998;fill:#ffffff;stroke:#000000;stroke-width:0.493;stroke-linejoin:round;stroke-miterlimit:4;stroke-dasharray:none;paint-order:markers fill stroke"
       id="circle10235"
       cx="1.8145521"
       cy="295.34491"
       r="1.3437619" />
  </g>
</svg>
