<?xml version="1.0" encoding="UTF-8" standalone="no"?>
<svg
   xmlns:dc="http://purl.org/dc/elements/1.1/"
   xmlns:cc="http://creativecommons.org/ns#"
   xmlns:rdf="http://www.w3.org/1999/02/22-rdf-syntax-ns#"
   xmlns:svg="http://www.w3.org/2000/svg"
   xmlns="http://www.w3.org/2000/svg"
   xmlns:sodipodi="http://sodipodi.sourceforge.net/DTD/sodipodi-0.dtd"
   xmlns:inkscape="http://www.inkscape.org/namespaces/inkscape"
   width="64"
   height="64"
   viewBox="0 0 16.933333 16.933334"
   version="1.1"
   id="svg8"
   inkscape:version="1.0 (4035a4fb49, 2020-05-01)"
   sodipodi:docname="sv_split_solid.svg"
   inkscape:export-filename="/home/portnov/src/sverchok/ui/icons/sv_split_solid.png"
   inkscape:export-xdpi="96"
   inkscape:export-ydpi="96">
  <defs
     id="defs2">
    <marker
       inkscape:stockid="EmptyTriangleOutM"
       orient="auto"
       refY="0.0"
       refX="0.0"
       id="EmptyTriangleOutM"
       style="overflow:visible"
       inkscape:isstock="true">
      <path
         id="path1069"
         d="M 5.77,0.0 L -2.88,5.0 L -2.88,-5.0 L 5.77,0.0 z "
         style="fill-rule:evenodd;fill:#ffffff;stroke:#000000;stroke-width:1pt;stroke-opacity:1"
         transform="scale(0.4) translate(-4.5,0)" />
    </marker>
    <marker
       inkscape:stockid="Arrow1Lend"
       orient="auto"
       refY="0.0"
       refX="0.0"
       id="marker1181"
       style="overflow:visible;"
       inkscape:isstock="true">
      <path
         id="path909"
         d="M 0.0,0.0 L 5.0,-5.0 L -12.5,0.0 L 5.0,5.0 L 0.0,0.0 z "
         style="fill-rule:evenodd;stroke:#000000;stroke-width:1pt;stroke-opacity:1;fill:#000000;fill-opacity:1"
         transform="scale(0.8) rotate(180) translate(12.5,0)" />
    </marker>
    <marker
       inkscape:stockid="ExperimentalArrow"
       orient="auto-start-reverse"
       refY="3.0"
       refX="5.0"
       id="ExperimentalArrow"
       inkscape:isstock="true">
      <path
         id="path1159"
         d="m 10,3 -10,3 0,-6 z"
         style="fill:context-stroke;stroke:#000000;stroke-opacity:1" />
    </marker>
    <marker
       inkscape:stockid="EmptyTriangleOutL"
       orient="auto"
       refY="0.0"
       refX="0.0"
       id="EmptyTriangleOutL"
       style="overflow:visible"
       inkscape:isstock="true">
      <path
         id="path1066"
         d="M 5.77,0.0 L -2.88,5.0 L -2.88,-5.0 L 5.77,0.0 z "
         style="fill-rule:evenodd;fill:#ffffff;stroke:#000000;stroke-width:1pt;stroke-opacity:1"
         transform="scale(0.8) translate(-6,0)" />
    </marker>
    <marker
       inkscape:stockid="Tail"
       orient="auto"
       refY="0.0"
       refX="0.0"
       id="Tail"
       style="overflow:visible"
       inkscape:isstock="true">
      <g
         id="g954"
         transform="scale(-1.2)"
         style="stroke:#000000;stroke-opacity:1;fill:#000000;fill-opacity:1">
        <path
           id="path942"
           d="M -3.8048674,-3.9585227 L 0.54352094,0"
           style="fill:#000000;fill-rule:evenodd;stroke:#000000;stroke-width:0.8;stroke-linecap:round;stroke-opacity:1;fill-opacity:1" />
        <path
           id="path944"
           d="M -1.2866832,-3.9585227 L 3.0617053,0"
           style="fill:#000000;fill-rule:evenodd;stroke:#000000;stroke-width:0.8;stroke-linecap:round;stroke-opacity:1;fill-opacity:1" />
        <path
           id="path946"
           d="M 1.3053582,-3.9585227 L 5.6537466,0"
           style="fill:#000000;fill-rule:evenodd;stroke:#000000;stroke-width:0.8;stroke-linecap:round;stroke-opacity:1;fill-opacity:1" />
        <path
           id="path948"
           d="M -3.8048674,4.1775838 L 0.54352094,0.21974226"
           style="fill:#000000;fill-rule:evenodd;stroke:#000000;stroke-width:0.8;stroke-linecap:round;stroke-opacity:1;fill-opacity:1" />
        <path
           id="path950"
           d="M -1.2866832,4.1775838 L 3.0617053,0.21974226"
           style="fill:#000000;fill-rule:evenodd;stroke:#000000;stroke-width:0.8;stroke-linecap:round;stroke-opacity:1;fill-opacity:1" />
        <path
           id="path952"
           d="M 1.3053582,4.1775838 L 5.6537466,0.21974226"
           style="fill:#000000;fill-rule:evenodd;stroke:#000000;stroke-width:0.8;stroke-linecap:round;stroke-opacity:1;fill-opacity:1" />
      </g>
    </marker>
    <marker
       inkscape:stockid="TriangleOutS"
       orient="auto"
       refY="0.0"
       refX="0.0"
       id="marker1168"
       style="overflow:visible"
       inkscape:isstock="true">
      <path
         id="path1166"
         d="M 5.77,0.0 L -2.88,5.0 L -2.88,-5.0 L 5.77,0.0 z "
         style="fill-rule:evenodd;stroke:#000000;stroke-width:1pt;stroke-opacity:1;fill:#000000;fill-opacity:1"
         transform="scale(0.2)" />
    </marker>
    <marker
       inkscape:stockid="TriangleOutS"
       orient="auto"
       refY="0.0"
       refX="0.0"
       id="TriangleOutS"
       style="overflow:visible"
       inkscape:isstock="true">
      <path
         id="path1034"
         d="M 5.77,0.0 L -2.88,5.0 L -2.88,-5.0 L 5.77,0.0 z "
         style="fill-rule:evenodd;stroke:#000000;stroke-width:1pt;stroke-opacity:1;fill:#000000;fill-opacity:1"
         transform="scale(0.2)" />
    </marker>
    <marker
       inkscape:stockid="Arrow2Send"
       orient="auto"
       refY="0.0"
       refX="0.0"
       id="marker1162"
       style="overflow:visible;"
       inkscape:isstock="true">
      <path
         id="path1160"
         style="fill-rule:evenodd;stroke-width:0.625;stroke-linejoin:round;stroke:#000000;stroke-opacity:1;fill:#000000;fill-opacity:1"
         d="M 8.7185878,4.0337352 L -2.2072895,0.016013256 L 8.7185884,-4.0017078 C 6.9730900,-1.6296469 6.9831476,1.6157441 8.7185878,4.0337352 z "
         transform="scale(0.3) rotate(180) translate(-2.3,0)" />
    </marker>
    <marker
       inkscape:stockid="Arrow2Send"
       orient="auto"
       refY="0.0"
       refX="0.0"
       id="marker1158"
       style="overflow:visible;"
       inkscape:isstock="true">
      <path
         id="path919"
         style="fill-rule:evenodd;stroke-width:0.625;stroke-linejoin:round;stroke:#000000;stroke-opacity:1;fill:#000000;fill-opacity:1"
         d="M 8.7185878,4.0337352 L -2.2072895,0.016013256 L 8.7185884,-4.0017078 C 6.9730900,-1.6296469 6.9831476,1.6157441 8.7185878,4.0337352 z "
         transform="scale(0.3) rotate(180) translate(-2.3,0)" />
    </marker>
    <marker
       inkscape:stockid="Arrow1Send"
       orient="auto"
       refY="0.0"
       refX="0.0"
       id="marker1155"
       style="overflow:visible;"
       inkscape:isstock="true">
      <path
         id="path1153"
         d="M 0.0,0.0 L 5.0,-5.0 L -12.5,0.0 L 5.0,5.0 L 0.0,0.0 z "
         style="fill-rule:evenodd;stroke:#000000;stroke-width:1pt;stroke-opacity:1;fill:#000000;fill-opacity:1"
         transform="scale(0.2) rotate(180) translate(6,0)" />
    </marker>
    <marker
       inkscape:stockid="Arrow1Send"
       orient="auto"
       refY="0.0"
       refX="0.0"
       id="marker1149"
       style="overflow:visible;"
       inkscape:isstock="true">
      <path
         id="path901"
         d="M 0.0,0.0 L 5.0,-5.0 L -12.5,0.0 L 5.0,5.0 L 0.0,0.0 z "
         style="fill-rule:evenodd;stroke:#000000;stroke-width:1pt;stroke-opacity:1;fill:#000000;fill-opacity:1"
         transform="scale(0.2) rotate(180) translate(6,0)" />
    </marker>
    <marker
       inkscape:stockid="Arrow2Send"
       orient="auto"
       refY="0.0"
       refX="0.0"
       id="Arrow2Send"
       style="overflow:visible;"
       inkscape:isstock="true">
      <path
         id="path877"
         style="fill-rule:evenodd;stroke-width:0.625;stroke-linejoin:round;stroke:#000000;stroke-opacity:1;fill:#000000;fill-opacity:1"
         d="M 8.7185878,4.0337352 L -2.2072895,0.016013256 L 8.7185884,-4.0017078 C 6.9730900,-1.6296469 6.9831476,1.6157441 8.7185878,4.0337352 z "
         transform="scale(0.3) rotate(180) translate(-2.3,0)" />
    </marker>
    <marker
       inkscape:stockid="Arrow1Send"
       orient="auto"
       refY="0.0"
       refX="0.0"
       id="Arrow1Send"
       style="overflow:visible;"
       inkscape:isstock="true">
      <path
         id="path859"
         d="M 0.0,0.0 L 5.0,-5.0 L -12.5,0.0 L 5.0,5.0 L 0.0,0.0 z "
         style="fill-rule:evenodd;stroke:#000000;stroke-width:1pt;stroke-opacity:1;fill:#000000;fill-opacity:1"
         transform="scale(0.2) rotate(180) translate(6,0)" />
    </marker>
    <marker
       inkscape:isstock="true"
       style="overflow:visible;"
       id="marker3098"
       refX="0.0"
       refY="0.0"
       orient="auto"
       inkscape:stockid="Arrow1Send">
      <path
         transform="scale(0.2) rotate(180) translate(6,0)"
         style="fill-rule:evenodd;stroke:#000000;stroke-width:1pt;stroke-opacity:1;fill:#000000;fill-opacity:1"
         d="M 0.0,0.0 L 5.0,-5.0 L -12.5,0.0 L 5.0,5.0 L 0.0,0.0 z "
         id="path3096" />
    </marker>
    <marker
       inkscape:stockid="Arrow1Send"
       orient="auto"
       refY="0.0"
       refX="0.0"
       id="marker9341"
       style="overflow:visible;"
       inkscape:isstock="true">
      <path
         id="path9339"
         d="M 0.0,0.0 L 5.0,-5.0 L -12.5,0.0 L 5.0,5.0 L 0.0,0.0 z "
         style="fill-rule:evenodd;stroke:#000000;stroke-width:1pt;stroke-opacity:1;fill:#000000;fill-opacity:1"
         transform="scale(0.2) rotate(180) translate(6,0)" />
    </marker>
    <marker
       inkscape:isstock="true"
       style="overflow:visible;"
       id="marker7727"
       refX="0.0"
       refY="0.0"
       orient="auto"
       inkscape:stockid="Arrow1Send">
      <path
         transform="scale(0.2) rotate(180) translate(6,0)"
         style="fill-rule:evenodd;stroke:#000000;stroke-width:1pt;stroke-opacity:1;fill:#000000;fill-opacity:1"
         d="M 0.0,0.0 L 5.0,-5.0 L -12.5,0.0 L 5.0,5.0 L 0.0,0.0 z "
         id="path7725" />
    </marker>
    <marker
       inkscape:stockid="TriangleOutM"
       orient="auto"
       refY="0.0"
       refX="0.0"
       id="TriangleOutM"
       style="overflow:visible"
       inkscape:isstock="true">
      <path
         id="path974"
         d="M 5.77,0.0 L -2.88,5.0 L -2.88,-5.0 L 5.77,0.0 z "
         style="fill-rule:evenodd;stroke:#000000;stroke-width:1pt;stroke-opacity:1;fill:#000000;fill-opacity:1"
         transform="scale(0.4)" />
    </marker>
    <marker
       inkscape:stockid="TriangleOutL"
       orient="auto"
       refY="0.0"
       refX="0.0"
       id="TriangleOutL"
       style="overflow:visible"
       inkscape:isstock="true">
      <path
         id="path971"
         d="M 5.77,0.0 L -2.88,5.0 L -2.88,-5.0 L 5.77,0.0 z "
         style="fill-rule:evenodd;stroke:#000000;stroke-width:1pt;stroke-opacity:1;fill:#000000;fill-opacity:1"
         transform="scale(0.8)" />
    </marker>
    <marker
       inkscape:stockid="Arrow2Lend"
       orient="auto"
       refY="0.0"
       refX="0.0"
       id="Arrow2Lend"
       style="overflow:visible;"
       inkscape:isstock="true">
      <path
         id="path850"
         style="fill-rule:evenodd;stroke-width:0.625;stroke-linejoin:round;stroke:#000000;stroke-opacity:1;fill:#000000;fill-opacity:1"
         d="M 8.7185878,4.0337352 L -2.2072895,0.016013256 L 8.7185884,-4.0017078 C 6.9730900,-1.6296469 6.9831476,1.6157441 8.7185878,4.0337352 z "
         transform="scale(1.1) rotate(180) translate(1,0)" />
    </marker>
    <marker
       inkscape:stockid="Arrow1Lend"
       orient="auto"
       refY="0.0"
       refX="0.0"
       id="Arrow1Lend"
       style="overflow:visible;"
       inkscape:isstock="true">
      <path
         id="path832"
         d="M 0.0,0.0 L 5.0,-5.0 L -12.5,0.0 L 5.0,5.0 L 0.0,0.0 z "
         style="fill-rule:evenodd;stroke:#000000;stroke-width:1pt;stroke-opacity:1;fill:#000000;fill-opacity:1"
         transform="scale(0.8) rotate(180) translate(12.5,0)" />
    </marker>
  </defs>
  <sodipodi:namedview
     id="base"
     pagecolor="#ffffff"
     bordercolor="#666666"
     borderopacity="1.0"
     inkscape:pageopacity="0.0"
     inkscape:pageshadow="2"
     inkscape:zoom="11.694318"
     inkscape:cx="30.396897"
     inkscape:cy="29.773186"
     inkscape:document-units="mm"
     inkscape:current-layer="text856"
     showgrid="false"
     units="px"
     inkscape:window-width="956"
     inkscape:window-height="1196"
     inkscape:window-x="960"
     inkscape:window-y="0"
     inkscape:window-maximized="1"
     showguides="false"
     inkscape:snap-center="true"
     inkscape:snap-global="false"
     inkscape:document-rotation="0">
    <inkscape:grid
       type="xygrid"
       id="grid4512" />
  </sodipodi:namedview>
  <metadata
     id="metadata5">
    <rdf:RDF>
      <cc:Work
         rdf:about="">
        <dc:format>image/svg+xml</dc:format>
        <dc:type
           rdf:resource="http://purl.org/dc/dcmitype/StillImage" />
        <dc:title></dc:title>
      </cc:Work>
    </rdf:RDF>
  </metadata>
  <g
     inkscape:label="Layer 1"
     inkscape:groupmode="layer"
     id="layer1"
     transform="translate(0,-280.06665)">
    <text
       xml:space="preserve"
       style="font-style:normal;font-variant:normal;font-weight:normal;font-stretch:normal;font-size:2.64583px;line-height:125%;font-family:Sans;-inkscape-font-specification:Sans;text-align:start;letter-spacing:0px;word-spacing:0px;writing-mode:lr-tb;text-anchor:start;fill:#000000;fill-opacity:1;stroke:none;stroke-width:0.264583px;stroke-linecap:butt;stroke-linejoin:miter;stroke-opacity:1"
       x="0.83109218"
       y="281.8187"
       id="text5669" />
    <g
       aria-label="[]"
       style="font-style:normal;font-variant:normal;font-weight:normal;font-stretch:normal;font-size:18.42996979px;line-height:125%;font-family:Sans;-inkscape-font-specification:Sans;text-align:start;letter-spacing:0px;word-spacing:0px;writing-mode:lr-tb;text-anchor:start;fill:#000000;fill-opacity:1;stroke:none;stroke-width:0.26458335px;stroke-linecap:butt;stroke-linejoin:miter;stroke-opacity:1"
       id="text856">
      <path
         transform="matrix(0.26458333,0,0,0.26458333,0,280.06665)"
         d="M 57.197266 29.191406 C 51.150501 37.708226 40.563322 49.386379 26.732422 56.802734 A 25.356166 25.356166 0 0 0 32 57.355469 A 25.356166 25.356166 0 0 0 57.355469 32 A 25.356166 25.356166 0 0 0 57.197266 29.191406 z "
         style="fill:#ffffff;stroke:#000000;stroke-width:3.99874;paint-order:markers fill stroke"
         id="path1031" />
      <path
         sodipodi:nodetypes="cccccccccccccccccccccccccccccccccccccccccccccccccscccccccccccccccccccccccsccccccccccccccccccccccccccccccccccccccccccccccccccccccccccccccccccccccccccccccccccccccccccccccccccccccc"
         transform="matrix(0.26458333,0,0,0.26458333,0,280.06665)"
         d="m 46.842034,2.1693339 c -4.730505,0.9565762 -6.929426,2.3757066 -10.13305,4.9146505 5.313843,1.0045757 10.167313,3.6817856 13.851563,7.6406246 0.01957,0.0208 0.0391,0.04163 0.05859,0.0625 0.05679,0.06242 0.11278,0.125572 0.167968,0.189453 0.06289,0.07263 0.124746,0.146201 0.185547,0.220704 0.06095,0.07459 0.120853,0.150115 0.179688,0.226562 0.05902,0.07655 0.116961,0.154031 0.173828,0.232422 0.05708,0.07851 0.113069,0.157945 0.167969,0.238281 0.05447,0.07984 0.107855,0.160576 0.160156,0.242188 0.05253,0.0818 0.103964,0.16449 0.154297,0.248047 0.05059,0.08376 0.100073,0.168403 0.148437,0.253906 0.048,0.08573 0.09487,0.172327 0.140625,0.259766 0.04539,0.08706 0.08966,0.174955 0.132813,0.263671 0.04411,0.08901 0.08708,0.17886 0.128906,0.269532 0.04084,0.09035 0.08056,0.181496 0.119141,0.273437 0.03955,0.09165 0.07797,0.184105 0.115234,0.277344 0.0363,0.09363 0.07146,0.188036 0.105469,0.283203 0.03437,0.09559 0.06757,0.191949 0.09961,0.289063 0.03241,0.09626 0.06366,0.193271 0.09375,0.291015 0.02981,0.09823 0.05846,0.197193 0.08594,0.296875 0.02722,0.100198 0.05327,0.201114 0.07813,0.302734 0.02526,0.100869 0.04935,0.202436 0.07227,0.304688 0.02266,0.102192 0.04414,0.205061 0.06445,0.308594 0.02073,0.10415 0.04026,0.208972 0.05859,0.314453 0.01811,0.104829 0.03504,0.210302 0.05078,0.316406 0.01551,0.106151 0.02983,0.212927 0.04297,0.320313 0.01357,0.10811 0.02594,0.216838 0.03711,0.326172 0.01096,0.108786 0.02072,0.218166 0.0293,0.328124 0.0084,0.110109 0.01552,0.220791 0.02148,0.332032 0.0057,0.110785 0.0103,0.222117 0.01367,0.333984 0.0038,0.112099 0.0064,0.224734 0.0078,0.337891 0.0019,0.113412 0.0025,0.227349 0.002,0.341797 -0.0014,0.114741 -0.004,0.22998 -0.0078,0.345703 -0.0034,0.114763 -0.0079,0.230002 -0.01367,0.345703 -0.006,0.116729 -0.01312,0.233921 -0.02148,0.351562 -0.0079,0.116752 -0.01704,0.233944 -0.02734,0.351563 -0.01053,0.118072 -0.02224,0.236567 -0.03516,0.355469 -0.01314,0.118747 -0.02746,0.237892 -0.04297,0.357422 -0.01573,0.120067 -0.03266,0.240515 -0.05078,0.361328 -0.0177,0.120088 -0.03658,0.240536 -0.05664,0.361328 -0.0203,0.121408 -0.04178,0.243158 -0.06445,0.365234 -0.02226,0.121429 -0.0457,0.243179 -0.07031,0.365234 -0.02486,0.12275 -0.0509,0.245802 -0.07813,0.369141 -0.02683,0.12277 -0.05482,0.245822 -0.08398,0.369141 -0.02944,0.123444 -0.06004,0.247147 -0.0918,0.371094 -0.03204,0.124117 -0.06525,0.248471 -0.09961,0.373046 -0.034,0.124784 -0.06915,0.249789 -0.105469,0.375 -0.03662,0.124811 -0.07438,0.249816 -0.113281,0.375 -0.03858,0.12483 -0.0783,0.249835 -0.119141,0.375 -0.04117,0.126151 -0.08349,0.252459 -0.126953,0.378907 -0.04381,0.12553 -0.08873,0.251186 -0.134766,0.376953 -0.0451,0.12619 -0.09133,0.252497 -0.138672,0.378906 -0.04772,0.126216 -0.09655,0.252523 -0.146484,0.378906 -0.05032,0.12689 -0.101759,0.253848 -0.154297,0.38086 -0.0523,0.126261 -0.105687,0.252568 -0.160156,0.378906 -0.05425,0.126928 -0.10959,0.253886 -0.166016,0.380859 -0.05687,0.126954 -0.11481,0.253913 -0.173828,0.38086 -0.05817,0.126967 -0.11742,0.253925 -0.177734,0.380859 -0.0608,0.126344 -0.122652,0.252651 -0.185547,0.378906 -0.0634,0.127019 -0.127858,0.253977 -0.193359,0.38086 -0.06472,0.126383 -0.13048,0.25269 -0.197266,0.378906 -0.06734,0.126409 -0.135698,0.252716 -0.205078,0.378906 -0.06931,0.125779 -0.139623,0.251436 -0.210938,0.376953 -0.07127,0.125799 -0.143536,0.251455 -0.216797,0.376953 -0.07257,0.125812 -0.146145,0.251469 -0.220703,0.376954 -0.0752,0.125189 -0.151372,0.250195 -0.228515,0.375 -0.07716,0.125209 -0.155285,0.250214 -0.234375,0.375 -0.07914,0.123931 -0.15922,0.247634 -0.240235,0.371093 -0.0811,0.123951 -0.163131,0.247654 -0.246093,0.371094 -0.0824,0.123965 -0.165739,0.247668 -0.25,0.371094 -0.08503,0.122693 -0.170976,0.245094 -0.257813,0.367187 -0.08635,0.122058 -0.173594,0.243808 -0.261719,0.365235 -0.08831,0.122078 -0.177504,0.243828 -0.267578,0.365234 -0.08963,0.120793 -0.180132,0.241241 -0.271484,0.361328 -0.0916,0.120165 -0.184054,0.239961 -0.277344,0.359375 -0.09357,0.119537 -0.187974,0.238682 -0.283203,0.357422 -0.09488,0.118901 -0.190591,0.237396 -0.287109,0.355469 -0.09685,0.118273 -0.194511,0.236116 -0.292969,0.353515 -0.09817,0.116989 -0.197137,0.23353 -0.296875,0.34961 -0.100151,0.115711 -0.201067,0.23095 -0.302735,0.345703 -0.101465,0.115076 -0.203682,0.229665 -0.30664,0.34375 -0.102779,0.114442 -0.206299,0.228379 -0.310547,0.341797 -0.104102,0.113157 -0.208924,0.225792 -0.314453,0.33789 -0.106067,0.112531 -0.212843,0.224515 -0.320313,0.335938 -0.106746,0.110589 -0.214173,0.22062 -0.322265,0.330078 -0.108712,0.109963 -0.218091,0.219343 -0.328125,0.328125 l -0.05664,0.05469 c -0.110034,0.10868 -0.220715,0.216757 -0.332031,0.324219 -0.111356,0.107396 -0.22334,0.214172 -0.335938,0.320313 -0.112025,0.106104 -0.224659,0.211577 -0.33789,0.316406 -0.113998,0.10483 -0.228586,0.209001 -0.34375,0.3125 -0.114667,0.103539 -0.229907,0.206408 -0.345704,0.308594 -0.116648,0.101615 -0.23384,0.20253 -0.351562,0.302734 -0.116656,0.100965 -0.233849,0.201229 -0.351562,0.300781 -0.118637,0.09904 -0.237783,0.197354 -0.357422,0.294922 -0.118653,0.09774 -0.237799,0.194752 -0.357422,0.291016 -0.120626,0.09647 -0.241725,0.192177 -0.363282,0.287109 -0.120649,0.09452 -0.241748,0.188275 -0.363281,0.28125 -0.121969,0.09324 -0.24437,0.185692 -0.367187,0.277344 -0.123297,0.09131 -0.247,0.181808 -0.371094,0.271484 -0.123312,0.09001 -0.247016,0.179207 -0.371094,0.267578 -0.124632,0.08873 -0.249638,0.176625 -0.375,0.263672 -0.124655,0.08678 -0.24966,0.172724 -0.375,0.257813 -0.125982,0.08485 -0.252289,0.168842 -0.378906,0.251953 -0.126656,0.08292 -0.253615,0.164951 -0.380859,0.246094 -0.126671,0.08162 -0.25363,0.162349 -0.38086,0.242187 -0.127998,0.07969 -0.256258,0.158469 -0.384765,0.236328 -0.12802,0.07774 -0.25628,0.154569 -0.384766,0.230469 -0.128694,0.07581 -0.257605,0.150679 -0.386719,0.22461 -0.128708,0.07451 -0.257619,0.148078 -0.386719,0.220703 -0.129388,0.07192 -0.258951,0.142889 -0.388671,0.21289 -0.129403,0.07062 -0.258965,0.14029 -0.388672,0.208985 -0.130084,0.06804 -0.260297,0.135101 -0.390625,0.201172 -0.130098,0.06674 -0.260311,0.132501 -0.390625,0.197265 -0.130779,0.06416 -0.261643,0.127314 -0.392578,0.189453 -0.130799,0.06222 -0.261665,0.123416 -0.392579,0.183594 -0.130813,0.06092 -0.261678,0.120817 -0.392578,0.179688 -0.13084,0.05833 -0.261705,0.115619 -0.392578,0.171874 -0.130868,0.05573 -0.261732,0.110423 -0.392578,0.164063 -0.130227,0.05443 -0.260441,0.107813 -0.390625,0.160156 -0.130909,0.05185 -0.261774,0.102629 -0.392578,0.152344 -0.130929,0.0499 -0.261794,0.09873 -0.392578,0.146484 -0.130296,0.04795 -0.260509,0.09482 -0.390625,0.140625 -0.130316,0.046 -0.26053,0.09093 -0.390625,0.134766 -0.130344,0.04341 -0.260558,0.08573 -0.390625,0.126953 -0.129717,0.04081 -0.25928,0.08053 -0.388672,0.119141 -0.129731,0.03952 -0.259294,0.07793 -0.388672,0.115234 -0.129104,0.03692 -0.258016,0.07273 -0.386719,0.107422 -0.128477,0.03432 -0.256737,0.06752 -0.384765,0.09961 -0.128499,0.03238 -0.256759,0.06363 -0.384766,0.09375 -0.127865,0.03042 -0.255474,0.05972 -0.382812,0.08789 -0.127238,0.02782 -0.254197,0.05452 -0.38086,0.08008 -0.126604,0.02587 -0.252912,0.05061 -0.378906,0.07422 -0.126634,0.02329 -0.252941,0.04542 -0.378906,0.06641 -0.125352,0.02068 -0.250357,0.04021 -0.375,0.05859 -0.124718,0.01873 -0.249073,0.0363 -0.373047,0.05273 -0.124085,0.01678 -0.247788,0.0324 -0.371094,0.04687 -0.122803,0.01417 -0.245204,0.02719 -0.367187,0.03906 -0.122834,0.01158 -0.245235,0.022 -0.367188,0.03125 -0.121544,0.0096 -0.242643,0.01808 -0.363281,0.02539 -0.120255,0.0077 -0.240052,0.01417 -0.359375,0.01953 -0.11963,0.0051 -0.238776,0.009 -0.357422,0.01172 -0.119006,0.0025 -0.2375,0.0038 -0.355469,0.0039 -0.117724,-1.37e-4 -0.234917,-0.0014 -0.351562,-0.0039 -0.116427,-0.0015 -0.232318,-0.0041 -0.347657,-0.0078 -0.115812,-0.0047 -0.231051,-0.01055 -0.345703,-0.01758 -0.113866,-0.0067 -0.227151,-0.01448 -0.339843,-0.02344 -0.113234,-0.0086 -0.225869,-0.01838 -0.337891,-0.0293 -0.111954,-0.01122 -0.223287,-0.02359 -0.333984,-0.03711 -0.110675,-0.01382 -0.220706,-0.02879 -0.330079,-0.04492 -0.109386,-0.01578 -0.218114,-0.03271 -0.326171,-0.05078 -0.108107,-0.01838 -0.215533,-0.03791 -0.322266,-0.05859 -0.106819,-0.02034 -0.212943,-0.04183 -0.318359,-0.06445 -0.10554,-0.02294 -0.210363,-0.04703 -0.314454,-0.07227 -0.103594,-0.02491 -0.206463,-0.05096 -0.308593,-0.07813 -0.102317,-0.02751 -0.203884,-0.05616 -0.304688,-0.08594 -0.101029,-0.02947 -0.201294,-0.06007 -0.300781,-0.0918 -0.09909,-0.03208 -0.197405,-0.06529 -0.294922,-0.09961 -0.09781,-0.03404 -0.194817,-0.0692 -0.291016,-0.105469 -0.09652,-0.036 -0.192228,-0.07311 -0.287109,-0.111328 -0.09393,-0.03862 -0.187031,-0.07834 -0.279297,-0.119141 -0.0933,-0.04056 -0.185752,-0.08223 -0.277344,-0.125 -0.09071,-0.04319 -0.180555,-0.08746 -0.269531,-0.132812 -0.08942,-0.04514 -0.177968,-0.09137 -0.265625,-0.138672 -0.08814,-0.0471 -0.17538,-0.09528 -0.261718,-0.144531 -0.08554,-0.04907 -0.170175,-0.09921 -0.253907,-0.150391 -0.08426,-0.05167 -0.167599,-0.104408 -0.25,-0.158203 -0.08166,-0.05365 -0.162392,-0.108339 -0.242187,-0.164063 -0.08038,-0.0556 -0.159807,-0.112245 -0.238282,-0.169922 -0.07845,-0.05821 -0.155922,-0.117457 -0.232421,-0.177734 l -0.08399,0.02344 C 10.768959,46.790086 8.209686,42.173719 7.1679688,37.119141 4.0421757,41.145387 2.3644452,43.281766 2.3644452,43.281766 6.427052,58.494868 10.498013,59.737279 15.402344,61.570312 43.005506,53.151075 61.386185,24.729751 62.804688,19.400391 55.701626,12.989687 50.892058,8.6917401 46.842034,2.1693339 Z"
         style="color:#000000;display:inline;overflow:visible;visibility:visible;fill:#729fcf;fill-rule:evenodd;stroke:#000000;stroke-width:3.99999;stroke-linecap:butt;stroke-linejoin:miter;stroke-miterlimit:4;stroke-dasharray:none;stroke-dashoffset:0;stroke-opacity:1;marker:none;enable-background:accumulate"
         id="path1033" />
      <path
         transform="matrix(0.26458333,0,0,0.26458333,0,280.06665)"
         d="M 14.503906 50.351562 L 14.587891 50.328125 A 15.802205 25.356166 47.051855 0 0 14.820312 50.505859 A 15.802205 25.356166 47.051855 0 0 15.058594 50.675781 A 15.802205 25.356166 47.051855 0 0 15.300781 50.839844 A 15.802205 25.356166 47.051855 0 0 15.550781 50.998047 A 15.802205 25.356166 47.051855 0 0 15.804688 51.148438 A 15.802205 25.356166 47.051855 0 0 16.066406 51.292969 A 15.802205 25.356166 47.051855 0 0 16.332031 51.431641 A 15.802205 25.356166 47.051855 0 0 16.601562 51.564453 A 15.802205 25.356166 47.051855 0 0 16.878906 51.689453 A 15.802205 25.356166 47.051855 0 0 17.158203 51.808594 A 15.802205 25.356166 47.051855 0 0 17.445312 51.919922 A 15.802205 25.356166 47.051855 0 0 17.736328 52.025391 A 15.802205 25.356166 47.051855 0 0 18.03125 52.125 A 15.802205 25.356166 47.051855 0 0 18.332031 52.216797 A 15.802205 25.356166 47.051855 0 0 18.636719 52.302734 A 15.802205 25.356166 47.051855 0 0 18.945312 52.380859 A 15.802205 25.356166 47.051855 0 0 19.259766 52.453125 A 15.802205 25.356166 47.051855 0 0 19.578125 52.517578 A 15.802205 25.356166 47.051855 0 0 19.900391 52.576172 A 15.802205 25.356166 47.051855 0 0 20.226562 52.626953 A 15.802205 25.356166 47.051855 0 0 20.556641 52.671875 A 15.802205 25.356166 47.051855 0 0 20.890625 52.708984 A 15.802205 25.356166 47.051855 0 0 21.228516 52.738281 A 15.802205 25.356166 47.051855 0 0 21.568359 52.761719 A 15.802205 25.356166 47.051855 0 0 21.914062 52.779297 A 15.802205 25.356166 47.051855 0 0 22.261719 52.787109 A 15.802205 25.356166 47.051855 0 0 22.613281 52.791016 A 15.802205 25.356166 47.051855 0 0 22.96875 52.787109 A 15.802205 25.356166 47.051855 0 0 23.326172 52.775391 A 15.802205 25.356166 47.051855 0 0 23.685547 52.755859 A 15.802205 25.356166 47.051855 0 0 24.048828 52.730469 A 15.802205 25.356166 47.051855 0 0 24.416016 52.699219 A 15.802205 25.356166 47.051855 0 0 24.783203 52.660156 A 15.802205 25.356166 47.051855 0 0 25.154297 52.613281 A 15.802205 25.356166 47.051855 0 0 25.527344 52.560547 A 15.802205 25.356166 47.051855 0 0 25.902344 52.501953 A 15.802205 25.356166 47.051855 0 0 26.28125 52.435547 A 15.802205 25.356166 47.051855 0 0 26.660156 52.361328 A 15.802205 25.356166 47.051855 0 0 27.041016 52.28125 A 15.802205 25.356166 47.051855 0 0 27.423828 52.193359 A 15.802205 25.356166 47.051855 0 0 27.808594 52.099609 A 15.802205 25.356166 47.051855 0 0 28.193359 52 A 15.802205 25.356166 47.051855 0 0 28.580078 51.892578 A 15.802205 25.356166 47.051855 0 0 28.96875 51.777344 A 15.802205 25.356166 47.051855 0 0 29.357422 51.658203 A 15.802205 25.356166 47.051855 0 0 29.748047 51.53125 A 15.802205 25.356166 47.051855 0 0 30.138672 51.396484 A 15.802205 25.356166 47.051855 0 0 30.529297 51.255859 A 15.802205 25.356166 47.051855 0 0 30.921875 51.109375 A 15.802205 25.356166 47.051855 0 0 31.314453 50.957031 A 15.802205 25.356166 47.051855 0 0 31.705078 50.796875 A 15.802205 25.356166 47.051855 0 0 32.097656 50.632812 A 15.802205 25.356166 47.051855 0 0 32.490234 50.460938 A 15.802205 25.356166 47.051855 0 0 32.882812 50.28125 A 15.802205 25.356166 47.051855 0 0 33.275391 50.097656 A 15.802205 25.356166 47.051855 0 0 33.667969 49.908203 A 15.802205 25.356166 47.051855 0 0 34.058594 49.710938 A 15.802205 25.356166 47.051855 0 0 34.449219 49.509766 A 15.802205 25.356166 47.051855 0 0 34.837891 49.300781 A 15.802205 25.356166 47.051855 0 0 35.226562 49.087891 A 15.802205 25.356166 47.051855 0 0 35.613281 48.867188 A 15.802205 25.356166 47.051855 0 0 36 48.642578 A 15.802205 25.356166 47.051855 0 0 36.384766 48.412109 A 15.802205 25.356166 47.051855 0 0 36.769531 48.175781 A 15.802205 25.356166 47.051855 0 0 37.150391 47.933594 A 15.802205 25.356166 47.051855 0 0 37.53125 47.6875 A 15.802205 25.356166 47.051855 0 0 37.910156 47.435547 A 15.802205 25.356166 47.051855 0 0 38.285156 47.177734 A 15.802205 25.356166 47.051855 0 0 38.660156 46.914062 A 15.802205 25.356166 47.051855 0 0 39.03125 46.646484 A 15.802205 25.356166 47.051855 0 0 39.402344 46.375 A 15.802205 25.356166 47.051855 0 0 39.769531 46.097656 A 15.802205 25.356166 47.051855 0 0 40.132812 45.816406 A 15.802205 25.356166 47.051855 0 0 40.496094 45.529297 A 15.802205 25.356166 47.051855 0 0 40.853516 45.238281 A 15.802205 25.356166 47.051855 0 0 41.210938 44.943359 A 15.802205 25.356166 47.051855 0 0 41.5625 44.642578 A 15.802205 25.356166 47.051855 0 0 41.914062 44.339844 A 15.802205 25.356166 47.051855 0 0 42.259766 44.03125 A 15.802205 25.356166 47.051855 0 0 42.603516 43.71875 A 15.802205 25.356166 47.051855 0 0 42.941406 43.402344 A 15.802205 25.356166 47.051855 0 0 43.277344 43.082031 A 15.802205 25.356166 47.051855 0 0 43.609375 42.757812 A 15.802205 25.356166 47.051855 0 0 43.666016 42.703125 A 15.802205 25.356166 47.051855 0 0 43.994141 42.375 A 15.802205 25.356166 47.051855 0 0 44.316406 42.044922 A 15.802205 25.356166 47.051855 0 0 44.636719 41.708984 A 15.802205 25.356166 47.051855 0 0 44.951172 41.371094 A 15.802205 25.356166 47.051855 0 0 45.261719 41.029297 A 15.802205 25.356166 47.051855 0 0 45.568359 40.685547 A 15.802205 25.356166 47.051855 0 0 45.871094 40.339844 A 15.802205 25.356166 47.051855 0 0 46.167969 39.990234 A 15.802205 25.356166 47.051855 0 0 46.460938 39.636719 A 15.802205 25.356166 47.051855 0 0 46.748047 39.28125 A 15.802205 25.356166 47.051855 0 0 47.03125 38.923828 A 15.802205 25.356166 47.051855 0 0 47.308594 38.564453 A 15.802205 25.356166 47.051855 0 0 47.580078 38.203125 A 15.802205 25.356166 47.051855 0 0 47.847656 37.837891 A 15.802205 25.356166 47.051855 0 0 48.109375 37.472656 A 15.802205 25.356166 47.051855 0 0 48.367188 37.105469 A 15.802205 25.356166 47.051855 0 0 48.617188 36.734375 A 15.802205 25.356166 47.051855 0 0 48.863281 36.363281 A 15.802205 25.356166 47.051855 0 0 49.103516 35.992188 A 15.802205 25.356166 47.051855 0 0 49.337891 35.617188 A 15.802205 25.356166 47.051855 0 0 49.566406 35.242188 A 15.802205 25.356166 47.051855 0 0 49.787109 34.865234 A 15.802205 25.356166 47.051855 0 0 50.003906 34.488281 A 15.802205 25.356166 47.051855 0 0 50.214844 34.111328 A 15.802205 25.356166 47.051855 0 0 50.419922 33.732422 A 15.802205 25.356166 47.051855 0 0 50.617188 33.353516 A 15.802205 25.356166 47.051855 0 0 50.810547 32.972656 A 15.802205 25.356166 47.051855 0 0 50.996094 32.59375 A 15.802205 25.356166 47.051855 0 0 51.173828 32.212891 A 15.802205 25.356166 47.051855 0 0 51.347656 31.832031 A 15.802205 25.356166 47.051855 0 0 51.513672 31.451172 A 15.802205 25.356166 47.051855 0 0 51.673828 31.072266 A 15.802205 25.356166 47.051855 0 0 51.828125 30.691406 A 15.802205 25.356166 47.051855 0 0 51.974609 30.3125 A 15.802205 25.356166 47.051855 0 0 52.113281 29.933594 A 15.802205 25.356166 47.051855 0 0 52.248047 29.556641 A 15.802205 25.356166 47.051855 0 0 52.375 29.177734 A 15.802205 25.356166 47.051855 0 0 52.494141 28.802734 A 15.802205 25.356166 47.051855 0 0 52.607422 28.427734 A 15.802205 25.356166 47.051855 0 0 52.712891 28.052734 A 15.802205 25.356166 47.051855 0 0 52.8125 27.679688 A 15.802205 25.356166 47.051855 0 0 52.904297 27.308594 A 15.802205 25.356166 47.051855 0 0 52.988281 26.939453 A 15.802205 25.356166 47.051855 0 0 53.066406 26.570312 A 15.802205 25.356166 47.051855 0 0 53.136719 26.205078 A 15.802205 25.356166 47.051855 0 0 53.201172 25.839844 A 15.802205 25.356166 47.051855 0 0 53.257812 25.478516 A 15.802205 25.356166 47.051855 0 0 53.308594 25.117188 A 15.802205 25.356166 47.051855 0 0 53.351562 24.759766 A 15.802205 25.356166 47.051855 0 0 53.386719 24.404297 A 15.802205 25.356166 47.051855 0 0 53.414062 24.052734 A 15.802205 25.356166 47.051855 0 0 53.435547 23.701172 A 15.802205 25.356166 47.051855 0 0 53.449219 23.355469 A 15.802205 25.356166 47.051855 0 0 53.457031 23.009766 A 15.802205 25.356166 47.051855 0 0 53.455078 22.667969 A 15.802205 25.356166 47.051855 0 0 53.447266 22.330078 A 15.802205 25.356166 47.051855 0 0 53.433594 21.996094 A 15.802205 25.356166 47.051855 0 0 53.412109 21.664062 A 15.802205 25.356166 47.051855 0 0 53.382812 21.335938 A 15.802205 25.356166 47.051855 0 0 53.345703 21.009766 A 15.802205 25.356166 47.051855 0 0 53.302734 20.689453 A 15.802205 25.356166 47.051855 0 0 53.251953 20.373047 A 15.802205 25.356166 47.051855 0 0 53.193359 20.058594 A 15.802205 25.356166 47.051855 0 0 53.128906 19.75 A 15.802205 25.356166 47.051855 0 0 53.056641 19.445312 A 15.802205 25.356166 47.051855 0 0 52.978516 19.142578 A 15.802205 25.356166 47.051855 0 0 52.892578 18.845703 A 15.802205 25.356166 47.051855 0 0 52.798828 18.554688 A 15.802205 25.356166 47.051855 0 0 52.699219 18.265625 A 15.802205 25.356166 47.051855 0 0 52.59375 17.982422 A 15.802205 25.356166 47.051855 0 0 52.478516 17.705078 A 15.802205 25.356166 47.051855 0 0 52.359375 17.431641 A 15.802205 25.356166 47.051855 0 0 52.230469 17.162109 A 15.802205 25.356166 47.051855 0 0 52.097656 16.898438 A 15.802205 25.356166 47.051855 0 0 51.957031 16.638672 A 15.802205 25.356166 47.051855 0 0 51.808594 16.384766 A 15.802205 25.356166 47.051855 0 0 51.654297 16.136719 A 15.802205 25.356166 47.051855 0 0 51.494141 15.894531 A 15.802205 25.356166 47.051855 0 0 51.326172 15.65625 A 15.802205 25.356166 47.051855 0 0 51.152344 15.423828 A 15.802205 25.356166 47.051855 0 0 50.972656 15.197266 A 15.802205 25.356166 47.051855 0 0 50.787109 14.976562 A 15.802205 25.356166 47.051855 0 0 50.619141 14.787109 A 25.356166 25.356166 0 0 0 50.560547 14.724609 A 25.356166 25.356166 0 0 0 32 6.6445312 A 25.356166 25.356166 0 0 0 6.6445312 32 A 25.356166 25.356166 0 0 0 14.503906 50.351562 z "
         style="fill:#ffffff;stroke:#000000;stroke-width:3.99874;paint-order:markers fill stroke"
         id="path1062" />
    </g>
  </g>
</svg>
