<?xml version="1.0" encoding="UTF-8" standalone="no"?>
<svg
   xmlns:dc="http://purl.org/dc/elements/1.1/"
   xmlns:cc="http://creativecommons.org/ns#"
   xmlns:rdf="http://www.w3.org/1999/02/22-rdf-syntax-ns#"
   xmlns:svg="http://www.w3.org/2000/svg"
   xmlns="http://www.w3.org/2000/svg"
   xmlns:sodipodi="http://sodipodi.sourceforge.net/DTD/sodipodi-0.dtd"
   xmlns:inkscape="http://www.inkscape.org/namespaces/inkscape"
   inkscape:export-ydpi="96"
   inkscape:export-xdpi="96"
   inkscape:export-filename="C:\Users\PcCom\AppData\Roaming\Blender Foundation\Blender\2.81\scripts\addons\sverchok\ui\icons\sv_slice_solid.png"
   sodipodi:docname="sv_slice_solid.svg"
   inkscape:version="1.0 (4035a4fb49, 2020-05-01)"
   id="svg8"
   version="1.1"
   viewBox="0 0 16.933333 16.933334"
   height="64"
   width="64">
  <defs
     id="defs2">
    <inkscape:perspective
       id="perspective900"
       inkscape:persp3d-origin="7.8017927 : 6.5863493 : 1"
       inkscape:vp_z="17.98605 : 17.497871 : 1"
       inkscape:vp_y="0 : 1000 : 0"
       inkscape:vp_x="-4.2662733 : 21.154676 : 1"
       sodipodi:type="inkscape:persp3d" />
    <marker
       inkscape:isstock="true"
       style="overflow:visible"
       id="Arrow1Sstart"
       refX="0.0"
       refY="0.0"
       orient="auto"
       inkscape:stockid="Arrow1Sstart">
      <path
         transform="scale(0.2) translate(6,0)"
         style="fill-rule:evenodd;stroke:#000000;stroke-width:1pt;stroke-opacity:1;fill:#000000;fill-opacity:1"
         d="M 0.0,0.0 L 5.0,-5.0 L -12.5,0.0 L 5.0,5.0 L 0.0,0.0 z "
         id="path841" />
    </marker>
    <marker
       inkscape:stockid="Arrow1Send"
       orient="auto"
       refY="0.0"
       refX="0.0"
       id="marker9994"
       style="overflow:visible;"
       inkscape:isstock="true">
      <path
         id="path9992"
         d="M 0.0,0.0 L 5.0,-5.0 L -12.5,0.0 L 5.0,5.0 L 0.0,0.0 z "
         style="fill-rule:evenodd;stroke:#000000;stroke-width:1pt;stroke-opacity:1;fill:#000000;fill-opacity:1"
         transform="scale(0.2) rotate(180) translate(6,0)" />
    </marker>
    <marker
       inkscape:stockid="Arrow1Send"
       orient="auto"
       refY="0.0"
       refX="0.0"
       id="marker7727"
       style="overflow:visible;"
       inkscape:isstock="true">
      <path
         id="path7725"
         d="M 0.0,0.0 L 5.0,-5.0 L -12.5,0.0 L 5.0,5.0 L 0.0,0.0 z "
         style="fill-rule:evenodd;stroke:#000000;stroke-width:1pt;stroke-opacity:1;fill:#000000;fill-opacity:1"
         transform="scale(0.2) rotate(180) translate(6,0)" />
    </marker>
    <marker
       inkscape:stockid="Arrow1Send"
       orient="auto"
       refY="0.0"
       refX="0.0"
       id="marker1273"
       style="overflow:visible;"
       inkscape:isstock="true">
      <path
         id="path1271"
         d="M 0.0,0.0 L 5.0,-5.0 L -12.5,0.0 L 5.0,5.0 L 0.0,0.0 z "
         style="fill-rule:evenodd;stroke:#000000;stroke-width:1pt;stroke-opacity:1;fill:#000000;fill-opacity:1"
         transform="scale(0.2) rotate(180) translate(6,0)" />
    </marker>
    <marker
       inkscape:isstock="true"
       style="overflow:visible"
       id="TriangleOutM"
       refX="0.0"
       refY="0.0"
       orient="auto"
       inkscape:stockid="TriangleOutM">
      <path
         transform="scale(0.4)"
         style="fill-rule:evenodd;stroke:#000000;stroke-width:1pt;stroke-opacity:1;fill:#000000;fill-opacity:1"
         d="M 5.77,0.0 L -2.88,5.0 L -2.88,-5.0 L 5.77,0.0 z "
         id="path974" />
    </marker>
    <marker
       inkscape:isstock="true"
       style="overflow:visible"
       id="TriangleOutL"
       refX="0.0"
       refY="0.0"
       orient="auto"
       inkscape:stockid="TriangleOutL">
      <path
         transform="scale(0.8)"
         style="fill-rule:evenodd;stroke:#000000;stroke-width:1pt;stroke-opacity:1;fill:#000000;fill-opacity:1"
         d="M 5.77,0.0 L -2.88,5.0 L -2.88,-5.0 L 5.77,0.0 z "
         id="path971" />
    </marker>
    <marker
       inkscape:isstock="true"
       style="overflow:visible;"
       id="Arrow2Lend"
       refX="0.0"
       refY="0.0"
       orient="auto"
       inkscape:stockid="Arrow2Lend">
      <path
         transform="scale(1.1) rotate(180) translate(1,0)"
         d="M 8.7185878,4.0337352 L -2.2072895,0.016013256 L 8.7185884,-4.0017078 C 6.9730900,-1.6296469 6.9831476,1.6157441 8.7185878,4.0337352 z "
         style="fill-rule:evenodd;stroke-width:0.625;stroke-linejoin:round;stroke:#000000;stroke-opacity:1;fill:#000000;fill-opacity:1"
         id="path850" />
    </marker>
    <marker
       inkscape:isstock="true"
       style="overflow:visible;"
       id="Arrow1Lend"
       refX="0.0"
       refY="0.0"
       orient="auto"
       inkscape:stockid="Arrow1Lend">
      <path
         transform="scale(0.8) rotate(180) translate(12.5,0)"
         style="fill-rule:evenodd;stroke:#000000;stroke-width:1pt;stroke-opacity:1;fill:#000000;fill-opacity:1"
         d="M 0.0,0.0 L 5.0,-5.0 L -12.5,0.0 L 5.0,5.0 L 0.0,0.0 z "
         id="path832" />
    </marker>
  </defs>
  <sodipodi:namedview
     inkscape:snap-global="false"
     inkscape:snap-page="true"
     inkscape:snap-grids="false"
     inkscape:document-rotation="0"
     inkscape:snap-center="true"
     showguides="false"
     inkscape:window-maximized="1"
     inkscape:window-y="-8"
     inkscape:window-x="-8"
     inkscape:window-height="705"
     inkscape:window-width="1360"
     units="px"
     showgrid="true"
     inkscape:current-layer="layer1"
     inkscape:document-units="mm"
     inkscape:cy="31.303679"
     inkscape:cx="35.537054"
     inkscape:zoom="6.7533541"
     inkscape:pageshadow="2"
     inkscape:pageopacity="0"
     borderopacity="1.0"
     bordercolor="#666666"
     pagecolor="#323232"
     id="base">
    <inkscape:grid
       id="grid4512"
       type="xygrid"
       empspacing="4" />
  </sodipodi:namedview>
  <metadata
     id="metadata5">
    <rdf:RDF>
      <cc:Work
         rdf:about="">
        <dc:format>image/svg+xml</dc:format>
        <dc:type
           rdf:resource="http://purl.org/dc/dcmitype/StillImage" />
        <dc:title></dc:title>
      </cc:Work>
    </rdf:RDF>
  </metadata>
  <g
     style="opacity:0.998"
     transform="translate(0,-280.06665)"
     id="layer1"
     inkscape:groupmode="layer"
     inkscape:label="Layer 1">
    <text
       id="text5669"
       y="281.8187"
       x="0.83109218"
       style="font-style:normal;font-variant:normal;font-weight:normal;font-stretch:normal;font-size:2.64583px;line-height:125%;font-family:Sans;-inkscape-font-specification:Sans;text-align:start;letter-spacing:0px;word-spacing:0px;writing-mode:lr-tb;text-anchor:start;fill:#000000;fill-opacity:1;stroke:none;stroke-width:0.264583px;stroke-linecap:butt;stroke-linejoin:miter;stroke-opacity:1"
       xml:space="preserve" />
    <rect
       style="fill:none;fill-opacity:1;stroke:none;stroke-width:0.0137423;stroke-linecap:round;stroke-linejoin:round;stroke-miterlimit:4;stroke-dasharray:none;stroke-dashoffset:13.0303;stroke-opacity:1"
       id="rect12186"
       width="16.933331"
       height="16.933331"
       x="-16.933359"
       y="280.06665"
       inkscape:export-xdpi="192"
       inkscape:export-ydpi="192"
       inkscape:export-filename="C:\Users\PcCom\AppData\Roaming\Blender Foundation\Blender\2.80\scripts\addons\sverchok\ui\icons\sv_cut.png"
       transform="scale(-1,1)" />
    <g
       style="opacity:1;fill:#999999;stroke:#000000;stroke-width:1;stroke-miterlimit:4;stroke-dasharray:none;stroke-opacity:1;paint-order:stroke fill markers"
       id="g17606">
      <path
         sodipodi:nodetypes="cccccccccccccccccccccccccccccccccccsccccccccccccc"
         transform="matrix(0.26458333,0,0,0.26458333,0,280.06665)"
         d="m 21.421875,16.076428 -1.970703,1.705078 -11.3164064,10.572266 -0.095703,2.671875 c 0.010295,0.01054 0.020712,0.02096 0.03125,0.03125 L 7.8613281,53.724609 c -0.010335,1.109057 0.8850367,2.014075 1.9941407,2.015625 h 9.9433592 c 1.103011,-0.0026 1.995027,-0.898943 1.992188,-2.001953 -0.0025,-1.099198 -0.89299,-1.989641 -1.992188,-1.992187 h -7.929687 l 0.193359,-20.300525 7.816406,0.02344 c 1.103771,0.0028 2.000476,-0.890366 2.001953,-1.99414 0.0018,-1.103009 -0.891131,-1.998522 -1.99414,-2 L 14.625,27.459239 22.541016,20.070567 h 10.956813 c 1.099959,-0.0025 1.990716,-0.89418 1.992188,-1.994141 0.0018,-1.102248 -0.889941,-1.997445 -1.992188,-2 z m 22.006486,0 c -1.102247,0.0026 -1.993946,0.897752 -1.992187,2 0.0015,1.099961 0.892228,1.99159 1.992187,1.994141 h 6.007186 l -7.753906,7.453125 -9.857422,-0.04883 c -1.100731,-0.0028 -1.996174,0.885609 -2.001953,1.986328 -0.0061,1.103015 0.883312,2.002034 1.986328,2.007812 l 8.503906,0.04297 0.04492,20.234119 h -8.453125 c -1.099959,0.0026 -1.990715,0.894179 -1.992188,1.99414 -0.0018,1.102248 0.889941,1.997445 1.992188,2 H 42.35742 c 0.528176,8.13e-4 1.005709,-0.206841 1.363281,-0.541015 0.02093,-0.01956 0.04438,-0.0362 0.06445,-0.05664 0.02677,-0.02463 0.05282,-0.05003 0.07813,-0.07617 l 11.685547,-11.99414 c 0.343798,-0.35137 0.537162,-0.82287 0.539063,-1.314454 V 18.113538 c -2.35e-4,-0.438331 -0.152822,-0.86295 -0.431641,-1.201172 -0.375706,-0.525819 -0.982656,-0.837299 -1.628906,-0.835938 z m 8.880233,6.47461 v 18.439196 l -7.958985,8.166016 -0.04102,-18.913806 z"
         style="color:#000000;font-style:normal;font-variant:normal;font-weight:normal;font-stretch:normal;font-size:medium;line-height:normal;font-family:sans-serif;font-variant-ligatures:normal;font-variant-position:normal;font-variant-caps:normal;font-variant-numeric:normal;font-variant-alternates:normal;font-variant-east-asian:normal;font-feature-settings:normal;font-variation-settings:normal;text-indent:0;text-align:start;text-decoration:none;text-decoration-line:none;text-decoration-style:solid;text-decoration-color:#000000;letter-spacing:normal;word-spacing:normal;text-transform:none;writing-mode:lr-tb;direction:ltr;text-orientation:mixed;dominant-baseline:auto;baseline-shift:baseline;text-anchor:start;white-space:normal;shape-padding:0;shape-margin:0;inline-size:0;clip-rule:nonzero;display:inline;overflow:visible;visibility:visible;isolation:auto;mix-blend-mode:normal;color-interpolation:sRGB;color-interpolation-filters:linearRGB;solid-color:#000000;solid-opacity:1;vector-effect:none;fill:#999999;fill-opacity:1;fill-rule:nonzero;stroke:#000000;stroke-width:3.77953;stroke-linecap:round;stroke-linejoin:round;stroke-miterlimit:4;stroke-dasharray:none;stroke-dashoffset:336.378;stroke-opacity:1;paint-order:stroke fill markers;color-rendering:auto;image-rendering:auto;shape-rendering:auto;text-rendering:auto;enable-background:accumulate;stop-color:#000000;stop-opacity:1"
         id="path17610" />
    </g>
    <path
       id="path17637"
       d="m 11.078125,280.27148 a 0.52921795,0.52921795 0 0 0 -0.332031,0.14844 l -4.2734378,4.14453 A 0.52921795,0.52921795 0 0 0 6.3125,284.94336 v 11.47852 a 0.52921795,0.52921795 0 0 0 0.8398438,0.42773 l 1.3457031,-0.97852 A 0.52916503,0.52916503 0 0 0 8.6152344,295.13281 0.52916503,0.52916503 0 0 0 7.875,295.01562 l -0.5039062,0.36719 v -10.21484 l 3.2343752,-3.13867 0.02148,1.11914 a 0.52916503,0.52916503 0 0 0 0.539063,0.51953 0.52916503,0.52916503 0 0 0 0.519531,-0.53906 l -0.04297,-2.33985 a 0.52921795,0.52921795 0 0 0 -0.564453,-0.51758 z"
       style="color:#000000;font-style:normal;font-variant:normal;font-weight:normal;font-stretch:normal;font-size:medium;line-height:normal;font-family:sans-serif;font-variant-ligatures:normal;font-variant-position:normal;font-variant-caps:normal;font-variant-numeric:normal;font-variant-alternates:normal;font-variant-east-asian:normal;font-feature-settings:normal;font-variation-settings:normal;text-indent:0;text-align:start;text-decoration:none;text-decoration-line:none;text-decoration-style:solid;text-decoration-color:#000000;letter-spacing:normal;word-spacing:normal;text-transform:none;writing-mode:lr-tb;direction:ltr;text-orientation:mixed;dominant-baseline:auto;baseline-shift:baseline;text-anchor:start;white-space:normal;shape-padding:0;shape-margin:0;inline-size:0;clip-rule:nonzero;display:inline;overflow:visible;visibility:visible;opacity:1;isolation:auto;mix-blend-mode:normal;color-interpolation:sRGB;color-interpolation-filters:linearRGB;solid-color:#000000;solid-opacity:1;vector-effect:none;fill:#ffffff;fill-opacity:1;fill-rule:nonzero;stroke:#000000;stroke-width:1.058;stroke-linecap:round;stroke-linejoin:round;stroke-miterlimit:4;stroke-dasharray:none;stroke-dashoffset:0;stroke-opacity:1;color-rendering:auto;image-rendering:auto;shape-rendering:auto;text-rendering:auto;enable-background:accumulate;stop-color:#000000;stop-opacity:1;paint-order:stroke fill markers" />
    <g
       style="opacity:1"
       id="g17612" />
  </g>
</svg>
